<svg width="903" height="357" xmlns="http://www.w3.org/2000/svg" fill="none">

 <g>
  <title>Layer 1</title>
  <path d="m65.9,338l0,-69.7l15.7,0l0,69.7l-15.7,0zm57.839,0l0,-55.7l-20.4,0l0,-14l56.6,0l0,14l-20.3,0l0,55.7l-15.9,0z" fill="#4074B5" id="svg_8"/>
  <path d="m235.734,322.712c0.627,-0.94 1.661,-1.817 3.102,-2.632c1.441,-0.815 2.851,-1.253 4.23,-1.316c0.188,1.755 0.689,3.541 1.504,5.358c0.815,1.755 1.974,3.353 3.478,4.794c1.567,1.379 3.478,2.538 5.734,3.478c2.256,0.877 4.951,1.316 8.084,1.316c4.575,0 8.209,-1.159 10.904,-3.478c2.695,-2.381 4.042,-5.483 4.042,-9.306c0,-3.635 -0.94,-6.643 -2.82,-9.024c-1.88,-2.381 -5.295,-4.199 -10.246,-5.452l-8.836,-2.256c-2.256,-0.564 -4.387,-1.222 -6.392,-1.974c-2.005,-0.752 -3.76,-1.723 -5.264,-2.914c-1.504,-1.253 -2.695,-2.757 -3.572,-4.512c-0.815,-1.817 -1.222,-4.011 -1.222,-6.58c0,-2.569 0.627,-5.045 1.88,-7.426c1.253,-2.381 2.977,-4.481 5.17,-6.298c2.256,-1.88 4.857,-3.384 7.802,-4.512c3.008,-1.128 6.235,-1.692 9.682,-1.692c3.447,0 6.392,0.439 8.836,1.316c2.444,0.877 4.418,1.943 5.922,3.196c1.504,1.253 2.601,2.632 3.29,4.136c0.752,1.441 1.191,2.726 1.316,3.854c-0.439,0.877 -1.253,1.692 -2.444,2.444c-1.191,0.689 -2.569,1.128 -4.136,1.316c-0.251,-1.379 -0.721,-2.726 -1.41,-4.042c-0.689,-1.379 -1.692,-2.601 -3.008,-3.666c-1.253,-1.128 -2.82,-2.037 -4.7,-2.726c-1.88,-0.689 -4.105,-1.034 -6.674,-1.034c-4.261,0 -7.677,1.128 -10.246,3.384c-2.569,2.193 -3.854,5.107 -3.854,8.742c0,2.068 0.313,3.791 0.94,5.17c0.627,1.316 1.504,2.444 2.632,3.384c1.128,0.877 2.444,1.598 3.948,2.162c1.567,0.564 3.259,1.065 5.076,1.504l8.272,2.068c3.447,0.877 6.298,1.943 8.554,3.196c2.319,1.253 4.136,2.632 5.452,4.136c1.316,1.504 2.225,3.165 2.726,4.982c0.564,1.755 0.846,3.572 0.846,5.452c0,2.82 -0.595,5.515 -1.786,8.084c-1.191,2.569 -2.914,4.857 -5.17,6.862c-2.256,1.943 -4.982,3.509 -8.178,4.7c-3.133,1.128 -6.674,1.692 -10.622,1.692c-3.823,0 -7.144,-0.501 -9.964,-1.504c-2.82,-1.003 -5.17,-2.256 -7.05,-3.76c-1.88,-1.567 -3.321,-3.29 -4.324,-5.17c-0.94,-1.88 -1.441,-3.697 -1.504,-5.452zm96.12,-11.938c0,3.948 0.47,7.395 1.41,10.34c1.003,2.945 2.287,5.421 3.854,7.426c1.629,1.943 3.478,3.415 5.546,4.418c2.131,1.003 4.355,1.504 6.674,1.504c5.013,0 8.836,-1.661 11.468,-4.982c2.632,-3.384 3.948,-8.46 3.948,-15.228c0,-3.259 -0.376,-6.298 -1.128,-9.118c-0.752,-2.82 -1.88,-5.264 -3.384,-7.332c-1.441,-2.068 -3.227,-3.697 -5.358,-4.888c-2.131,-1.191 -4.575,-1.786 -7.332,-1.786c-2.005,0 -3.948,0.376 -5.828,1.128c-1.88,0.752 -3.541,1.943 -4.982,3.572c-1.441,1.567 -2.632,3.603 -3.572,6.11c-0.877,2.444 -1.316,5.389 -1.316,8.836zm-7.896,2.914c0,-3.823 0.689,-7.363 2.068,-10.622c1.379,-3.321 3.227,-6.141 5.546,-8.46c2.381,-2.381 5.139,-4.23 8.272,-5.546c3.196,-1.379 6.58,-2.068 10.152,-2.068c3.885,0 7.238,0.658 10.058,1.974c2.883,1.316 5.233,3.071 7.05,5.264c1.88,2.193 3.259,4.763 4.136,7.708c0.94,2.945 1.41,6.047 1.41,9.306c0,3.823 -0.595,7.395 -1.786,10.716c-1.191,3.321 -2.914,6.235 -5.17,8.742c-2.193,2.444 -4.888,4.387 -8.084,5.828c-3.196,1.441 -6.831,2.162 -10.904,2.162c-3.008,0 -5.891,-0.564 -8.648,-1.692c-2.757,-1.128 -5.201,-2.757 -7.332,-4.888c-2.068,-2.131 -3.729,-4.731 -4.982,-7.802c-1.191,-3.133 -1.786,-6.674 -1.786,-10.622zm90.892,-47.658c1.065,-0.564 2.224,-0.971 3.478,-1.222c1.316,-0.251 2.632,-0.376 3.948,-0.376l0,71.816c-0.878,0.501 -2.037,0.846 -3.478,1.034c-1.379,0.251 -2.695,0.376 -3.948,0.376l0,-71.628zm73.466,67.21c3.008,0 5.734,-0.846 8.178,-2.538c2.444,-1.755 4.292,-4.105 5.546,-7.05l0,-34.122c1.065,-0.564 2.224,-0.971 3.478,-1.222c1.316,-0.251 2.632,-0.376 3.948,-0.376l0,48.316c-0.878,0.501 -1.974,0.846 -3.29,1.034c-1.254,0.251 -2.507,0.376 -3.76,0.376l0,-8.93c-0.627,1.065 -1.504,2.193 -2.632,3.384c-1.066,1.128 -2.35,2.193 -3.854,3.196c-1.504,0.94 -3.228,1.723 -5.17,2.35c-1.88,0.627 -3.98,0.94 -6.298,0.94c-2.319,0 -4.512,-0.345 -6.58,-1.034c-2.006,-0.689 -3.76,-1.755 -5.264,-3.196c-1.504,-1.504 -2.695,-3.353 -3.572,-5.546c-0.878,-2.256 -1.316,-4.919 -1.316,-7.99l0,-31.302c1.065,-0.564 2.224,-0.971 3.478,-1.222c1.316,-0.251 2.632,-0.376 3.948,-0.376l0,30.08c0,2.82 0.344,5.201 1.034,7.144c0.689,1.943 1.629,3.509 2.82,4.7c1.19,1.191 2.569,2.068 4.136,2.632c1.629,0.501 3.352,0.752 5.17,0.752zm59.974,-41.454c0.501,-0.689 1.285,-1.316 2.35,-1.88c1.128,-0.627 2.35,-0.94 3.666,-0.94l3.008,0l0,-13.536c1.003,-0.815 2.162,-1.41 3.478,-1.786c1.379,-0.439 2.695,-0.658 3.948,-0.658l0,15.98l18.424,0c-0.063,1.065 -0.376,1.974 -0.94,2.726c-0.501,0.689 -1.159,1.034 -1.974,1.034l-15.51,0l0,30.832c0,2.005 0.219,3.635 0.658,4.888c0.501,1.191 1.159,2.131 1.974,2.82c0.815,0.689 1.755,1.159 2.82,1.41c1.065,0.251 2.162,0.376 3.29,0.376c2.068,0 3.791,-0.407 5.17,-1.222c1.379,-0.815 2.507,-1.661 3.384,-2.538c0.877,0.251 1.441,0.783 1.692,1.598c-0.313,0.501 -0.815,1.159 -1.504,1.974c-0.689,0.815 -1.598,1.629 -2.726,2.444c-1.128,0.752 -2.475,1.41 -4.042,1.974c-1.567,0.564 -3.321,0.846 -5.264,0.846c-1.755,0 -3.415,-0.219 -4.982,-0.658c-1.567,-0.439 -2.945,-1.159 -4.136,-2.162c-1.128,-1.003 -2.037,-2.35 -2.726,-4.042c-0.689,-1.692 -1.034,-3.791 -1.034,-6.298l0,-32.242l-9.024,0l0,-0.94zm84.953,-18.612c-0.564,1.003 -1.441,2.068 -2.632,3.196c-1.191,1.065 -2.256,1.817 -3.196,2.256c-0.94,-0.439 -2.005,-1.191 -3.196,-2.256c-1.191,-1.128 -2.099,-2.193 -2.726,-3.196c0.627,-1.065 1.535,-2.162 2.726,-3.29c1.191,-1.128 2.256,-1.943 3.196,-2.444c0.94,0.501 2.005,1.316 3.196,2.444c1.253,1.128 2.131,2.225 2.632,3.29zm-9.776,16.356c1.065,-0.564 2.225,-0.971 3.478,-1.222c1.316,-0.251 2.632,-0.376 3.948,-0.376l0,48.316c-0.877,0.501 -2.037,0.846 -3.478,1.034c-1.379,0.251 -2.695,0.376 -3.948,0.376l0,-48.128zm57.582,21.244c0,3.948 0.47,7.395 1.41,10.34c1.003,2.945 2.288,5.421 3.854,7.426c1.63,1.943 3.478,3.415 5.546,4.418c2.131,1.003 4.356,1.504 6.674,1.504c5.014,0 8.836,-1.661 11.468,-4.982c2.632,-3.384 3.948,-8.46 3.948,-15.228c0,-3.259 -0.376,-6.298 -1.128,-9.118c-0.752,-2.82 -1.88,-5.264 -3.384,-7.332c-1.441,-2.068 -3.227,-3.697 -5.358,-4.888c-2.13,-1.191 -4.574,-1.786 -7.332,-1.786c-2.005,0 -3.948,0.376 -5.828,1.128c-1.88,0.752 -3.54,1.943 -4.982,3.572c-1.441,1.567 -2.632,3.603 -3.572,6.11c-0.877,2.444 -1.316,5.389 -1.316,8.836zm-7.896,2.914c0,-3.823 0.69,-7.363 2.068,-10.622c1.379,-3.321 3.228,-6.141 5.546,-8.46c2.382,-2.381 5.139,-4.23 8.272,-5.546c3.196,-1.379 6.58,-2.068 10.152,-2.068c3.886,0 7.238,0.658 10.058,1.974c2.883,1.316 5.233,3.071 7.05,5.264c1.88,2.193 3.259,4.763 4.136,7.708c0.94,2.945 1.41,6.047 1.41,9.306c0,3.823 -0.595,7.395 -1.786,10.716c-1.19,3.321 -2.914,6.235 -5.17,8.742c-2.193,2.444 -4.888,4.387 -8.084,5.828c-3.196,1.441 -6.83,2.162 -10.904,2.162c-3.008,0 -5.89,-0.564 -8.648,-1.692c-2.757,-1.128 -5.201,-2.757 -7.332,-4.888c-2.068,-2.131 -3.728,-4.731 -4.982,-7.802c-1.19,-3.133 -1.786,-6.674 -1.786,-10.622zm125.578,-6.016c0,-5.327 -1.097,-9.212 -3.29,-11.656c-2.193,-2.507 -5.295,-3.76 -9.306,-3.76c-1.441,0 -2.883,0.282 -4.324,0.846c-1.379,0.501 -2.726,1.191 -4.042,2.068c-1.253,0.877 -2.444,1.911 -3.572,3.102c-1.128,1.128 -2.131,2.319 -3.008,3.572l0,34.404c-0.877,0.501 -2.037,0.846 -3.478,1.034c-1.379,0.251 -2.695,0.376 -3.948,0.376l0,-48.128c2.068,-1.065 4.387,-1.598 6.956,-1.598l0,9.306c0.815,-1.065 1.849,-2.193 3.102,-3.384c1.316,-1.253 2.757,-2.381 4.324,-3.384c1.629,-1.003 3.384,-1.817 5.264,-2.444c1.943,-0.689 4.011,-1.034 6.204,-1.034c5.076,0 9.087,1.535 12.032,4.606c3.008,3.071 4.512,7.457 4.512,13.16l0,31.49c-0.877,0.501 -2.037,0.846 -3.478,1.034c-1.379,0.251 -2.695,0.376 -3.948,0.376l0,-29.986zm48.768,19.364c0.502,-0.877 1.316,-1.692 2.444,-2.444c1.191,-0.752 2.444,-1.191 3.76,-1.316c0.439,3.196 1.974,5.859 4.606,7.99c2.695,2.068 6.11,3.102 10.246,3.102c3.948,0 6.862,-0.846 8.742,-2.538c1.943,-1.755 2.914,-3.917 2.914,-6.486c0,-2.569 -0.908,-4.575 -2.726,-6.016c-1.754,-1.441 -4.794,-2.695 -9.118,-3.76l-5.546,-1.41c-2.005,-0.501 -3.822,-1.065 -5.452,-1.692c-1.566,-0.627 -2.945,-1.379 -4.136,-2.256c-1.128,-0.94 -2.005,-2.037 -2.632,-3.29c-0.626,-1.253 -0.94,-2.789 -0.94,-4.606c0,-1.943 0.502,-3.823 1.504,-5.64c1.003,-1.88 2.382,-3.541 4.136,-4.982c1.818,-1.441 3.886,-2.569 6.204,-3.384c2.382,-0.877 4.951,-1.316 7.708,-1.316c2.82,0 5.202,0.345 7.144,1.034c1.943,0.627 3.541,1.441 4.794,2.444c1.316,0.94 2.256,1.974 2.82,3.102c0.627,1.128 0.972,2.131 1.034,3.008c-0.438,0.877 -1.19,1.661 -2.256,2.35c-1.065,0.627 -2.224,1.003 -3.478,1.128c-0.438,-2.381 -1.66,-4.449 -3.666,-6.204c-2.005,-1.755 -5.013,-2.632 -9.024,-2.632c-1.316,0 -2.632,0.188 -3.948,0.564c-1.253,0.313 -2.381,0.815 -3.384,1.504c-1.002,0.689 -1.817,1.535 -2.444,2.538c-0.626,0.94 -0.94,2.068 -0.94,3.384c0,2.131 0.752,3.854 2.256,5.17c1.504,1.253 4.136,2.319 7.896,3.196l5.734,1.41c5.452,1.379 9.338,3.133 11.656,5.264c2.382,2.068 3.572,4.731 3.572,7.99c0,2.068 -0.47,4.105 -1.41,6.11c-0.94,1.943 -2.318,3.697 -4.136,5.264c-1.817,1.504 -4.042,2.695 -6.674,3.572c-2.632,0.94 -5.64,1.41 -9.024,1.41c-2.945,0 -5.514,-0.376 -7.708,-1.128c-2.193,-0.689 -4.073,-1.598 -5.64,-2.726c-1.504,-1.128 -2.663,-2.35 -3.478,-3.666c-0.814,-1.379 -1.284,-2.726 -1.41,-4.042z" fill="#4074B5" id="svg_9"/>
  <text fill="#000000" stroke="#000" stroke-width="0" x="315.49998" y="147.83332" id="svg_11" font-size="24" font-family="Noto Sans JP" text-anchor="start" xml:space="preserve"/>
  <text font-style="normal" font-weight="bold" transform="matrix(7.77432 0 0 10.9027 -2381.6 -1271.69)" stroke="null" xml:space="preserve" text-anchor="start" font-family="'Gluten'" font-size="26" id="svg_17" y="134.92016" x="313.53378" fill="#0e9ef7">KESHAV</text>
 </g>
</svg>