<svg width="570" height="570" viewBox="0 0 570 570" fill="none" xmlns="http://www.w3.org/2000/svg">
<line x1="334.5" y1="435" x2="334.5" y2="334" stroke="#454545"/>
<line x1="334.5" y1="236" x2="334.5" y2="135" stroke="#454545"/>
<path d="M235 235L235 135" stroke="#454545"/>
<line x1="235.5" y1="435" x2="235.5" y2="335" stroke="#454545"/>
<line x1="135" y1="334.5" x2="236" y2="334.5" stroke="#454545"/>
<line x1="334" y1="334.5" x2="419" y2="334.5" stroke="#454545"/>
<line x1="334" y1="235.5" x2="424" y2="235.5" stroke="#454545"/>
<line x1="134" y1="234.5" x2="235" y2="234.5" stroke="#454545"/>
<line x1="91.3536" y1="90.6464" x2="480.262" y2="479.555" stroke="#454545"/>
<circle cx="88" cy="87" r="4.5" stroke="#454545"/>
<circle cx="483" cy="483" r="4.5" stroke="#454545"/>
<line x1="10" y1="284.5" x2="560" y2="284.5" stroke="#454545"/>
<circle cx="565" cy="284" r="4.5" stroke="#454545"/>
<circle cx="5" cy="285" r="4.5" stroke="#454545"/>
<line x1="285.5" y1="10" x2="285.5" y2="560" stroke="#454545"/>
<circle cx="286" cy="565" r="4.5" stroke="#454545"/>
<circle cx="285" cy="5" r="4.5" stroke="#454545"/>
<line x1="90.6464" y1="479.555" x2="479.555" y2="90.6464" stroke="#454545"/>
<circle cx="483" cy="87" r="4.5" stroke="#454545"/>
<circle cx="88" cy="483" r="4.5" stroke="#454545"/>
<path d="M341 129.248H339.464V127.744H331.336V129.248H329.8V124.768C329.8 123.275 330.179 122.133 330.936 121.344C331.693 120.544 332.835 120.144 334.36 120.144H336.456C337.981 120.144 339.123 120.544 339.88 121.344C340.627 122.133 341 123.275 341 124.768V129.248ZM339.432 126V124.752C339.432 123.781 339.187 123.061 338.696 122.592C338.205 122.123 337.475 121.888 336.504 121.888H334.296C333.315 121.888 332.584 122.123 332.104 122.592C331.624 123.061 331.384 123.781 331.384 124.752V126H339.432ZM341.224 114.527C341.224 115.327 341.059 116.026 340.728 116.623C340.387 117.221 339.912 117.69 339.304 118.031C338.685 118.362 337.971 118.527 337.16 118.527H336.968C336.147 118.527 335.432 118.362 334.824 118.031C334.205 117.701 333.731 117.242 333.4 116.655C333.059 116.058 332.888 115.37 332.888 114.591C332.888 113.834 333.059 113.173 333.4 112.607C333.731 112.031 334.195 111.583 334.792 111.263C335.389 110.943 336.088 110.783 336.888 110.783H337.512V116.847C338.205 116.826 338.76 116.597 339.176 116.159C339.581 115.711 339.784 115.157 339.784 114.495C339.784 113.877 339.645 113.413 339.368 113.103C339.091 112.783 338.771 112.538 338.408 112.367L339.112 111.007C339.411 111.157 339.725 111.375 340.056 111.663C340.387 111.941 340.664 112.309 340.888 112.767C341.112 113.226 341.224 113.813 341.224 114.527ZM336.248 116.831V112.463C335.651 112.506 335.187 112.719 334.856 113.103C334.515 113.487 334.344 113.989 334.344 114.607C334.344 115.226 334.515 115.733 334.856 116.127C335.187 116.511 335.651 116.746 336.248 116.831ZM341.224 104.24C341.224 105.008 341.085 105.6 340.808 106.016C340.531 106.421 340.221 106.725 339.88 106.928V107.184H341V108.8H329.8V107.152H334.184V106.896C333.971 106.768 333.768 106.597 333.576 106.384C333.373 106.17 333.208 105.888 333.08 105.536C332.952 105.184 332.888 104.752 332.888 104.24C332.888 103.578 333.048 102.97 333.368 102.416C333.688 101.861 334.152 101.418 334.76 101.088C335.368 100.757 336.093 100.592 336.936 100.592H337.176C338.029 100.592 338.76 100.762 339.368 101.104C339.965 101.434 340.424 101.877 340.744 102.432C341.064 102.976 341.224 103.578 341.224 104.24ZM339.784 104.72C339.784 104.005 339.555 103.418 339.096 102.96C338.637 102.49 337.981 102.256 337.128 102.256H336.984C336.141 102.256 335.491 102.485 335.032 102.944C334.573 103.402 334.344 103.994 334.344 104.72C334.344 105.424 334.573 106.01 335.032 106.48C335.491 106.938 336.141 107.168 336.984 107.168H337.128C337.981 107.168 338.637 106.938 339.096 106.48C339.555 106.01 339.784 105.424 339.784 104.72ZM341.144 95.5256C341.144 96.123 341.011 96.6563 340.744 97.1256C340.477 97.595 340.099 97.963 339.608 98.2296C339.117 98.4963 338.531 98.6296 337.848 98.6296H333.112V96.9816H337.736C338.419 96.9816 338.925 96.811 339.256 96.4696C339.576 96.1283 339.736 95.6536 339.736 95.0456C339.736 94.3736 339.512 93.835 339.064 93.4296C338.605 93.0136 337.949 92.8056 337.096 92.8056H333.112V91.1576H341V92.7736H339.816V93.0296C340.136 93.179 340.44 93.4456 340.728 93.8296C341.005 94.2136 341.144 94.779 341.144 95.5256ZM337.096 89.1055H336.856C336.024 89.1055 335.315 88.9402 334.728 88.6095C334.141 88.2682 333.688 87.8202 333.368 87.2655C333.048 86.7108 332.888 86.1028 332.888 85.4415C332.888 84.6735 333.032 84.0868 333.32 83.6815C333.608 83.2655 333.917 82.9615 334.248 82.7695V82.5135H333.112V80.9135H342.616C343.096 80.9135 343.48 81.0575 343.768 81.3455C344.056 81.6228 344.2 82.0068 344.2 82.4975V87.8095H342.76V83.0095C342.76 82.7002 342.6 82.5455 342.28 82.5455H339.768V82.8015C339.96 82.9188 340.157 83.0842 340.36 83.2975C340.563 83.5108 340.728 83.7935 340.856 84.1455C340.984 84.4868 341.048 84.9188 341.048 85.4415C341.048 86.1028 340.893 86.7162 340.584 87.2815C340.264 87.8362 339.811 88.2788 339.224 88.6095C338.627 88.9402 337.917 89.1055 337.096 89.1055ZM339.608 84.9935C339.608 84.2788 339.384 83.6922 338.936 83.2335C338.477 82.7642 337.848 82.5295 337.048 82.5295H336.904C336.083 82.5295 335.453 82.7588 335.016 83.2175C334.568 83.6762 334.344 84.2682 334.344 84.9935C334.344 85.6975 334.568 86.2842 335.016 86.7535C335.453 87.2122 336.083 87.4415 336.904 87.4415H337.048C337.848 87.4415 338.477 87.2122 338.936 86.7535C339.384 86.2842 339.608 85.6975 339.608 84.9935ZM337.096 78.8711H336.856C336.024 78.8711 335.315 78.7058 334.728 78.3751C334.141 78.0338 333.688 77.5858 333.368 77.0311C333.048 76.4765 332.888 75.8685 332.888 75.2071C332.888 74.4391 333.032 73.8525 333.32 73.4471C333.608 73.0311 333.917 72.7271 334.248 72.5351V72.2791H333.112V70.6791H342.616C343.096 70.6791 343.48 70.8231 343.768 71.1111C344.056 71.3885 344.2 71.7725 344.2 72.2631V77.5751H342.76V72.7751C342.76 72.4658 342.6 72.3111 342.28 72.3111H339.768V72.5671C339.96 72.6845 340.157 72.8498 340.36 73.0631C340.563 73.2765 340.728 73.5591 340.856 73.9111C340.984 74.2525 341.048 74.6845 341.048 75.2071C341.048 75.8685 340.893 76.4818 340.584 77.0471C340.264 77.6018 339.811 78.0445 339.224 78.3751C338.627 78.7058 337.917 78.8711 337.096 78.8711ZM339.608 74.7591C339.608 74.0445 339.384 73.4578 338.936 72.9991C338.477 72.5298 337.848 72.2951 337.048 72.2951H336.904C336.083 72.2951 335.453 72.5245 335.016 72.9831C334.568 73.4418 334.344 74.0338 334.344 74.7591C334.344 75.4631 334.568 76.0498 335.016 76.5191C335.453 76.9778 336.083 77.2071 336.904 77.2071H337.048C337.848 77.2071 338.477 76.9778 338.936 76.5191C339.384 76.0498 339.608 75.4631 339.608 74.7591ZM341 68.2527H333.112V66.6047H341V68.2527ZM332.04 67.4207C332.04 67.7407 331.939 68.0127 331.736 68.2367C331.523 68.4501 331.251 68.5567 330.92 68.5567C330.589 68.5567 330.323 68.4501 330.12 68.2367C329.907 68.0127 329.8 67.7407 329.8 67.4207C329.8 67.0901 329.907 66.8181 330.12 66.6047C330.323 66.3914 330.589 66.2847 330.92 66.2847C331.251 66.2847 331.523 66.3914 331.736 66.6047C331.939 66.8181 332.04 67.0901 332.04 67.4207ZM341 64.159H333.112V62.543H334.296V62.287C333.976 62.1377 333.677 61.871 333.4 61.487C333.123 61.103 332.984 60.5323 332.984 59.775C332.984 59.1777 333.117 58.6497 333.384 58.191C333.651 57.7217 334.029 57.3537 334.52 57.087C335 56.8203 335.581 56.687 336.264 56.687H341V58.335H336.392C335.709 58.335 335.208 58.5057 334.888 58.847C334.557 59.1883 334.392 59.6577 334.392 60.255C334.392 60.9377 334.616 61.487 335.064 61.903C335.512 62.3083 336.163 62.511 337.016 62.511H341V64.159ZM337.096 54.6992H336.856C336.024 54.6992 335.315 54.5339 334.728 54.2032C334.141 53.8619 333.688 53.4139 333.368 52.8592C333.048 52.3046 332.888 51.6966 332.888 51.0352C332.888 50.2672 333.032 49.6806 333.32 49.2752C333.608 48.8592 333.917 48.5552 334.248 48.3632V48.1072H333.112V46.5072H342.616C343.096 46.5072 343.48 46.6512 343.768 46.9392C344.056 47.2166 344.2 47.6006 344.2 48.0912V53.4032H342.76V48.6032C342.76 48.2939 342.6 48.1392 342.28 48.1392H339.768V48.3952C339.96 48.5126 340.157 48.6779 340.36 48.8912C340.563 49.1046 340.728 49.3872 340.856 49.7392C340.984 50.0806 341.048 50.5126 341.048 51.0352C341.048 51.6966 340.893 52.3099 340.584 52.8752C340.264 53.4299 339.811 53.8726 339.224 54.2032C338.627 54.5339 337.917 54.6992 337.096 54.6992ZM339.608 50.5872C339.608 49.8726 339.384 49.2859 338.936 48.8272C338.477 48.3579 337.848 48.1232 337.048 48.1232H336.904C336.083 48.1232 335.453 48.3526 335.016 48.8112C334.568 49.2699 334.344 49.8619 334.344 50.5872C334.344 51.2912 334.568 51.8779 335.016 52.3472C335.453 52.8059 336.083 53.0352 336.904 53.0352H337.048C337.848 53.0352 338.477 52.8059 338.936 52.3472C339.384 51.8779 339.608 51.2912 339.608 50.5872Z" fill="#454545"/>
<path d="M429.752 242V240.464H431.256V232.336H429.752V230.8H435.432C436.104 230.8 436.691 230.917 437.192 231.152C437.693 231.376 438.083 231.701 438.36 232.128C438.648 232.544 438.792 233.04 438.792 233.616V233.776C438.792 234.288 438.696 234.709 438.504 235.04C438.312 235.371 438.077 235.627 437.8 235.808C437.533 235.989 437.277 236.117 437.032 236.192V236.448C437.277 236.512 437.539 236.64 437.816 236.832C438.104 237.013 438.344 237.269 438.536 237.6C438.739 237.931 438.84 238.363 438.84 238.896V239.056C438.84 239.675 438.696 240.203 438.408 240.64C438.12 241.077 437.72 241.413 437.208 241.648C436.707 241.883 436.125 242 435.464 242H429.752ZM433 240.432H435.256C435.832 240.432 436.285 240.293 436.616 240.016C436.947 239.739 437.112 239.355 437.112 238.864V238.72C437.112 238.229 436.947 237.845 436.616 237.568C436.296 237.291 435.843 237.152 435.256 237.152H433V240.432ZM433 235.568H435.256C435.8 235.568 436.237 235.435 436.568 235.168C436.899 234.891 437.064 234.517 437.064 234.048V233.888C437.064 233.419 436.899 233.051 436.568 232.784C436.248 232.507 435.811 232.368 435.256 232.368H433V235.568ZM443.849 242.144C443.252 242.144 442.719 242.011 442.249 241.744C441.78 241.477 441.412 241.099 441.145 240.608C440.879 240.117 440.745 239.531 440.745 238.848V234.112H442.393V238.736C442.393 239.419 442.564 239.925 442.905 240.256C443.247 240.576 443.721 240.736 444.329 240.736C445.001 240.736 445.54 240.512 445.945 240.064C446.361 239.605 446.569 238.949 446.569 238.096V234.112H448.217V242H446.601V240.816H446.345C446.196 241.136 445.929 241.44 445.545 241.728C445.161 242.005 444.596 242.144 443.849 242.144ZM450.27 238.096V237.856C450.27 237.024 450.435 236.315 450.766 235.728C451.107 235.141 451.555 234.688 452.11 234.368C452.664 234.048 453.272 233.888 453.934 233.888C454.702 233.888 455.288 234.032 455.694 234.32C456.11 234.608 456.414 234.917 456.606 235.248H456.862V234.112H458.462V243.616C458.462 244.096 458.318 244.48 458.03 244.768C457.752 245.056 457.368 245.2 456.878 245.2H451.566V243.76H456.366C456.675 243.76 456.83 243.6 456.83 243.28V240.768H456.574C456.456 240.96 456.291 241.157 456.078 241.36C455.864 241.563 455.582 241.728 455.23 241.856C454.888 241.984 454.456 242.048 453.934 242.048C453.272 242.048 452.659 241.893 452.094 241.584C451.539 241.264 451.096 240.811 450.766 240.224C450.435 239.627 450.27 238.917 450.27 238.096ZM454.382 240.608C455.096 240.608 455.683 240.384 456.142 239.936C456.611 239.477 456.846 238.848 456.846 238.048V237.904C456.846 237.083 456.616 236.453 456.158 236.016C455.699 235.568 455.107 235.344 454.382 235.344C453.678 235.344 453.091 235.568 452.622 236.016C452.163 236.453 451.934 237.083 451.934 237.904V238.048C451.934 238.848 452.163 239.477 452.622 239.936C453.091 240.384 453.678 240.608 454.382 240.608Z" fill="#454545"/>
<path d="M424.336 341L427.536 329.8H430.576L433.76 341H431.984L431.248 338.36H426.864L426.128 341H424.336ZM427.296 336.76H430.816L429.184 330.872H428.928L427.296 336.76ZM435.325 341V329.8H436.973V341H435.325ZM439.035 337.096V336.856C439.035 336.024 439.2 335.315 439.531 334.728C439.872 334.141 440.32 333.688 440.875 333.368C441.43 333.048 442.038 332.888 442.699 332.888C443.467 332.888 444.054 333.032 444.459 333.32C444.875 333.608 445.179 333.917 445.371 334.248H445.627V333.112H447.227V342.616C447.227 343.096 447.083 343.48 446.795 343.768C446.518 344.056 446.134 344.2 445.643 344.2H440.331V342.76H445.131C445.44 342.76 445.595 342.6 445.595 342.28V339.768H445.339C445.222 339.96 445.056 340.157 444.843 340.36C444.63 340.563 444.347 340.728 443.995 340.856C443.654 340.984 443.222 341.048 442.699 341.048C442.038 341.048 441.424 340.893 440.859 340.584C440.304 340.264 439.862 339.811 439.531 339.224C439.2 338.627 439.035 337.917 439.035 337.096ZM443.147 339.608C443.862 339.608 444.448 339.384 444.907 338.936C445.376 338.477 445.611 337.848 445.611 337.048V336.904C445.611 336.083 445.382 335.453 444.923 335.016C444.464 334.568 443.872 334.344 443.147 334.344C442.443 334.344 441.856 334.568 441.387 335.016C440.928 335.453 440.699 336.083 440.699 336.904V337.048C440.699 337.848 440.928 338.477 441.387 338.936C441.856 339.384 442.443 339.608 443.147 339.608ZM453.35 341.224C452.56 341.224 451.856 341.064 451.238 340.744C450.63 340.413 450.15 339.944 449.798 339.336C449.446 338.728 449.27 338.008 449.27 337.176V336.936C449.27 336.104 449.446 335.389 449.798 334.792C450.15 334.184 450.63 333.715 451.238 333.384C451.856 333.053 452.56 332.888 453.35 332.888C454.139 332.888 454.843 333.053 455.462 333.384C456.08 333.715 456.566 334.184 456.918 334.792C457.27 335.389 457.446 336.104 457.446 336.936V337.176C457.446 338.008 457.27 338.728 456.918 339.336C456.566 339.944 456.08 340.413 455.462 340.744C454.843 341.064 454.139 341.224 453.35 341.224ZM453.35 339.752C454.075 339.752 454.662 339.523 455.11 339.064C455.568 338.595 455.798 337.949 455.798 337.128V336.984C455.798 336.163 455.574 335.523 455.126 335.064C454.678 334.595 454.086 334.36 453.35 334.36C452.635 334.36 452.048 334.595 451.59 335.064C451.142 335.523 450.918 336.163 450.918 336.984V337.128C450.918 337.949 451.142 338.595 451.59 339.064C452.048 339.523 452.635 339.752 453.35 339.752ZM459.497 341V333.112H461.113V334.04H461.369C461.497 333.709 461.7 333.469 461.977 333.32C462.265 333.16 462.617 333.08 463.033 333.08H463.977V334.568H462.969C462.436 334.568 461.999 334.717 461.657 335.016C461.316 335.304 461.145 335.752 461.145 336.36V341H459.497ZM465.685 341V333.112H467.333V341H465.685ZM466.517 332.04C466.197 332.04 465.925 331.939 465.701 331.736C465.487 331.523 465.381 331.251 465.381 330.92C465.381 330.589 465.487 330.323 465.701 330.12C465.925 329.907 466.197 329.8 466.517 329.8C466.847 329.8 467.119 329.907 467.333 330.12C467.546 330.323 467.653 330.589 467.653 330.92C467.653 331.251 467.546 331.523 467.333 331.736C467.119 331.939 466.847 332.04 466.517 332.04ZM472.739 341C472.259 341 471.875 340.856 471.587 340.568C471.309 340.28 471.171 339.896 471.171 339.416V334.504H468.995V333.112H471.171V330.504H472.819V333.112H475.171V334.504H472.819V339.128C472.819 339.448 472.968 339.608 473.266 339.608H474.915V341H472.739ZM477.107 341V329.8H478.755V334.232H479.011C479.117 334.029 479.267 333.832 479.459 333.64C479.661 333.448 479.923 333.293 480.243 333.176C480.573 333.048 480.989 332.984 481.491 332.984C482.088 332.984 482.616 333.117 483.075 333.384C483.544 333.651 483.912 334.029 484.179 334.52C484.445 335 484.579 335.581 484.579 336.264V341H482.931V336.392C482.931 335.709 482.76 335.208 482.419 334.888C482.077 334.557 481.608 334.392 481.011 334.392C480.328 334.392 479.779 334.616 479.363 335.064C478.957 335.512 478.755 336.163 478.755 337.016V341H477.107ZM486.95 341V333.112H488.566V334.04H488.822C488.972 333.763 489.212 333.517 489.542 333.304C489.873 333.091 490.321 332.984 490.886 332.984C491.473 332.984 491.942 333.107 492.294 333.352C492.657 333.587 492.929 333.891 493.11 334.264H493.366C493.548 333.901 493.809 333.597 494.15 333.352C494.502 333.107 494.998 332.984 495.638 332.984C496.15 332.984 496.604 333.091 496.998 333.304C497.393 333.507 497.708 333.816 497.942 334.232C498.177 334.637 498.294 335.144 498.294 335.752V341H496.646V335.88C496.646 335.4 496.513 335.032 496.246 334.776C495.99 334.509 495.622 334.376 495.142 334.376C494.63 334.376 494.22 334.541 493.91 334.872C493.601 335.203 493.446 335.677 493.446 336.296V341H491.798V335.88C491.798 335.4 491.665 335.032 491.398 334.776C491.142 334.509 490.774 334.376 490.294 334.376C489.782 334.376 489.372 334.541 489.062 334.872C488.753 335.203 488.598 335.677 488.598 336.296V341H486.95Z" fill="#454545"/>
<path d="M341 553.664L329.8 550.464V547.424L341 544.24V546.016L338.36 546.752V551.136L341 551.872V553.664ZM336.76 550.704V547.184L330.872 548.816V549.072L336.76 550.704ZM341 542.723H329.8V538.275C329.8 537.592 329.939 536.984 330.216 536.451C330.483 535.907 330.867 535.485 331.368 535.187C331.859 534.877 332.451 534.723 333.144 534.723H333.352C334.045 534.723 334.643 534.883 335.144 535.203C335.645 535.512 336.029 535.933 336.296 536.467C336.563 537 336.696 537.603 336.696 538.275V540.995H341V542.723ZM335.128 540.995V538.451C335.128 537.843 334.968 537.357 334.648 536.995C334.328 536.632 333.891 536.451 333.336 536.451H333.176C332.611 536.451 332.168 536.632 331.848 536.995C331.528 537.357 331.368 537.843 331.368 538.451V540.995H335.128ZM341 533.082H329.8V531.354H341V533.082ZM341 524.941H329.8V523.213H341V524.941ZM341 520.831H333.112V519.215H334.296V518.959C333.976 518.81 333.677 518.543 333.4 518.159C333.123 517.775 332.984 517.204 332.984 516.447C332.984 515.85 333.117 515.322 333.384 514.863C333.651 514.394 334.029 514.026 334.52 513.759C335 513.492 335.581 513.359 336.264 513.359H341V515.007H336.392C335.709 515.007 335.208 515.178 334.888 515.519C334.557 515.86 334.392 516.33 334.392 516.927C334.392 517.61 334.616 518.159 335.064 518.575C335.512 518.98 336.163 519.183 337.016 519.183H341V520.831ZM341 508.246C341 508.726 340.856 509.11 340.568 509.398C340.28 509.675 339.896 509.814 339.416 509.814H334.504V511.99H333.112V509.814H330.504V508.166H333.112V505.814H334.504V508.166H339.128C339.448 508.166 339.608 508.017 339.608 507.718V506.07H341V508.246ZM341.224 500.543C341.224 501.343 341.059 502.042 340.728 502.639C340.387 503.236 339.912 503.706 339.304 504.047C338.685 504.378 337.971 504.543 337.16 504.543H336.968C336.147 504.543 335.432 504.378 334.824 504.047C334.205 503.716 333.731 503.258 333.4 502.671C333.059 502.074 332.888 501.386 332.888 500.607C332.888 499.85 333.059 499.188 333.4 498.623C333.731 498.047 334.195 497.599 334.792 497.279C335.389 496.959 336.088 496.799 336.888 496.799H337.512V502.863C338.205 502.842 338.76 502.612 339.176 502.175C339.581 501.727 339.784 501.172 339.784 500.511C339.784 499.892 339.645 499.428 339.368 499.119C339.091 498.799 338.771 498.554 338.408 498.383L339.112 497.023C339.411 497.172 339.725 497.391 340.056 497.679C340.387 497.956 340.664 498.324 340.888 498.783C341.112 499.242 341.224 499.828 341.224 500.543ZM336.248 502.847V498.479C335.651 498.522 335.187 498.735 334.856 499.119C334.515 499.503 334.344 500.004 334.344 500.623C334.344 501.242 334.515 501.748 334.856 502.143C335.187 502.527 335.651 502.762 336.248 502.847ZM337.096 495.199H336.856C336.024 495.199 335.315 495.034 334.728 494.703C334.141 494.362 333.688 493.914 333.368 493.359C333.048 492.805 332.888 492.197 332.888 491.535C332.888 490.767 333.032 490.181 333.32 489.775C333.608 489.359 333.917 489.055 334.248 488.863V488.607H333.112V487.007H342.616C343.096 487.007 343.48 487.151 343.768 487.439C344.056 487.717 344.2 488.101 344.2 488.591V493.903H342.76V489.103C342.76 488.794 342.6 488.639 342.28 488.639H339.768V488.895C339.96 489.013 340.157 489.178 340.36 489.391C340.563 489.605 340.728 489.887 340.856 490.239C340.984 490.581 341.048 491.013 341.048 491.535C341.048 492.197 340.893 492.81 340.584 493.375C340.264 493.93 339.811 494.373 339.224 494.703C338.627 495.034 337.917 495.199 337.096 495.199ZM339.608 491.087C339.608 490.373 339.384 489.786 338.936 489.327C338.477 488.858 337.848 488.623 337.048 488.623H336.904C336.083 488.623 335.453 488.853 335.016 489.311C334.568 489.77 334.344 490.362 334.344 491.087C334.344 491.791 334.568 492.378 335.016 492.847C335.453 493.306 336.083 493.535 336.904 493.535H337.048C337.848 493.535 338.477 493.306 338.936 492.847C339.384 492.378 339.608 491.791 339.608 491.087ZM341 484.581H333.112V482.965H334.04V482.709C333.709 482.581 333.469 482.378 333.32 482.101C333.16 481.813 333.08 481.461 333.08 481.045V480.101H334.568V481.109C334.568 481.642 334.717 482.08 335.016 482.421C335.304 482.762 335.752 482.933 336.36 482.933H341V484.581ZM341.224 476.164C341.224 476.729 341.128 477.236 340.936 477.684C340.744 478.121 340.461 478.473 340.088 478.74C339.715 478.996 339.261 479.124 338.728 479.124C338.184 479.124 337.736 478.996 337.384 478.74C337.021 478.473 336.749 478.116 336.568 477.668C336.387 477.209 336.296 476.692 336.296 476.116V473.716H335.784C335.325 473.716 334.957 473.855 334.68 474.132C334.403 474.409 334.264 474.836 334.264 475.412C334.264 475.977 334.397 476.409 334.664 476.708C334.931 477.007 335.277 477.204 335.704 477.3L335.208 478.836C334.781 478.708 334.397 478.505 334.056 478.228C333.704 477.94 333.421 477.561 333.208 477.092C332.995 476.623 332.888 476.057 332.888 475.396C332.888 474.372 333.149 473.567 333.672 472.98C334.195 472.393 334.936 472.1 335.896 472.1H339.144C339.464 472.1 339.624 471.951 339.624 471.652V470.98H341V472.212C341 472.585 340.904 472.889 340.712 473.124C340.52 473.359 340.259 473.476 339.928 473.476H339.88V473.716C340.04 473.801 340.227 473.929 340.44 474.1C340.653 474.271 340.84 474.521 341 474.852C341.149 475.183 341.224 475.62 341.224 476.164ZM339.864 475.924C339.864 475.263 339.677 474.729 339.304 474.324C338.92 473.919 338.397 473.716 337.736 473.716H337.576V476.02C337.576 476.457 337.672 476.809 337.864 477.076C338.045 477.343 338.317 477.476 338.68 477.476C339.043 477.476 339.331 477.337 339.544 477.06C339.757 476.783 339.864 476.404 339.864 475.924ZM341 466.965C341 467.445 340.856 467.829 340.568 468.117C340.28 468.394 339.896 468.533 339.416 468.533H334.504V470.709H333.112V468.533H330.504V466.885H333.112V464.533H334.504V466.885H339.128C339.448 466.885 339.608 466.735 339.608 466.437V464.789H341V466.965ZM341 462.596H333.112V460.948H341V462.596ZM332.04 461.764C332.04 462.084 331.939 462.356 331.736 462.58C331.523 462.794 331.251 462.9 330.92 462.9C330.589 462.9 330.323 462.794 330.12 462.58C329.907 462.356 329.8 462.084 329.8 461.764C329.8 461.434 329.907 461.162 330.12 460.948C330.323 460.735 330.589 460.628 330.92 460.628C331.251 460.628 331.523 460.735 331.736 460.948C331.939 461.162 332.04 461.434 332.04 461.764ZM341.224 454.807C341.224 455.596 341.064 456.3 340.744 456.919C340.413 457.527 339.944 458.007 339.336 458.359C338.728 458.711 338.008 458.887 337.176 458.887H336.936C336.104 458.887 335.389 458.711 334.792 458.359C334.184 458.007 333.715 457.527 333.384 456.919C333.053 456.3 332.888 455.596 332.888 454.807C332.888 454.017 333.053 453.313 333.384 452.695C333.715 452.076 334.184 451.591 334.792 451.239C335.389 450.887 336.104 450.711 336.936 450.711H337.176C338.008 450.711 338.728 450.887 339.336 451.239C339.944 451.591 340.413 452.076 340.744 452.695C341.064 453.313 341.224 454.017 341.224 454.807ZM339.752 454.807C339.752 454.081 339.523 453.495 339.064 453.047C338.595 452.588 337.949 452.359 337.128 452.359H336.984C336.163 452.359 335.523 452.583 335.064 453.031C334.595 453.479 334.36 454.071 334.36 454.807C334.36 455.521 334.595 456.108 335.064 456.567C335.523 457.015 336.163 457.239 336.984 457.239H337.128C337.949 457.239 338.595 457.015 339.064 456.567C339.523 456.108 339.752 455.521 339.752 454.807ZM341 448.659H333.112V447.043H334.296V446.787C333.976 446.638 333.677 446.371 333.4 445.987C333.123 445.603 332.984 445.032 332.984 444.275C332.984 443.678 333.117 443.15 333.384 442.691C333.651 442.222 334.029 441.854 334.52 441.587C335 441.32 335.581 441.187 336.264 441.187H341V442.835H336.392C335.709 442.835 335.208 443.006 334.888 443.347C334.557 443.688 334.392 444.158 334.392 444.755C334.392 445.438 334.616 445.987 335.064 446.403C335.512 446.808 336.163 447.011 337.016 447.011H341V448.659Z" fill="#454545"/>
<path d="M56.752 341V339.464H58.256V331.336H56.752V329.8H61.232C62.7253 329.8 63.8667 330.179 64.656 330.936C65.456 331.693 65.856 332.835 65.856 334.36V336.456C65.856 337.981 65.456 339.123 64.656 339.88C63.8667 340.627 62.7253 341 61.232 341H56.752ZM60 339.432H61.248C62.2187 339.432 62.9387 339.187 63.408 338.696C63.8773 338.205 64.112 337.475 64.112 336.504V334.296C64.112 333.315 63.8773 332.584 63.408 332.104C62.9387 331.624 62.2187 331.384 61.248 331.384H60V339.432ZM70.3046 341.224C69.7393 341.224 69.2326 341.128 68.7846 340.936C68.3473 340.744 67.9953 340.461 67.7286 340.088C67.4726 339.715 67.3446 339.261 67.3446 338.728C67.3446 338.184 67.4726 337.736 67.7286 337.384C67.9953 337.021 68.3526 336.749 68.8006 336.568C69.2593 336.387 69.7766 336.296 70.3526 336.296H72.7526V335.784C72.7526 335.325 72.614 334.957 72.3366 334.68C72.0593 334.403 71.6326 334.264 71.0566 334.264C70.4913 334.264 70.0593 334.397 69.7606 334.664C69.462 334.931 69.2646 335.277 69.1686 335.704L67.6326 335.208C67.7606 334.781 67.9633 334.397 68.2406 334.056C68.5286 333.704 68.9073 333.421 69.3766 333.208C69.846 332.995 70.4113 332.888 71.0726 332.888C72.0966 332.888 72.902 333.149 73.4886 333.672C74.0753 334.195 74.3686 334.936 74.3686 335.896V339.144C74.3686 339.464 74.518 339.624 74.8166 339.624H75.4886V341H74.2566C73.8833 341 73.5793 340.904 73.3446 340.712C73.11 340.52 72.9926 340.259 72.9926 339.928V339.88H72.7526C72.6673 340.04 72.5393 340.227 72.3686 340.44C72.198 340.653 71.9473 340.84 71.6166 341C71.286 341.149 70.8486 341.224 70.3046 341.224ZM70.5446 339.864C71.206 339.864 71.7393 339.677 72.1446 339.304C72.55 338.92 72.7526 338.397 72.7526 337.736V337.576H70.4486C70.0113 337.576 69.6593 337.672 69.3926 337.864C69.126 338.045 68.9926 338.317 68.9926 338.68C68.9926 339.043 69.1313 339.331 69.4086 339.544C69.686 339.757 70.0646 339.864 70.5446 339.864ZM79.5041 341C79.0241 341 78.6401 340.856 78.3521 340.568C78.0748 340.28 77.9361 339.896 77.9361 339.416V334.504H75.7601V333.112H77.9361V330.504H79.5841V333.112H81.9361V334.504H79.5841V339.128C79.5841 339.448 79.7335 339.608 80.0321 339.608H81.6801V341H79.5041ZM86.3046 341.224C85.7393 341.224 85.2326 341.128 84.7846 340.936C84.3473 340.744 83.9953 340.461 83.7286 340.088C83.4726 339.715 83.3446 339.261 83.3446 338.728C83.3446 338.184 83.4726 337.736 83.7286 337.384C83.9953 337.021 84.3526 336.749 84.8006 336.568C85.2593 336.387 85.7766 336.296 86.3526 336.296H88.7526V335.784C88.7526 335.325 88.614 334.957 88.3366 334.68C88.0593 334.403 87.6326 334.264 87.0566 334.264C86.4913 334.264 86.0593 334.397 85.7606 334.664C85.462 334.931 85.2646 335.277 85.1686 335.704L83.6326 335.208C83.7606 334.781 83.9633 334.397 84.2406 334.056C84.5286 333.704 84.9073 333.421 85.3766 333.208C85.846 332.995 86.4113 332.888 87.0726 332.888C88.0966 332.888 88.902 333.149 89.4886 333.672C90.0753 334.195 90.3686 334.936 90.3686 335.896V339.144C90.3686 339.464 90.518 339.624 90.8166 339.624H91.4886V341H90.2566C89.8833 341 89.5793 340.904 89.3446 340.712C89.11 340.52 88.9926 340.259 88.9926 339.928V339.88H88.7526C88.6673 340.04 88.5393 340.227 88.3686 340.44C88.198 340.653 87.9473 340.84 87.6166 341C87.286 341.149 86.8486 341.224 86.3046 341.224ZM86.5446 339.864C87.206 339.864 87.7393 339.677 88.1446 339.304C88.55 338.92 88.7526 338.397 88.7526 337.736V337.576H86.4486C86.0113 337.576 85.6593 337.672 85.3926 337.864C85.126 338.045 84.9926 338.317 84.9926 338.68C84.9926 339.043 85.1313 339.331 85.4086 339.544C85.686 339.757 86.0646 339.864 86.5446 339.864ZM97.651 341.224C96.883 341.224 96.291 341.085 95.875 340.808C95.4697 340.531 95.1657 340.221 94.963 339.88H94.707V341H93.091V329.8H94.739V334.184H94.995C95.123 333.971 95.2937 333.768 95.507 333.576C95.7203 333.373 96.003 333.208 96.355 333.08C96.707 332.952 97.139 332.888 97.651 332.888C98.3123 332.888 98.9203 333.048 99.475 333.368C100.03 333.688 100.472 334.152 100.803 334.76C101.134 335.368 101.299 336.093 101.299 336.936V337.176C101.299 338.029 101.128 338.76 100.787 339.368C100.456 339.965 100.014 340.424 99.459 340.744C98.915 341.064 98.3123 341.224 97.651 341.224ZM97.171 339.784C97.8857 339.784 98.4723 339.555 98.931 339.096C99.4003 338.637 99.635 337.981 99.635 337.128V336.984C99.635 336.141 99.4057 335.491 98.947 335.032C98.4883 334.573 97.8963 334.344 97.171 334.344C96.467 334.344 95.8803 334.573 95.411 335.032C94.9523 335.491 94.723 336.141 94.723 336.984V337.128C94.723 337.981 94.9523 338.637 95.411 339.096C95.8803 339.555 96.467 339.784 97.171 339.784ZM105.789 341.224C105.224 341.224 104.717 341.128 104.269 340.936C103.832 340.744 103.48 340.461 103.213 340.088C102.957 339.715 102.829 339.261 102.829 338.728C102.829 338.184 102.957 337.736 103.213 337.384C103.48 337.021 103.837 336.749 104.285 336.568C104.744 336.387 105.261 336.296 105.837 336.296H108.237V335.784C108.237 335.325 108.098 334.957 107.821 334.68C107.544 334.403 107.117 334.264 106.541 334.264C105.976 334.264 105.544 334.397 105.245 334.664C104.946 334.931 104.749 335.277 104.653 335.704L103.117 335.208C103.245 334.781 103.448 334.397 103.725 334.056C104.013 333.704 104.392 333.421 104.861 333.208C105.33 332.995 105.896 332.888 106.557 332.888C107.581 332.888 108.386 333.149 108.973 333.672C109.56 334.195 109.853 334.936 109.853 335.896V339.144C109.853 339.464 110.002 339.624 110.301 339.624H110.973V341H109.741C109.368 341 109.064 340.904 108.829 340.712C108.594 340.52 108.477 340.259 108.477 339.928V339.88H108.237C108.152 340.04 108.024 340.227 107.853 340.44C107.682 340.653 107.432 340.84 107.101 341C106.77 341.149 106.333 341.224 105.789 341.224ZM106.029 339.864C106.69 339.864 107.224 339.677 107.629 339.304C108.034 338.92 108.237 338.397 108.237 337.736V337.576H105.933C105.496 337.576 105.144 337.672 104.877 337.864C104.61 338.045 104.477 338.317 104.477 338.68C104.477 339.043 104.616 339.331 104.893 339.544C105.17 339.757 105.549 339.864 106.029 339.864ZM115.745 341.224C114.742 341.224 113.91 341 113.249 340.552C112.588 340.104 112.182 339.427 112.033 338.52L113.569 338.152C113.654 338.589 113.798 338.936 114.001 339.192C114.204 339.448 114.454 339.629 114.753 339.736C115.062 339.843 115.393 339.896 115.745 339.896C116.268 339.896 116.668 339.795 116.945 339.592C117.233 339.389 117.377 339.128 117.377 338.808C117.377 338.488 117.244 338.253 116.977 338.104C116.71 337.955 116.316 337.832 115.793 337.736L115.249 337.64C114.716 337.544 114.23 337.405 113.793 337.224C113.356 337.043 113.009 336.792 112.753 336.472C112.497 336.152 112.369 335.741 112.369 335.24C112.369 334.493 112.646 333.917 113.201 333.512C113.756 333.096 114.492 332.888 115.409 332.888C116.294 332.888 117.02 333.091 117.585 333.496C118.161 333.891 118.534 334.429 118.705 335.112L117.169 335.544C117.073 335.064 116.87 334.728 116.561 334.536C116.252 334.333 115.868 334.232 115.409 334.232C114.961 334.232 114.609 334.317 114.353 334.488C114.097 334.648 113.969 334.877 113.969 335.176C113.969 335.496 114.092 335.731 114.337 335.88C114.593 336.029 114.934 336.141 115.361 336.216L115.921 336.312C116.486 336.408 117.004 336.541 117.473 336.712C117.942 336.883 118.31 337.128 118.577 337.448C118.854 337.768 118.993 338.195 118.993 338.728C118.993 339.517 118.7 340.131 118.113 340.568C117.526 341.005 116.737 341.224 115.745 341.224ZM124.535 341.224C123.735 341.224 123.036 341.059 122.439 340.728C121.842 340.387 121.372 339.912 121.031 339.304C120.7 338.685 120.535 337.971 120.535 337.16V336.968C120.535 336.147 120.7 335.432 121.031 334.824C121.362 334.205 121.82 333.731 122.407 333.4C123.004 333.059 123.692 332.888 124.471 332.888C125.228 332.888 125.89 333.059 126.455 333.4C127.031 333.731 127.479 334.195 127.799 334.792C128.119 335.389 128.279 336.088 128.279 336.888V337.512H122.215C122.236 338.205 122.466 338.76 122.903 339.176C123.351 339.581 123.906 339.784 124.567 339.784C125.186 339.784 125.65 339.645 125.959 339.368C126.279 339.091 126.524 338.771 126.695 338.408L128.055 339.112C127.906 339.411 127.687 339.725 127.399 340.056C127.122 340.387 126.754 340.664 126.295 340.888C125.836 341.112 125.25 341.224 124.535 341.224ZM122.231 336.248H126.599C126.556 335.651 126.343 335.187 125.959 334.856C125.575 334.515 125.074 334.344 124.455 334.344C123.836 334.344 123.33 334.515 122.935 334.856C122.551 335.187 122.316 335.651 122.231 336.248Z" fill="#454545"/>
<path d="M29.328 241.224C27.9627 241.224 26.88 240.84 26.08 240.072C25.28 239.293 24.88 238.173 24.88 236.712V234.088C24.88 232.627 25.28 231.512 26.08 230.744C26.88 229.965 27.9627 229.576 29.328 229.576C30.672 229.576 31.7067 229.949 32.432 230.696C33.168 231.443 33.536 232.461 33.536 233.752V233.848H31.824V233.704C31.824 232.947 31.616 232.328 31.2 231.848C30.7947 231.368 30.1707 231.128 29.328 231.128C28.4747 231.128 27.808 231.389 27.328 231.912C26.848 232.424 26.608 233.139 26.608 234.056V236.744C26.608 237.651 26.848 238.365 27.328 238.888C27.808 239.411 28.4747 239.672 29.328 239.672C30.1707 239.672 30.7947 239.432 31.2 238.952C31.616 238.461 31.824 237.843 31.824 237.096V236.824H33.536V237.048C33.536 238.339 33.168 239.357 32.432 240.104C31.7067 240.851 30.672 241.224 29.328 241.224ZM38.5213 241.144C37.9239 241.144 37.3906 241.011 36.9213 240.744C36.4519 240.477 36.0839 240.099 35.8173 239.608C35.5506 239.117 35.4173 238.531 35.4173 237.848V233.112H37.0653V237.736C37.0653 238.419 37.2359 238.925 37.5773 239.256C37.9186 239.576 38.3933 239.736 39.0013 239.736C39.6733 239.736 40.2119 239.512 40.6173 239.064C41.0333 238.605 41.2413 237.949 41.2413 237.096V233.112H42.8893V241H41.2733V239.816H41.0173C40.8679 240.136 40.6013 240.44 40.2173 240.728C39.8333 241.005 39.2679 241.144 38.5213 241.144ZM48.5574 241.224C47.5547 241.224 46.7227 241 46.0614 240.552C45.4 240.104 44.9947 239.427 44.8454 238.52L46.3814 238.152C46.4667 238.589 46.6107 238.936 46.8134 239.192C47.016 239.448 47.2667 239.629 47.5654 239.736C47.8747 239.843 48.2054 239.896 48.5574 239.896C49.08 239.896 49.48 239.795 49.7574 239.592C50.0454 239.389 50.1894 239.128 50.1894 238.808C50.1894 238.488 50.056 238.253 49.7894 238.104C49.5227 237.955 49.128 237.832 48.6054 237.736L48.0614 237.64C47.528 237.544 47.0427 237.405 46.6054 237.224C46.168 237.043 45.8214 236.792 45.5654 236.472C45.3094 236.152 45.1814 235.741 45.1814 235.24C45.1814 234.493 45.4587 233.917 46.0134 233.512C46.568 233.096 47.304 232.888 48.2214 232.888C49.1067 232.888 49.832 233.091 50.3974 233.496C50.9734 233.891 51.3467 234.429 51.5174 235.112L49.9814 235.544C49.8854 235.064 49.6827 234.728 49.3734 234.536C49.064 234.333 48.68 234.232 48.2214 234.232C47.7734 234.232 47.4214 234.317 47.1654 234.488C46.9094 234.648 46.7814 234.877 46.7814 235.176C46.7814 235.496 46.904 235.731 47.1494 235.88C47.4054 236.029 47.7467 236.141 48.1734 236.216L48.7334 236.312C49.2987 236.408 49.816 236.541 50.2854 236.712C50.7547 236.883 51.1227 237.128 51.3894 237.448C51.6667 237.768 51.8054 238.195 51.8054 238.728C51.8054 239.517 51.512 240.131 50.9254 240.568C50.3387 241.005 49.5494 241.224 48.5574 241.224ZM56.5198 241C56.0398 241 55.6558 240.856 55.3678 240.568C55.0904 240.28 54.9518 239.896 54.9518 239.416V234.504H52.7758V233.112H54.9518V230.504H56.5998V233.112H58.9518V234.504H56.5998V239.128C56.5998 239.448 56.7491 239.608 57.0477 239.608H58.6958V241H56.5198ZM64.3026 241.224C63.5133 241.224 62.8093 241.064 62.1906 240.744C61.5826 240.413 61.1026 239.944 60.7506 239.336C60.3986 238.728 60.2226 238.008 60.2226 237.176V236.936C60.2226 236.104 60.3986 235.389 60.7506 234.792C61.1026 234.184 61.5826 233.715 62.1906 233.384C62.8093 233.053 63.5133 232.888 64.3026 232.888C65.092 232.888 65.796 233.053 66.4146 233.384C67.0333 233.715 67.5186 234.184 67.8706 234.792C68.2226 235.389 68.3986 236.104 68.3986 236.936V237.176C68.3986 238.008 68.2226 238.728 67.8706 239.336C67.5186 239.944 67.0333 240.413 66.4146 240.744C65.796 241.064 65.092 241.224 64.3026 241.224ZM64.3026 239.752C65.028 239.752 65.6146 239.523 66.0626 239.064C66.5213 238.595 66.7506 237.949 66.7506 237.128V236.984C66.7506 236.163 66.5266 235.523 66.0786 235.064C65.6306 234.595 65.0386 234.36 64.3026 234.36C63.588 234.36 63.0013 234.595 62.5426 235.064C62.0946 235.523 61.8706 236.163 61.8706 236.984V237.128C61.8706 237.949 62.0946 238.595 62.5426 239.064C63.0013 239.523 63.588 239.752 64.3026 239.752ZM70.4504 241V233.112H72.0664V234.04H72.3224C72.4717 233.763 72.7117 233.517 73.0424 233.304C73.373 233.091 73.821 232.984 74.3864 232.984C74.973 232.984 75.4424 233.107 75.7944 233.352C76.157 233.587 76.429 233.891 76.6104 234.264H76.8664C77.0477 233.901 77.309 233.597 77.6504 233.352C78.0024 233.107 78.4984 232.984 79.1384 232.984C79.6504 232.984 80.1037 233.091 80.4984 233.304C80.893 233.507 81.2077 233.816 81.4424 234.232C81.677 234.637 81.7944 235.144 81.7944 235.752V241H80.1464V235.88C80.1464 235.4 80.013 235.032 79.7464 234.776C79.4904 234.509 79.1224 234.376 78.6424 234.376C78.1304 234.376 77.7197 234.541 77.4104 234.872C77.101 235.203 76.9464 235.677 76.9464 236.296V241H75.2984V235.88C75.2984 235.4 75.165 235.032 74.8984 234.776C74.6424 234.509 74.2744 234.376 73.7944 234.376C73.2824 234.376 72.8717 234.541 72.5624 234.872C72.253 235.203 72.0984 235.677 72.0984 236.296V241H70.4504ZM84.1691 241V233.112H85.8171V241H84.1691ZM85.0011 232.04C84.6811 232.04 84.4091 231.939 84.1851 231.736C83.9718 231.523 83.8651 231.251 83.8651 230.92C83.8651 230.589 83.9718 230.323 84.1851 230.12C84.4091 229.907 84.6811 229.8 85.0011 229.8C85.3318 229.8 85.6038 229.907 85.8171 230.12C86.0305 230.323 86.1371 230.589 86.1371 230.92C86.1371 231.251 86.0305 231.523 85.8171 231.736C85.6038 231.939 85.3318 232.04 85.0011 232.04ZM87.9429 241V238.984L92.5989 234.728V234.504H88.1029V233.112H94.3909V235.144L89.7189 239.4V239.608H94.5189V241H87.9429ZM98.9921 241.224C98.4268 241.224 97.9201 241.128 97.4721 240.936C97.0348 240.744 96.6828 240.461 96.4161 240.088C96.1601 239.715 96.0321 239.261 96.0321 238.728C96.0321 238.184 96.1601 237.736 96.4161 237.384C96.6828 237.021 97.0401 236.749 97.4881 236.568C97.9468 236.387 98.4641 236.296 99.0401 236.296H101.44V235.784C101.44 235.325 101.301 234.957 101.024 234.68C100.747 234.403 100.32 234.264 99.7441 234.264C99.1788 234.264 98.7468 234.397 98.4481 234.664C98.1495 234.931 97.9521 235.277 97.8561 235.704L96.3201 235.208C96.4481 234.781 96.6508 234.397 96.9281 234.056C97.2161 233.704 97.5948 233.421 98.0641 233.208C98.5335 232.995 99.0988 232.888 99.7601 232.888C100.784 232.888 101.589 233.149 102.176 233.672C102.763 234.195 103.056 234.936 103.056 235.896V239.144C103.056 239.464 103.205 239.624 103.504 239.624H104.176V241H102.944C102.571 241 102.267 240.904 102.032 240.712C101.797 240.52 101.68 240.259 101.68 239.928V239.88H101.44C101.355 240.04 101.227 240.227 101.056 240.44C100.885 240.653 100.635 240.84 100.304 241C99.9735 241.149 99.5361 241.224 98.9921 241.224ZM99.2321 239.864C99.8935 239.864 100.427 239.677 100.832 239.304C101.237 238.92 101.44 238.397 101.44 237.736V237.576H99.1361C98.6988 237.576 98.3468 237.672 98.0801 237.864C97.8135 238.045 97.6801 238.317 97.6801 238.68C97.6801 239.043 97.8188 239.331 98.0961 239.544C98.3735 239.757 98.7521 239.864 99.2321 239.864ZM110.339 241.224C109.571 241.224 108.979 241.085 108.562 240.808C108.157 240.531 107.853 240.221 107.651 239.88H107.395V241H105.779V229.8H107.427V234.184H107.683C107.811 233.971 107.981 233.768 108.195 233.576C108.408 233.373 108.691 233.208 109.043 233.08C109.395 232.952 109.827 232.888 110.339 232.888C111 232.888 111.608 233.048 112.163 233.368C112.717 233.688 113.16 234.152 113.491 234.76C113.821 235.368 113.987 236.093 113.987 236.936V237.176C113.987 238.029 113.816 238.76 113.475 239.368C113.144 239.965 112.701 240.424 112.147 240.744C111.603 241.064 111 241.224 110.339 241.224ZM109.859 239.784C110.573 239.784 111.16 239.555 111.619 239.096C112.088 238.637 112.323 237.981 112.323 237.128V236.984C112.323 236.141 112.093 235.491 111.635 235.032C111.176 234.573 110.584 234.344 109.859 234.344C109.155 234.344 108.568 234.573 108.099 235.032C107.64 235.491 107.411 236.141 107.411 236.984V237.128C107.411 237.981 107.64 238.637 108.099 239.096C108.568 239.555 109.155 239.784 109.859 239.784ZM116.029 241V229.8H117.677V241H116.029ZM123.738 241.224C122.938 241.224 122.24 241.059 121.642 240.728C121.045 240.387 120.576 239.912 120.234 239.304C119.904 238.685 119.738 237.971 119.738 237.16V236.968C119.738 236.147 119.904 235.432 120.234 234.824C120.565 234.205 121.024 233.731 121.61 233.4C122.208 233.059 122.896 232.888 123.674 232.888C124.432 232.888 125.093 233.059 125.658 233.4C126.234 233.731 126.682 234.195 127.002 234.792C127.322 235.389 127.482 236.088 127.482 236.888V237.512H121.418C121.44 238.205 121.669 238.76 122.106 239.176C122.554 239.581 123.109 239.784 123.77 239.784C124.389 239.784 124.853 239.645 125.162 239.368C125.482 239.091 125.728 238.771 125.898 238.408L127.258 239.112C127.109 239.411 126.89 239.725 126.602 240.056C126.325 240.387 125.957 240.664 125.498 240.888C125.04 241.112 124.453 241.224 123.738 241.224ZM121.434 236.248H125.802C125.76 235.651 125.546 235.187 125.162 234.856C124.778 234.515 124.277 234.344 123.658 234.344C123.04 234.344 122.533 234.515 122.138 234.856C121.754 235.187 121.52 235.651 121.434 236.248Z" fill="#454545"/>
<path d="M242 515.664L230.8 512.464V509.424L242 506.24V508.016L239.36 508.752V513.136L242 513.872V515.664ZM237.76 512.704V509.184L231.872 510.816V511.072L237.76 512.704ZM242 504.675H230.8V503.027H242V504.675ZM238.096 500.965H237.856C237.024 500.965 236.315 500.8 235.728 500.469C235.141 500.128 234.688 499.68 234.368 499.125C234.048 498.57 233.888 497.962 233.888 497.301C233.888 496.533 234.032 495.946 234.32 495.541C234.608 495.125 234.917 494.821 235.248 494.629V494.373H234.112V492.773H243.616C244.096 492.773 244.48 492.917 244.768 493.205C245.056 493.482 245.2 493.866 245.2 494.357V499.669H243.76V494.869C243.76 494.56 243.6 494.405 243.28 494.405H240.768V494.661C240.96 494.778 241.157 494.944 241.36 495.157C241.563 495.37 241.728 495.653 241.856 496.005C241.984 496.346 242.048 496.778 242.048 497.301C242.048 497.962 241.893 498.576 241.584 499.141C241.264 499.696 240.811 500.138 240.224 500.469C239.627 500.8 238.917 500.965 238.096 500.965ZM240.608 496.853C240.608 496.138 240.384 495.552 239.936 495.093C239.477 494.624 238.848 494.389 238.048 494.389H237.904C237.083 494.389 236.453 494.618 236.016 495.077C235.568 495.536 235.344 496.128 235.344 496.853C235.344 497.557 235.568 498.144 236.016 498.613C236.453 499.072 237.083 499.301 237.904 499.301H238.048C238.848 499.301 239.477 499.072 239.936 498.613C240.384 498.144 240.608 497.557 240.608 496.853ZM242.224 486.65C242.224 487.44 242.064 488.144 241.744 488.762C241.413 489.37 240.944 489.85 240.336 490.202C239.728 490.554 239.008 490.73 238.176 490.73H237.936C237.104 490.73 236.389 490.554 235.792 490.202C235.184 489.85 234.715 489.37 234.384 488.762C234.053 488.144 233.888 487.44 233.888 486.65C233.888 485.861 234.053 485.157 234.384 484.538C234.715 483.92 235.184 483.434 235.792 483.082C236.389 482.73 237.104 482.554 237.936 482.554H238.176C239.008 482.554 239.728 482.73 240.336 483.082C240.944 483.434 241.413 483.92 241.744 484.538C242.064 485.157 242.224 485.861 242.224 486.65ZM240.752 486.65C240.752 485.925 240.523 485.338 240.064 484.89C239.595 484.432 238.949 484.202 238.128 484.202H237.984C237.163 484.202 236.523 484.426 236.064 484.874C235.595 485.322 235.36 485.914 235.36 486.65C235.36 487.365 235.595 487.952 236.064 488.41C236.523 488.858 237.163 489.082 237.984 489.082H238.128C238.949 489.082 239.595 488.858 240.064 488.41C240.523 487.952 240.752 487.365 240.752 486.65ZM242 480.503H234.112V478.887H235.04V478.631C234.709 478.503 234.469 478.3 234.32 478.023C234.16 477.735 234.08 477.383 234.08 476.967V476.023H235.568V477.031C235.568 477.564 235.717 478.001 236.016 478.343C236.304 478.684 236.752 478.855 237.36 478.855H242V480.503ZM242 474.315H234.112V472.667H242V474.315ZM233.04 473.483C233.04 473.803 232.939 474.075 232.736 474.299C232.523 474.513 232.251 474.619 231.92 474.619C231.589 474.619 231.323 474.513 231.12 474.299C230.907 474.075 230.8 473.803 230.8 473.483C230.8 473.153 230.907 472.881 231.12 472.667C231.323 472.454 231.589 472.347 231.92 472.347C232.251 472.347 232.523 472.454 232.736 472.667C232.939 472.881 233.04 473.153 233.04 473.483ZM242 467.261C242 467.741 241.856 468.125 241.568 468.413C241.28 468.691 240.896 468.829 240.416 468.829H235.504V471.005H234.112V468.829H231.504V467.181H234.112V464.829H235.504V467.181H240.128C240.448 467.181 240.608 467.032 240.608 466.734V465.085H242V467.261ZM242 462.893H230.8V461.245H235.232V460.989C235.029 460.883 234.832 460.733 234.64 460.541C234.448 460.339 234.293 460.077 234.176 459.757C234.048 459.427 233.984 459.011 233.984 458.509C233.984 457.912 234.117 457.384 234.384 456.925C234.651 456.456 235.029 456.088 235.52 455.821C236 455.555 236.581 455.421 237.264 455.421H242V457.069H237.392C236.709 457.069 236.208 457.24 235.888 457.581C235.557 457.923 235.392 458.392 235.392 458.989C235.392 459.672 235.616 460.221 236.064 460.637C236.512 461.043 237.163 461.245 238.016 461.245H242V462.893ZM242 453.05H234.112V451.434H235.04V451.178C234.763 451.028 234.517 450.788 234.304 450.458C234.091 450.127 233.984 449.679 233.984 449.114C233.984 448.527 234.107 448.058 234.352 447.706C234.587 447.343 234.891 447.071 235.264 446.89V446.634C234.901 446.452 234.597 446.191 234.352 445.85C234.107 445.498 233.984 445.002 233.984 444.362C233.984 443.85 234.091 443.396 234.304 443.002C234.507 442.607 234.816 442.292 235.232 442.058C235.637 441.823 236.144 441.706 236.752 441.706H242V443.354H236.88C236.4 443.354 236.032 443.487 235.776 443.754C235.509 444.01 235.376 444.378 235.376 444.858C235.376 445.37 235.541 445.78 235.872 446.09C236.203 446.399 236.677 446.554 237.296 446.554H242V448.202H236.88C236.4 448.202 236.032 448.335 235.776 448.602C235.509 448.858 235.376 449.226 235.376 449.706C235.376 450.218 235.541 450.628 235.872 450.938C236.203 451.247 236.677 451.402 237.296 451.402H242V453.05Z" fill="#454545"/>
<path d="M241 126.544L229.8 129.664V127.872L239.912 125.152V124.944L229.8 122.24V120.448L241 123.552V126.544ZM241.224 115.793C241.224 116.593 241.059 117.292 240.728 117.889C240.387 118.486 239.912 118.956 239.304 119.297C238.685 119.628 237.971 119.793 237.16 119.793H236.968C236.147 119.793 235.432 119.628 234.824 119.297C234.205 118.966 233.731 118.508 233.4 117.921C233.059 117.324 232.888 116.636 232.888 115.857C232.888 115.1 233.059 114.438 233.4 113.873C233.731 113.297 234.195 112.849 234.792 112.529C235.389 112.209 236.088 112.049 236.888 112.049H237.512V118.113C238.205 118.092 238.76 117.862 239.176 117.425C239.581 116.977 239.784 116.422 239.784 115.761C239.784 115.142 239.645 114.678 239.368 114.369C239.091 114.049 238.771 113.804 238.408 113.633L239.112 112.273C239.411 112.422 239.725 112.641 240.056 112.929C240.387 113.206 240.664 113.574 240.888 114.033C241.112 114.492 241.224 115.078 241.224 115.793ZM236.248 118.097V113.729C235.651 113.772 235.187 113.985 234.856 114.369C234.515 114.753 234.344 115.254 234.344 115.873C234.344 116.492 234.515 116.998 234.856 117.393C235.187 117.777 235.651 118.012 236.248 118.097ZM241 110.065H233.112V108.449H234.04V108.193C233.709 108.065 233.469 107.863 233.32 107.585C233.16 107.297 233.08 106.945 233.08 106.529V105.585H234.568V106.593C234.568 107.127 234.717 107.564 235.016 107.905C235.304 108.247 235.752 108.417 236.36 108.417H241V110.065ZM241.224 100.818C241.224 101.82 241 102.652 240.552 103.314C240.104 103.975 239.427 104.38 238.52 104.53L238.152 102.994C238.589 102.908 238.936 102.764 239.192 102.562C239.448 102.359 239.629 102.108 239.736 101.81C239.843 101.5 239.896 101.17 239.896 100.818C239.896 100.295 239.795 99.895 239.592 99.6176C239.389 99.3296 239.128 99.1856 238.808 99.1856C238.488 99.1856 238.253 99.319 238.104 99.5856C237.955 99.8523 237.832 100.247 237.736 100.77L237.64 101.314C237.544 101.847 237.405 102.332 237.224 102.77C237.043 103.207 236.792 103.554 236.472 103.81C236.152 104.066 235.741 104.194 235.24 104.194C234.493 104.194 233.917 103.916 233.512 103.362C233.096 102.807 232.888 102.071 232.888 101.154C232.888 100.268 233.091 99.543 233.496 98.9776C233.891 98.4016 234.429 98.0283 235.112 97.8576L235.544 99.3936C235.064 99.4896 234.728 99.6923 234.536 100.002C234.333 100.311 234.232 100.695 234.232 101.154C234.232 101.602 234.317 101.954 234.488 102.21C234.648 102.466 234.877 102.594 235.176 102.594C235.496 102.594 235.731 102.471 235.88 102.226C236.029 101.97 236.141 101.628 236.216 101.202L236.312 100.642C236.408 100.076 236.541 99.559 236.712 99.0896C236.883 98.6203 237.128 98.2523 237.448 97.9856C237.768 97.7083 238.195 97.5696 238.728 97.5696C239.517 97.5696 240.131 97.863 240.568 98.4496C241.005 99.0363 241.224 99.8256 241.224 100.818ZM241 95.6434H233.112V93.9954H241V95.6434ZM232.04 94.8114C232.04 95.1314 231.939 95.4034 231.736 95.6274C231.523 95.8407 231.251 95.9474 230.92 95.9474C230.589 95.9474 230.323 95.8407 230.12 95.6274C229.907 95.4034 229.8 95.1314 229.8 94.8114C229.8 94.4807 229.907 94.2087 230.12 93.9954C230.323 93.782 230.589 93.6754 230.92 93.6754C231.251 93.6754 231.523 93.782 231.736 93.9954C231.939 94.2087 232.04 94.4807 232.04 94.8114ZM241.224 87.8536C241.224 88.643 241.064 89.347 240.744 89.9656C240.413 90.5736 239.944 91.0536 239.336 91.4056C238.728 91.7576 238.008 91.9336 237.176 91.9336H236.936C236.104 91.9336 235.389 91.7576 234.792 91.4056C234.184 91.0536 233.715 90.5736 233.384 89.9656C233.053 89.347 232.888 88.643 232.888 87.8536C232.888 87.0643 233.053 86.3603 233.384 85.7416C233.715 85.123 234.184 84.6376 234.792 84.2856C235.389 83.9336 236.104 83.7576 236.936 83.7576H237.176C238.008 83.7576 238.728 83.9336 239.336 84.2856C239.944 84.6376 240.413 85.123 240.744 85.7416C241.064 86.3603 241.224 87.0643 241.224 87.8536ZM239.752 87.8536C239.752 87.1283 239.523 86.5416 239.064 86.0936C238.595 85.635 237.949 85.4056 237.128 85.4056H236.984C236.163 85.4056 235.523 85.6296 235.064 86.0776C234.595 86.5256 234.36 87.1176 234.36 87.8536C234.36 88.5683 234.595 89.155 235.064 89.6136C235.523 90.0616 236.163 90.2856 236.984 90.2856H237.128C237.949 90.2856 238.595 90.0616 239.064 89.6136C239.523 89.155 239.752 88.5683 239.752 87.8536ZM241 81.7059H233.112V80.0899H234.296V79.8339C233.976 79.6845 233.677 79.4179 233.4 79.0339C233.123 78.6499 232.984 78.0792 232.984 77.3219C232.984 76.7245 233.117 76.1965 233.384 75.7379C233.651 75.2685 234.029 74.9005 234.52 74.6339C235 74.3672 235.581 74.2339 236.264 74.2339H241V75.8819H236.392C235.709 75.8819 235.208 76.0525 234.888 76.3939C234.557 76.7352 234.392 77.2045 234.392 77.8019C234.392 78.4845 234.616 79.0339 235.064 79.4499C235.512 79.8552 236.163 80.0579 237.016 80.0579H241V81.7059ZM241.224 63.672C241.224 65.0373 240.84 66.12 240.072 66.92C239.293 67.72 238.173 68.12 236.712 68.12H234.088C232.627 68.12 231.512 67.72 230.744 66.92C229.965 66.12 229.576 65.0373 229.576 63.672C229.576 62.328 229.949 61.2933 230.696 60.568C231.443 59.832 232.461 59.464 233.752 59.464H233.848V61.176H233.704C232.947 61.176 232.328 61.384 231.848 61.8C231.368 62.2053 231.128 62.8293 231.128 63.672C231.128 64.5253 231.389 65.192 231.912 65.672C232.424 66.152 233.139 66.392 234.056 66.392H236.744C237.651 66.392 238.365 66.152 238.888 65.672C239.411 65.192 239.672 64.5253 239.672 63.672C239.672 62.8293 239.432 62.2053 238.952 61.8C238.461 61.384 237.843 61.176 237.096 61.176H236.824V59.464H237.048C238.339 59.464 239.357 59.832 240.104 60.568C240.851 61.2933 241.224 62.328 241.224 63.672ZM241.224 53.8067C241.224 54.5961 241.064 55.3001 240.744 55.9187C240.413 56.5267 239.944 57.0067 239.336 57.3587C238.728 57.7107 238.008 57.8867 237.176 57.8867H236.936C236.104 57.8867 235.389 57.7107 234.792 57.3587C234.184 57.0067 233.715 56.5267 233.384 55.9187C233.053 55.3001 232.888 54.5961 232.888 53.8067C232.888 53.0174 233.053 52.3134 233.384 51.6947C233.715 51.0761 234.184 50.5907 234.792 50.2387C235.389 49.8867 236.104 49.7107 236.936 49.7107H237.176C238.008 49.7107 238.728 49.8867 239.336 50.2387C239.944 50.5907 240.413 51.0761 240.744 51.6947C241.064 52.3134 241.224 53.0174 241.224 53.8067ZM239.752 53.8067C239.752 53.0814 239.523 52.4947 239.064 52.0467C238.595 51.5881 237.949 51.3587 237.128 51.3587H236.984C236.163 51.3587 235.523 51.5827 235.064 52.0307C234.595 52.4787 234.36 53.0707 234.36 53.8067C234.36 54.5214 234.595 55.1081 235.064 55.5667C235.523 56.0147 236.163 56.2387 236.984 56.2387H237.128C237.949 56.2387 238.595 56.0147 239.064 55.5667C239.523 55.1081 239.752 54.5214 239.752 53.8067ZM241 47.659H233.112V46.043H234.296V45.787C233.976 45.6377 233.677 45.371 233.4 44.987C233.123 44.603 232.984 44.0323 232.984 43.275C232.984 42.6777 233.117 42.1497 233.384 41.691C233.651 41.2217 234.029 40.8537 234.52 40.587C235 40.3203 235.581 40.187 236.264 40.187H241V41.835H236.392C235.709 41.835 235.208 42.0057 234.888 42.347C234.557 42.6883 234.392 43.1577 234.392 43.755C234.392 44.4377 234.616 44.987 235.064 45.403C235.512 45.8083 236.163 46.011 237.016 46.011H241V47.659ZM241 35.074C241 35.554 240.856 35.938 240.568 36.226C240.28 36.5033 239.896 36.642 239.416 36.642H234.504V38.818H233.112V36.642H230.504V34.994H233.112V32.642H234.504V34.994H239.128C239.448 34.994 239.608 34.8447 239.608 34.546V32.898H241V35.074ZM241 30.7059H233.112V29.0899H234.04V28.8339C233.709 28.7059 233.469 28.5032 233.32 28.2259C233.16 27.9379 233.08 27.5859 233.08 27.1699V26.2259H234.568V27.2339C234.568 27.7672 234.717 28.2045 235.016 28.5459C235.304 28.8872 235.752 29.0579 236.36 29.0579H241V30.7059ZM241.224 21.1036C241.224 21.893 241.064 22.597 240.744 23.2156C240.413 23.8236 239.944 24.3036 239.336 24.6556C238.728 25.0076 238.008 25.1836 237.176 25.1836H236.936C236.104 25.1836 235.389 25.0076 234.792 24.6556C234.184 24.3036 233.715 23.8236 233.384 23.2156C233.053 22.597 232.888 21.893 232.888 21.1036C232.888 20.3143 233.053 19.6103 233.384 18.9916C233.715 18.373 234.184 17.8876 234.792 17.5356C235.389 17.1836 236.104 17.0076 236.936 17.0076H237.176C238.008 17.0076 238.728 17.1836 239.336 17.5356C239.944 17.8876 240.413 18.373 240.744 18.9916C241.064 19.6103 241.224 20.3143 241.224 21.1036ZM239.752 21.1036C239.752 20.3783 239.523 19.7916 239.064 19.3436C238.595 18.885 237.949 18.6556 237.128 18.6556H236.984C236.163 18.6556 235.523 18.8796 235.064 19.3276C234.595 19.7756 234.36 20.3676 234.36 21.1036C234.36 21.8183 234.595 22.405 235.064 22.8636C235.523 23.3116 236.163 23.5356 236.984 23.5356H237.128C237.949 23.5356 238.595 23.3116 239.064 22.8636C239.523 22.405 239.752 21.8183 239.752 21.1036ZM241 14.9559H229.8V13.3079H241V14.9559Z" fill="#454545"/>
<g filter="url(#filter0_d_371_168)">
<circle cx="285" cy="285" r="75" fill="white"/>
</g>
<g clip-path="url(#clip0_371_168)">
<mask id="mask0_371_168" style="mask-type:luminance" maskUnits="userSpaceOnUse" x="240" y="240" width="90" height="90">
<path d="M330 240H240V330H330V240Z" fill="white"/>
</mask>
<g mask="url(#mask0_371_168)">
<path fill-rule="evenodd" clip-rule="evenodd" d="M244.725 281.737C244.725 283.722 248.718 285.32 256.705 288.515L268 293.033C275.987 296.227 279.981 297.825 284.943 297.825C289.906 297.825 293.899 296.227 301.886 293.033L313.182 288.515C321.169 285.32 325.162 283.722 325.162 281.737C325.162 279.752 321.169 278.155 313.182 274.96L301.886 270.442C293.899 267.247 289.906 265.65 284.943 265.65C279.981 265.65 275.987 267.247 268 270.442L256.705 274.96C248.718 278.155 244.725 279.752 244.725 281.737Z" fill="#243145"/>
<path d="M313.182 302.824L301.886 307.343C293.899 310.537 289.906 312.135 284.943 312.135C279.981 312.135 275.987 310.537 268 307.343L256.705 302.824C248.718 299.629 244.725 298.032 244.725 296.047C244.725 294.258 247.97 292.783 254.459 290.17L267.092 295.223C274.527 298.199 279.2 300.069 284.943 300.069C290.687 300.069 295.36 298.199 302.795 295.223L315.428 290.17C321.917 292.783 325.162 294.258 325.162 296.047C325.162 298.032 321.169 299.629 313.182 302.824Z" fill="#243145"/>
<path d="M313.182 317.823L301.886 322.342C293.899 325.536 289.906 327.134 284.943 327.134C279.981 327.134 275.987 325.536 268 322.342L256.705 317.823C248.718 314.628 244.725 313.031 244.725 311.046C244.725 309.257 247.97 307.782 254.459 305.169L267.092 310.222C274.527 313.198 279.2 315.068 284.943 315.068C290.687 315.068 295.36 313.198 302.795 310.222L315.428 305.169C321.917 307.782 325.162 309.257 325.162 311.046C325.162 313.031 321.169 314.628 313.182 317.823Z" fill="#243145"/>
<path d="M278.348 284.841C278.935 285.015 279.552 284.688 279.739 284.106C280.457 281.87 282.562 280.249 285.048 280.249C287.535 280.249 289.64 281.87 290.358 284.106C290.544 284.688 291.162 285.015 291.749 284.841C295.679 283.675 299.176 281.512 301.944 278.646C302.346 278.231 302.367 277.578 301.993 277.137C301.175 276.172 300.684 274.927 300.684 273.565C300.684 270.506 303.174 268.019 306.256 268.019C306.443 268.019 306.627 268.028 306.809 268.046C307.382 268.102 307.905 267.716 308.021 267.152C308.333 265.631 308.497 264.057 308.497 262.446C308.497 260.005 308.121 257.65 307.423 255.436C307.273 254.962 306.831 254.642 306.334 254.649C306.32 254.649 306.307 254.65 306.293 254.65C306.281 254.65 306.268 254.65 306.256 254.65C303.174 254.65 300.684 252.163 300.684 249.103C300.684 248.223 300.889 247.393 301.254 246.656C301.475 246.209 301.376 245.67 301.01 245.332C298.299 242.821 294.989 240.941 291.317 239.928C290.802 239.786 290.259 240.025 290.016 240.5C289.094 242.3 287.216 243.531 285.048 243.531C282.881 243.531 281.002 242.3 280.08 240.5C279.837 240.025 279.294 239.786 278.78 239.928C275.107 240.941 271.798 242.821 269.087 245.332C268.721 245.67 268.622 246.209 268.843 246.656C269.208 247.393 269.413 248.223 269.413 249.103C269.413 252.163 266.922 254.65 263.841 254.65C263.815 254.65 263.789 254.65 263.763 254.649C263.266 254.642 262.823 254.962 262.674 255.436C261.976 257.65 261.6 260.005 261.6 262.446C261.6 264.057 261.763 265.631 262.076 267.152C262.192 267.716 262.714 268.102 263.287 268.046C263.469 268.028 263.654 268.019 263.841 268.019C266.922 268.019 269.413 270.506 269.413 273.565C269.413 274.927 268.921 276.172 268.103 277.137C267.73 277.578 267.751 278.231 268.153 278.646C270.921 281.512 274.418 283.675 278.348 284.841Z" fill="#243145" stroke="white" stroke-width="3" stroke-linejoin="round"/>
<path d="M291.362 262.446C291.362 265.911 288.541 268.729 285.049 268.729C281.556 268.729 278.735 265.911 278.735 262.446C278.735 258.981 281.556 256.163 285.049 256.163C288.541 256.163 291.362 258.981 291.362 262.446Z" fill="#243145" stroke="white" stroke-width="3" stroke-linejoin="round"/>
</g>
</g>
<defs>
<filter id="filter0_d_371_168" x="150" y="157" width="270" height="270" filterUnits="userSpaceOnUse" color-interpolation-filters="sRGB">
<feFlood flood-opacity="0" result="BackgroundImageFix"/>
<feColorMatrix in="SourceAlpha" type="matrix" values="0 0 0 0 0 0 0 0 0 0 0 0 0 0 0 0 0 0 127 0" result="hardAlpha"/>
<feMorphology radius="10" operator="dilate" in="SourceAlpha" result="effect1_dropShadow_371_168"/>
<feOffset dy="7"/>
<feGaussianBlur stdDeviation="25"/>
<feComposite in2="hardAlpha" operator="out"/>
<feColorMatrix type="matrix" values="0 0 0 0 0.545 0 0 0 0 0.545 0 0 0 0 0.545 0 0 0 0.2 0"/>
<feBlend mode="normal" in2="BackgroundImageFix" result="effect1_dropShadow_371_168"/>
<feBlend mode="normal" in="SourceGraphic" in2="effect1_dropShadow_371_168" result="shape"/>
</filter>
<clipPath id="clip0_371_168">
<rect width="90" height="90" fill="white" transform="translate(240 240)"/>
</clipPath>
</defs>
</svg>
