<svg width="570" height="570" viewBox="0 0 570 570" fill="none" xmlns="http://www.w3.org/2000/svg">
<line x1="334.5" y1="435" x2="334.5" y2="334" stroke="#454545"/>
<line x1="334.5" y1="236" x2="334.5" y2="135" stroke="#454545"/>
<path d="M235 235L235 135" stroke="#454545"/>
<line x1="235.5" y1="435" x2="235.5" y2="335" stroke="#454545"/>
<line x1="135" y1="334.5" x2="236" y2="334.5" stroke="#454545"/>
<line x1="334" y1="334.5" x2="435" y2="334.5" stroke="#454545"/>
<line x1="334" y1="235.5" x2="435" y2="235.5" stroke="#454545"/>
<line x1="134" y1="234.5" x2="235" y2="234.5" stroke="#454545"/>
<line x1="91.3536" y1="90.6464" x2="480.262" y2="479.555" stroke="#454545"/>
<circle cx="88" cy="87" r="4.5" stroke="#454545"/>
<circle cx="483" cy="483" r="4.5" stroke="#454545"/>
<line x1="10" y1="284.5" x2="560" y2="284.5" stroke="#454545"/>
<circle cx="565" cy="284" r="4.5" stroke="#454545"/>
<circle cx="5" cy="285" r="4.5" stroke="#454545"/>
<line x1="285.5" y1="10" x2="285.5" y2="560" stroke="#454545"/>
<circle cx="286" cy="565" r="4.5" stroke="#454545"/>
<circle cx="285" cy="5" r="4.5" stroke="#454545"/>
<line x1="90.6464" y1="479.555" x2="479.555" y2="90.6464" stroke="#454545"/>
<circle cx="483" cy="87" r="4.5" stroke="#454545"/>
<circle cx="88" cy="483" r="4.5" stroke="#454545"/>
<path d="M341.224 124.64C341.224 125.525 341.064 126.288 340.744 126.928C340.424 127.557 339.965 128.048 339.368 128.4C338.76 128.741 338.024 128.912 337.16 128.912H329.8V127.168H337.208C337.997 127.168 338.605 126.949 339.032 126.512C339.459 126.075 339.672 125.451 339.672 124.64C339.672 123.829 339.459 123.205 339.032 122.768C338.605 122.331 337.997 122.112 337.208 122.112H329.8V120.384H337.16C338.024 120.384 338.76 120.555 339.368 120.896C339.965 121.237 340.424 121.728 340.744 122.368C341.064 123.008 341.224 123.765 341.224 124.64ZM341.224 114.849C341.224 115.852 341 116.684 340.552 117.345C340.104 118.006 339.427 118.412 338.52 118.561L338.152 117.025C338.589 116.94 338.936 116.796 339.192 116.593C339.448 116.39 339.629 116.14 339.736 115.841C339.843 115.532 339.896 115.201 339.896 114.849C339.896 114.326 339.795 113.926 339.592 113.649C339.389 113.361 339.128 113.217 338.808 113.217C338.488 113.217 338.253 113.35 338.104 113.617C337.955 113.884 337.832 114.278 337.736 114.801L337.64 115.345C337.544 115.878 337.405 116.364 337.224 116.801C337.043 117.238 336.792 117.585 336.472 117.841C336.152 118.097 335.741 118.225 335.24 118.225C334.493 118.225 333.917 117.948 333.512 117.393C333.096 116.838 332.888 116.102 332.888 115.185C332.888 114.3 333.091 113.574 333.496 113.009C333.891 112.433 334.429 112.06 335.112 111.889L335.544 113.425C335.064 113.521 334.728 113.724 334.536 114.033C334.333 114.342 334.232 114.726 334.232 115.185C334.232 115.633 334.317 115.985 334.488 116.241C334.648 116.497 334.877 116.625 335.176 116.625C335.496 116.625 335.731 116.502 335.88 116.257C336.029 116.001 336.141 115.66 336.216 115.233L336.312 114.673C336.408 114.108 336.541 113.59 336.712 113.121C336.883 112.652 337.128 112.284 337.448 112.017C337.768 111.74 338.195 111.601 338.728 111.601C339.517 111.601 340.131 111.894 340.568 112.481C341.005 113.068 341.224 113.857 341.224 114.849ZM341.224 106.059C341.224 106.859 341.059 107.557 340.728 108.155C340.387 108.752 339.912 109.221 339.304 109.563C338.685 109.893 337.971 110.059 337.16 110.059H336.968C336.147 110.059 335.432 109.893 334.824 109.563C334.205 109.232 333.731 108.773 333.4 108.187C333.059 107.589 332.888 106.901 332.888 106.123C332.888 105.365 333.059 104.704 333.4 104.139C333.731 103.563 334.195 103.115 334.792 102.795C335.389 102.475 336.088 102.315 336.888 102.315H337.512V108.379C338.205 108.357 338.76 108.128 339.176 107.691C339.581 107.243 339.784 106.688 339.784 106.027C339.784 105.408 339.645 104.944 339.368 104.635C339.091 104.315 338.771 104.069 338.408 103.899L339.112 102.539C339.411 102.688 339.725 102.907 340.056 103.195C340.387 103.472 340.664 103.84 340.888 104.299C341.112 104.757 341.224 105.344 341.224 106.059ZM336.248 108.363V103.995C335.651 104.037 335.187 104.251 334.856 104.635C334.515 105.019 334.344 105.52 334.344 106.139C334.344 106.757 334.515 107.264 334.856 107.659C335.187 108.043 335.651 108.277 336.248 108.363ZM341 100.331H333.112V98.7149H334.04V98.4589C333.709 98.3309 333.469 98.1282 333.32 97.8509C333.16 97.5629 333.08 97.2109 333.08 96.7949V95.8509H334.568V96.8589C334.568 97.3922 334.717 97.8295 335.016 98.1709C335.304 98.5122 335.752 98.6829 336.36 98.6829H341V100.331ZM341 90.1132H329.8V88.3852H341V90.1132ZM341 86.0027H333.112V84.3867H334.296V84.1307C333.976 83.9814 333.677 83.7147 333.4 83.3307C333.123 82.9467 332.984 82.3761 332.984 81.6187C332.984 81.0214 333.117 80.4934 333.384 80.0347C333.651 79.5654 334.029 79.1974 334.52 78.9307C335 78.6641 335.581 78.5307 336.264 78.5307H341V80.1787H336.392C335.709 80.1787 335.208 80.3494 334.888 80.6907C334.557 81.0321 334.392 81.5014 334.392 82.0987C334.392 82.7814 334.616 83.3307 335.064 83.7467C335.512 84.1521 336.163 84.3547 337.016 84.3547H341V86.0027ZM341 73.4177C341 73.8977 340.856 74.2817 340.568 74.5697C340.28 74.8471 339.896 74.9857 339.416 74.9857H334.504V77.1617H333.112V74.9857H330.504V73.3377H333.112V70.9857H334.504V73.3377H339.128C339.448 73.3377 339.608 73.1884 339.608 72.8898V71.2417H341V73.4177ZM341.224 65.7149C341.224 66.5149 341.059 67.2135 340.728 67.8109C340.387 68.4082 339.912 68.8775 339.304 69.2189C338.685 69.5495 337.971 69.7149 337.16 69.7149H336.968C336.147 69.7149 335.432 69.5495 334.824 69.2189C334.205 68.8882 333.731 68.4295 333.4 67.8429C333.059 67.2455 332.888 66.5575 332.888 65.7789C332.888 65.0215 333.059 64.3602 333.4 63.7949C333.731 63.2189 334.195 62.7709 334.792 62.4509C335.389 62.1309 336.088 61.9709 336.888 61.9709H337.512V68.0349C338.205 68.0135 338.76 67.7842 339.176 67.3469C339.581 66.8989 339.784 66.3442 339.784 65.6829C339.784 65.0642 339.645 64.6002 339.368 64.2909C339.091 63.9709 338.771 63.7255 338.408 63.5549L339.112 62.1949C339.411 62.3442 339.725 62.5629 340.056 62.8509C340.387 63.1282 340.664 63.4962 340.888 63.9549C341.112 64.4135 341.224 65.0002 341.224 65.7149ZM336.248 68.0189V63.6509C335.651 63.6935 335.187 63.9069 334.856 64.2909C334.515 64.6749 334.344 65.1762 334.344 65.7949C334.344 66.4135 334.515 66.9202 334.856 67.3149C335.187 67.6989 335.651 67.9335 336.248 68.0189ZM341 59.9871H333.112V58.3711H334.04V58.1151C333.709 57.9871 333.469 57.7845 333.32 57.5071C333.16 57.2191 333.08 56.8671 333.08 56.4511V55.5071H334.568V56.5151C334.568 57.0485 334.717 57.4858 335.016 57.8271C335.304 58.1685 335.752 58.3391 336.36 58.3391H341V59.9871ZM341 52.3756H334.504V54.5836H333.112V52.3756H331.384C330.904 52.3756 330.52 52.2316 330.232 51.9436C329.944 51.6556 329.8 51.2716 329.8 50.7916V48.7596H331.192V50.2636C331.192 50.573 331.352 50.7276 331.672 50.7276H333.112V48.4556H334.504V50.7276H341V52.3756ZM341.224 44.461C341.224 45.0263 341.128 45.533 340.936 45.981C340.744 46.4183 340.461 46.7703 340.088 47.037C339.715 47.293 339.261 47.421 338.728 47.421C338.184 47.421 337.736 47.293 337.384 47.037C337.021 46.7703 336.749 46.413 336.568 45.965C336.387 45.5063 336.296 44.989 336.296 44.413V42.013H335.784C335.325 42.013 334.957 42.1517 334.68 42.429C334.403 42.7063 334.264 43.133 334.264 43.709C334.264 44.2743 334.397 44.7063 334.664 45.005C334.931 45.3037 335.277 45.501 335.704 45.597L335.208 47.133C334.781 47.005 334.397 46.8023 334.056 46.525C333.704 46.237 333.421 45.8583 333.208 45.389C332.995 44.9197 332.888 44.3543 332.888 43.693C332.888 42.669 333.149 41.8637 333.672 41.277C334.195 40.6903 334.936 40.397 335.896 40.397H339.144C339.464 40.397 339.624 40.2477 339.624 39.949V39.277H341V40.509C341 40.8823 340.904 41.1863 340.712 41.421C340.52 41.6557 340.259 41.773 339.928 41.773H339.88V42.013C340.04 42.0983 340.227 42.2263 340.44 42.397C340.653 42.5677 340.84 42.8183 341 43.149C341.149 43.4797 341.224 43.917 341.224 44.461ZM339.864 44.221C339.864 43.5597 339.677 43.0263 339.304 42.621C338.92 42.2157 338.397 42.013 337.736 42.013H337.576V44.317C337.576 44.7543 337.672 45.1063 337.864 45.373C338.045 45.6397 338.317 45.773 338.68 45.773C339.043 45.773 339.331 45.6343 339.544 45.357C339.757 45.0797 339.864 44.701 339.864 44.221ZM341.224 34.1981C341.224 34.9555 341.064 35.6435 340.744 36.2621C340.424 36.8701 339.96 37.3555 339.352 37.7181C338.744 38.0701 338.013 38.2461 337.16 38.2461H336.952C336.099 38.2461 335.373 38.0701 334.776 37.7181C334.168 37.3555 333.704 36.8701 333.384 36.2621C333.053 35.6435 332.888 34.9555 332.888 34.1981C332.888 33.4408 333.027 32.7955 333.304 32.2621C333.581 31.7288 333.949 31.3021 334.408 30.9821C334.867 30.6515 335.373 30.4381 335.928 30.3421L336.264 31.9421C335.912 31.9955 335.592 32.1075 335.304 32.2781C335.016 32.4488 334.787 32.6888 334.616 32.9981C334.445 33.3075 334.36 33.6968 334.36 34.1661C334.36 34.6248 334.467 35.0408 334.68 35.4141C334.883 35.7768 335.181 36.0648 335.576 36.2781C335.96 36.4915 336.429 36.5981 336.984 36.5981H337.128C337.683 36.5981 338.157 36.4915 338.552 36.2781C338.947 36.0648 339.245 35.7768 339.448 35.4141C339.651 35.0408 339.752 34.6248 339.752 34.1661C339.752 33.4728 339.576 32.9448 339.224 32.5821C338.861 32.2195 338.403 31.9901 337.848 31.8941L338.216 30.2941C338.76 30.4221 339.261 30.6515 339.72 30.9821C340.179 31.3021 340.547 31.7288 340.824 32.2621C341.091 32.7955 341.224 33.4408 341.224 34.1981ZM341.224 24.7774C341.224 25.5774 341.059 26.276 340.728 26.8734C340.387 27.4707 339.912 27.94 339.304 28.2814C338.685 28.612 337.971 28.7774 337.16 28.7774H336.968C336.147 28.7774 335.432 28.612 334.824 28.2814C334.205 27.9507 333.731 27.492 333.4 26.9054C333.059 26.308 332.888 25.62 332.888 24.8414C332.888 24.084 333.059 23.4227 333.4 22.8574C333.731 22.2814 334.195 21.8334 334.792 21.5134C335.389 21.1934 336.088 21.0334 336.888 21.0334H337.512V27.0974C338.205 27.076 338.76 26.8467 339.176 26.4094C339.581 25.9614 339.784 25.4067 339.784 24.7454C339.784 24.1267 339.645 23.6627 339.368 23.3534C339.091 23.0334 338.771 22.788 338.408 22.6174L339.112 21.2574C339.411 21.4067 339.725 21.6254 340.056 21.9134C340.387 22.1907 340.664 22.5587 340.888 23.0174C341.112 23.476 341.224 24.0627 341.224 24.7774ZM336.248 27.0814V22.7134C335.651 22.756 335.187 22.9694 334.856 23.3534C334.515 23.7374 334.344 24.2387 334.344 24.8574C334.344 25.476 334.515 25.9827 334.856 26.3774C335.187 26.7614 335.651 26.996 336.248 27.0814Z" fill="#454545"/>
<path d="M445.36 242.224C444.475 242.224 443.712 242.064 443.072 241.744C442.443 241.424 441.952 240.965 441.6 240.368C441.259 239.76 441.088 239.024 441.088 238.16V230.8H442.832V238.208C442.832 238.997 443.051 239.605 443.488 240.032C443.925 240.459 444.549 240.672 445.36 240.672C446.171 240.672 446.795 240.459 447.232 240.032C447.669 239.605 447.888 238.997 447.888 238.208V230.8H449.616V238.16C449.616 239.024 449.445 239.76 449.104 240.368C448.763 240.965 448.272 241.424 447.632 241.744C446.992 242.064 446.235 242.224 445.36 242.224ZM455.151 242.224C454.148 242.224 453.316 242 452.655 241.552C451.994 241.104 451.588 240.427 451.439 239.52L452.975 239.152C453.06 239.589 453.204 239.936 453.407 240.192C453.61 240.448 453.86 240.629 454.159 240.736C454.468 240.843 454.799 240.896 455.151 240.896C455.674 240.896 456.074 240.795 456.351 240.592C456.639 240.389 456.783 240.128 456.783 239.808C456.783 239.488 456.65 239.253 456.383 239.104C456.116 238.955 455.722 238.832 455.199 238.736L454.655 238.64C454.122 238.544 453.636 238.405 453.199 238.224C452.762 238.043 452.415 237.792 452.159 237.472C451.903 237.152 451.775 236.741 451.775 236.24C451.775 235.493 452.052 234.917 452.607 234.512C453.162 234.096 453.898 233.888 454.815 233.888C455.7 233.888 456.426 234.091 456.991 234.496C457.567 234.891 457.94 235.429 458.111 236.112L456.575 236.544C456.479 236.064 456.276 235.728 455.967 235.536C455.658 235.333 455.274 235.232 454.815 235.232C454.367 235.232 454.015 235.317 453.759 235.488C453.503 235.648 453.375 235.877 453.375 236.176C453.375 236.496 453.498 236.731 453.743 236.88C453.999 237.029 454.34 237.141 454.767 237.216L455.327 237.312C455.892 237.408 456.41 237.541 456.879 237.712C457.348 237.883 457.716 238.128 457.983 238.448C458.26 238.768 458.399 239.195 458.399 239.728C458.399 240.517 458.106 241.131 457.519 241.568C456.932 242.005 456.143 242.224 455.151 242.224ZM463.941 242.224C463.141 242.224 462.443 242.059 461.845 241.728C461.248 241.387 460.779 240.912 460.437 240.304C460.107 239.685 459.941 238.971 459.941 238.16V237.968C459.941 237.147 460.107 236.432 460.437 235.824C460.768 235.205 461.227 234.731 461.813 234.4C462.411 234.059 463.099 233.888 463.877 233.888C464.635 233.888 465.296 234.059 465.861 234.4C466.437 234.731 466.885 235.195 467.205 235.792C467.525 236.389 467.685 237.088 467.685 237.888V238.512H461.621C461.643 239.205 461.872 239.76 462.309 240.176C462.757 240.581 463.312 240.784 463.973 240.784C464.592 240.784 465.056 240.645 465.365 240.368C465.685 240.091 465.931 239.771 466.101 239.408L467.461 240.112C467.312 240.411 467.093 240.725 466.805 241.056C466.528 241.387 466.16 241.664 465.701 241.888C465.243 242.112 464.656 242.224 463.941 242.224ZM461.637 237.248H466.005C465.963 236.651 465.749 236.187 465.365 235.856C464.981 235.515 464.48 235.344 463.861 235.344C463.243 235.344 462.736 235.515 462.341 235.856C461.957 236.187 461.723 236.651 461.637 237.248ZM469.669 242V234.112H471.285V235.04H471.541C471.669 234.709 471.872 234.469 472.149 234.32C472.437 234.16 472.789 234.08 473.205 234.08H474.149V235.568H473.141C472.608 235.568 472.17 235.717 471.829 236.016C471.488 236.304 471.317 236.752 471.317 237.36V242H469.669ZM479.887 242V230.8H486.943V232.368H481.615V235.584H486.495V237.152H481.615V240.432H487.023V242H479.887ZM488.2 242L491.208 238.016L488.264 234.112H490.2L492.264 236.944H492.52L494.584 234.112H496.536L493.576 238.016L496.584 242H494.616L492.52 239.104H492.264L490.168 242H488.2ZM498.357 245.2V234.112H499.973V235.248H500.229C500.431 234.896 500.735 234.581 501.141 234.304C501.557 234.027 502.149 233.888 502.917 233.888C503.578 233.888 504.181 234.048 504.725 234.368C505.279 234.688 505.722 235.152 506.053 235.76C506.394 236.357 506.565 237.083 506.565 237.936V238.176C506.565 239.029 506.399 239.76 506.069 240.368C505.738 240.965 505.295 241.424 504.741 241.744C504.186 242.064 503.578 242.224 502.917 242.224C502.405 242.224 501.973 242.16 501.621 242.032C501.269 241.904 500.986 241.744 500.773 241.552C500.559 241.349 500.389 241.141 500.261 240.928H500.005V245.2H498.357ZM502.437 240.784C503.162 240.784 503.754 240.555 504.213 240.096C504.671 239.637 504.901 238.981 504.901 238.128V237.984C504.901 237.141 504.666 236.491 504.197 236.032C503.738 235.573 503.151 235.344 502.437 235.344C501.733 235.344 501.146 235.573 500.677 236.032C500.218 236.491 499.989 237.141 499.989 237.984V238.128C499.989 238.981 500.218 239.637 500.677 240.096C501.146 240.555 501.733 240.784 502.437 240.784ZM512.223 242.224C511.423 242.224 510.724 242.059 510.127 241.728C509.529 241.387 509.06 240.912 508.719 240.304C508.388 239.685 508.223 238.971 508.223 238.16V237.968C508.223 237.147 508.388 236.432 508.719 235.824C509.049 235.205 509.508 234.731 510.095 234.4C510.692 234.059 511.38 233.888 512.159 233.888C512.916 233.888 513.577 234.059 514.143 234.4C514.719 234.731 515.167 235.195 515.487 235.792C515.807 236.389 515.967 237.088 515.967 237.888V238.512H509.903C509.924 239.205 510.153 239.76 510.591 240.176C511.039 240.581 511.593 240.784 512.255 240.784C512.873 240.784 513.337 240.645 513.647 240.368C513.967 240.091 514.212 239.771 514.383 239.408L515.743 240.112C515.593 240.411 515.375 240.725 515.087 241.056C514.809 241.387 514.441 241.664 513.983 241.888C513.524 242.112 512.937 242.224 512.223 242.224ZM509.919 237.248H514.287C514.244 236.651 514.031 236.187 513.647 235.856C513.263 235.515 512.761 235.344 512.143 235.344C511.524 235.344 511.017 235.515 510.623 235.856C510.239 236.187 510.004 236.651 509.919 237.248ZM517.95 242V234.112H519.566V235.04H519.822C519.95 234.709 520.153 234.469 520.43 234.32C520.718 234.16 521.07 234.08 521.486 234.08H522.43V235.568H521.422C520.889 235.568 520.452 235.717 520.11 236.016C519.769 236.304 519.598 236.752 519.598 237.36V242H517.95ZM524.138 242V234.112H525.786V242H524.138ZM524.97 233.04C524.65 233.04 524.378 232.939 524.154 232.736C523.941 232.523 523.834 232.251 523.834 231.92C523.834 231.589 523.941 231.323 524.154 231.12C524.378 230.907 524.65 230.8 524.97 230.8C525.301 230.8 525.573 230.907 525.786 231.12C525.999 231.323 526.106 231.589 526.106 231.92C526.106 232.251 525.999 232.523 525.786 232.736C525.573 232.939 525.301 233.04 524.97 233.04ZM531.848 242.224C531.048 242.224 530.349 242.059 529.752 241.728C529.154 241.387 528.685 240.912 528.344 240.304C528.013 239.685 527.848 238.971 527.848 238.16V237.968C527.848 237.147 528.013 236.432 528.344 235.824C528.674 235.205 529.133 234.731 529.72 234.4C530.317 234.059 531.005 233.888 531.784 233.888C532.541 233.888 533.202 234.059 533.768 234.4C534.344 234.731 534.792 235.195 535.112 235.792C535.432 236.389 535.592 237.088 535.592 237.888V238.512H529.528C529.549 239.205 529.778 239.76 530.216 240.176C530.664 240.581 531.218 240.784 531.88 240.784C532.498 240.784 532.962 240.645 533.272 240.368C533.592 240.091 533.837 239.771 534.008 239.408L535.368 240.112C535.218 240.411 535 240.725 534.712 241.056C534.434 241.387 534.066 241.664 533.608 241.888C533.149 242.112 532.562 242.224 531.848 242.224ZM529.544 237.248H533.912C533.869 236.651 533.656 236.187 533.272 235.856C532.888 235.515 532.386 235.344 531.768 235.344C531.149 235.344 530.642 235.515 530.248 235.856C529.864 236.187 529.629 236.651 529.544 237.248ZM537.575 242V234.112H539.191V235.296H539.447C539.597 234.976 539.863 234.677 540.247 234.4C540.631 234.123 541.202 233.984 541.959 233.984C542.557 233.984 543.085 234.117 543.543 234.384C544.013 234.651 544.381 235.029 544.647 235.52C544.914 236 545.047 236.581 545.047 237.264V242H543.399V237.392C543.399 236.709 543.229 236.208 542.887 235.888C542.546 235.557 542.077 235.392 541.479 235.392C540.797 235.392 540.247 235.616 539.831 236.064C539.426 236.512 539.223 237.163 539.223 238.016V242H537.575ZM551.083 242.224C550.326 242.224 549.638 242.064 549.019 241.744C548.411 241.424 547.926 240.96 547.563 240.352C547.211 239.744 547.035 239.013 547.035 238.16V237.952C547.035 237.099 547.211 236.373 547.563 235.776C547.926 235.168 548.411 234.704 549.019 234.384C549.638 234.053 550.326 233.888 551.083 233.888C551.84 233.888 552.486 234.027 553.019 234.304C553.552 234.581 553.979 234.949 554.299 235.408C554.63 235.867 554.843 236.373 554.939 236.928L553.339 237.264C553.286 236.912 553.174 236.592 553.003 236.304C552.832 236.016 552.592 235.787 552.283 235.616C551.974 235.445 551.584 235.36 551.115 235.36C550.656 235.36 550.24 235.467 549.867 235.68C549.504 235.883 549.216 236.181 549.003 236.576C548.79 236.96 548.683 237.429 548.683 237.984V238.128C548.683 238.683 548.79 239.157 549.003 239.552C549.216 239.947 549.504 240.245 549.867 240.448C550.24 240.651 550.656 240.752 551.115 240.752C551.808 240.752 552.336 240.576 552.699 240.224C553.062 239.861 553.291 239.403 553.387 238.848L554.987 239.216C554.859 239.76 554.63 240.261 554.299 240.72C553.979 241.179 553.552 241.547 553.019 241.824C552.486 242.091 551.84 242.224 551.083 242.224ZM560.504 242.224C559.704 242.224 559.005 242.059 558.408 241.728C557.811 241.387 557.341 240.912 557 240.304C556.669 239.685 556.504 238.971 556.504 238.16V237.968C556.504 237.147 556.669 236.432 557 235.824C557.331 235.205 557.789 234.731 558.376 234.4C558.973 234.059 559.661 233.888 560.44 233.888C561.197 233.888 561.859 234.059 562.424 234.4C563 234.731 563.448 235.195 563.768 235.792C564.088 236.389 564.248 237.088 564.248 237.888V238.512H558.184C558.205 239.205 558.435 239.76 558.872 240.176C559.32 240.581 559.875 240.784 560.536 240.784C561.155 240.784 561.619 240.645 561.928 240.368C562.248 240.091 562.493 239.771 562.664 239.408L564.024 240.112C563.875 240.411 563.656 240.725 563.368 241.056C563.091 241.387 562.723 241.664 562.264 241.888C561.805 242.112 561.219 242.224 560.504 242.224ZM558.2 237.248H562.568C562.525 236.651 562.312 236.187 561.928 235.856C561.544 235.515 561.043 235.344 560.424 235.344C559.805 235.344 559.299 235.515 558.904 235.856C558.52 236.187 558.285 236.651 558.2 237.248Z" fill="#454545"/>
<path d="M442.176 341L440.528 329.8H442.256L443.6 339.832H443.856L445.584 329.8H448.608L450.336 339.832H450.592L451.92 329.8H453.648L452 341H448.976L447.216 330.824H446.96L445.216 341H442.176ZM455.404 341V333.112H457.052V341H455.404ZM456.236 332.04C455.916 332.04 455.644 331.939 455.42 331.736C455.206 331.523 455.1 331.251 455.1 330.92C455.1 330.589 455.206 330.323 455.42 330.12C455.644 329.907 455.916 329.8 456.236 329.8C456.566 329.8 456.838 329.907 457.052 330.12C457.265 330.323 457.372 330.589 457.372 330.92C457.372 331.251 457.265 331.523 457.052 331.736C456.838 331.939 456.566 332.04 456.236 332.04ZM459.497 341V333.112H461.113V334.04H461.369C461.497 333.709 461.7 333.469 461.977 333.32C462.265 333.16 462.617 333.08 463.033 333.08H463.977V334.568H462.969C462.436 334.568 461.999 334.717 461.657 335.016C461.316 335.304 461.145 335.752 461.145 336.36V341H459.497ZM469.02 341.224C468.22 341.224 467.521 341.059 466.924 340.728C466.326 340.387 465.857 339.912 465.516 339.304C465.185 338.685 465.02 337.971 465.02 337.16V336.968C465.02 336.147 465.185 335.432 465.516 334.824C465.846 334.205 466.305 333.731 466.892 333.4C467.489 333.059 468.177 332.888 468.956 332.888C469.713 332.888 470.374 333.059 470.94 333.4C471.516 333.731 471.964 334.195 472.284 334.792C472.604 335.389 472.764 336.088 472.764 336.888V337.512H466.7C466.721 338.205 466.95 338.76 467.388 339.176C467.836 339.581 468.39 339.784 469.052 339.784C469.67 339.784 470.134 339.645 470.444 339.368C470.764 339.091 471.009 338.771 471.18 338.408L472.54 339.112C472.39 339.411 472.172 339.725 471.884 340.056C471.606 340.387 471.238 340.664 470.78 340.888C470.321 341.112 469.734 341.224 469.02 341.224ZM466.716 336.248H471.084C471.041 335.651 470.828 335.187 470.444 334.856C470.06 334.515 469.558 334.344 468.94 334.344C468.321 334.344 467.814 334.515 467.42 334.856C467.036 335.187 466.801 335.651 466.716 336.248ZM475.874 341V334.504H473.666V333.112H475.874V331.384C475.874 330.904 476.018 330.52 476.306 330.232C476.594 329.944 476.978 329.8 477.458 329.8H479.49V331.192H477.986C477.677 331.192 477.522 331.352 477.522 331.672V333.112H479.794V334.504H477.522V341H475.874ZM481.482 341V333.112H483.098V334.04H483.354C483.482 333.709 483.684 333.469 483.962 333.32C484.25 333.16 484.602 333.08 485.018 333.08H485.962V334.568H484.954C484.42 334.568 483.983 334.717 483.642 335.016C483.3 335.304 483.13 335.752 483.13 336.36V341H481.482ZM489.898 341.224C489.333 341.224 488.826 341.128 488.378 340.936C487.941 340.744 487.589 340.461 487.322 340.088C487.066 339.715 486.938 339.261 486.938 338.728C486.938 338.184 487.066 337.736 487.322 337.384C487.589 337.021 487.946 336.749 488.394 336.568C488.853 336.387 489.37 336.296 489.946 336.296H492.346V335.784C492.346 335.325 492.208 334.957 491.93 334.68C491.653 334.403 491.226 334.264 490.65 334.264C490.085 334.264 489.653 334.397 489.354 334.664C489.056 334.931 488.858 335.277 488.762 335.704L487.226 335.208C487.354 334.781 487.557 334.397 487.834 334.056C488.122 333.704 488.501 333.421 488.97 333.208C489.44 332.995 490.005 332.888 490.666 332.888C491.69 332.888 492.496 333.149 493.082 333.672C493.669 334.195 493.962 334.936 493.962 335.896V339.144C493.962 339.464 494.112 339.624 494.41 339.624H495.082V341H493.85C493.477 341 493.173 340.904 492.938 340.712C492.704 340.52 492.586 340.259 492.586 339.928V339.88H492.346C492.261 340.04 492.133 340.227 491.962 340.44C491.792 340.653 491.541 340.84 491.21 341C490.88 341.149 490.442 341.224 489.898 341.224ZM490.138 339.864C490.8 339.864 491.333 339.677 491.738 339.304C492.144 338.92 492.346 338.397 492.346 337.736V337.576H490.042C489.605 337.576 489.253 337.672 488.986 337.864C488.72 338.045 488.586 338.317 488.586 338.68C488.586 339.043 488.725 339.331 489.002 339.544C489.28 339.757 489.658 339.864 490.138 339.864ZM496.685 341V333.112H498.301V334.04H498.557C498.706 333.763 498.946 333.517 499.277 333.304C499.607 333.091 500.055 332.984 500.621 332.984C501.207 332.984 501.677 333.107 502.029 333.352C502.391 333.587 502.663 333.891 502.845 334.264H503.101C503.282 333.901 503.543 333.597 503.885 333.352C504.237 333.107 504.733 332.984 505.373 332.984C505.885 332.984 506.338 333.091 506.733 333.304C507.127 333.507 507.442 333.816 507.677 334.232C507.911 334.637 508.029 335.144 508.029 335.752V341H506.381V335.88C506.381 335.4 506.247 335.032 505.981 334.776C505.725 334.509 505.357 334.376 504.877 334.376C504.365 334.376 503.954 334.541 503.645 334.872C503.335 335.203 503.181 335.677 503.181 336.296V341H501.533V335.88C501.533 335.4 501.399 335.032 501.133 334.776C500.877 334.509 500.509 334.376 500.029 334.376C499.517 334.376 499.106 334.541 498.797 334.872C498.487 335.203 498.333 335.677 498.333 336.296V341H496.685ZM510.404 341V333.112H512.052V341H510.404ZM511.236 332.04C510.916 332.04 510.644 331.939 510.42 331.736C510.206 331.523 510.1 331.251 510.1 330.92C510.1 330.589 510.206 330.323 510.42 330.12C510.644 329.907 510.916 329.8 511.236 329.8C511.566 329.8 511.838 329.907 512.052 330.12C512.265 330.323 512.372 330.589 512.372 330.92C512.372 331.251 512.265 331.523 512.052 331.736C511.838 331.939 511.566 332.04 511.236 332.04ZM514.497 341V333.112H516.113V334.296H516.369C516.519 333.976 516.785 333.677 517.169 333.4C517.553 333.123 518.124 332.984 518.881 332.984C519.479 332.984 520.007 333.117 520.465 333.384C520.935 333.651 521.303 334.029 521.569 334.52C521.836 335 521.969 335.581 521.969 336.264V341H520.321V336.392C520.321 335.709 520.151 335.208 519.809 334.888C519.468 334.557 518.999 334.392 518.401 334.392C517.719 334.392 517.169 334.616 516.753 335.064C516.348 335.512 516.145 336.163 516.145 337.016V341H514.497ZM523.957 337.096V336.856C523.957 336.024 524.122 335.315 524.453 334.728C524.794 334.141 525.242 333.688 525.797 333.368C526.352 333.048 526.96 332.888 527.621 332.888C528.389 332.888 528.976 333.032 529.381 333.32C529.797 333.608 530.101 333.917 530.293 334.248H530.549V333.112H532.149V342.616C532.149 343.096 532.005 343.48 531.717 343.768C531.44 344.056 531.056 344.2 530.565 344.2H525.253V342.76H530.053C530.362 342.76 530.517 342.6 530.517 342.28V339.768H530.261C530.144 339.96 529.978 340.157 529.765 340.36C529.552 340.563 529.269 340.728 528.917 340.856C528.576 340.984 528.144 341.048 527.621 341.048C526.96 341.048 526.346 340.893 525.781 340.584C525.226 340.264 524.784 339.811 524.453 339.224C524.122 338.627 523.957 337.917 523.957 337.096ZM528.069 339.608C528.784 339.608 529.37 339.384 529.829 338.936C530.298 338.477 530.533 337.848 530.533 337.048V336.904C530.533 336.083 530.304 335.453 529.845 335.016C529.386 334.568 528.794 334.344 528.069 334.344C527.365 334.344 526.778 334.568 526.309 335.016C525.85 335.453 525.621 336.083 525.621 336.904V337.048C525.621 337.848 525.85 338.477 526.309 338.936C526.778 339.384 527.365 339.608 528.069 339.608Z" fill="#454545"/>
<path d="M341 509.832H329.8V506.584L339.848 504.136V503.88L329.8 501.432V498.184H341V499.864H331.016V500.12L341 502.552V505.464L331.016 507.896V508.152H341V509.832ZM341.224 492.104C341.224 492.893 341.064 493.597 340.744 494.216C340.413 494.824 339.944 495.304 339.336 495.656C338.728 496.008 338.008 496.184 337.176 496.184H336.936C336.104 496.184 335.389 496.008 334.792 495.656C334.184 495.304 333.715 494.824 333.384 494.216C333.053 493.597 332.888 492.893 332.888 492.104C332.888 491.314 333.053 490.61 333.384 489.992C333.715 489.373 334.184 488.888 334.792 488.536C335.389 488.184 336.104 488.008 336.936 488.008H337.176C338.008 488.008 338.728 488.184 339.336 488.536C339.944 488.888 340.413 489.373 340.744 489.992C341.064 490.61 341.224 491.314 341.224 492.104ZM339.752 492.104C339.752 491.378 339.523 490.792 339.064 490.344C338.595 489.885 337.949 489.656 337.128 489.656H336.984C336.163 489.656 335.523 489.88 335.064 490.328C334.595 490.776 334.36 491.368 334.36 492.104C334.36 492.818 334.595 493.405 335.064 493.864C335.523 494.312 336.163 494.536 336.984 494.536H337.128C337.949 494.536 338.595 494.312 339.064 493.864C339.523 493.405 339.752 492.818 339.752 492.104ZM341.224 482.292C341.224 483.049 341.064 483.737 340.744 484.356C340.424 484.964 339.96 485.449 339.352 485.812C338.744 486.164 338.013 486.34 337.16 486.34H336.952C336.099 486.34 335.373 486.164 334.776 485.812C334.168 485.449 333.704 484.964 333.384 484.356C333.053 483.737 332.888 483.049 332.888 482.292C332.888 481.535 333.027 480.889 333.304 480.356C333.581 479.823 333.949 479.396 334.408 479.076C334.867 478.745 335.373 478.532 335.928 478.436L336.264 480.036C335.912 480.089 335.592 480.201 335.304 480.372C335.016 480.543 334.787 480.783 334.616 481.092C334.445 481.401 334.36 481.791 334.36 482.26C334.36 482.719 334.467 483.135 334.68 483.508C334.883 483.871 335.181 484.159 335.576 484.372C335.96 484.585 336.429 484.692 336.984 484.692H337.128C337.683 484.692 338.157 484.585 338.552 484.372C338.947 484.159 339.245 483.871 339.448 483.508C339.651 483.135 339.752 482.719 339.752 482.26C339.752 481.567 339.576 481.039 339.224 480.676C338.861 480.313 338.403 480.084 337.848 479.988L338.216 478.388C338.76 478.516 339.261 478.745 339.72 479.076C340.179 479.396 340.547 479.823 340.824 480.356C341.091 480.889 341.224 481.535 341.224 482.292ZM341 476.487H329.8V474.839H336.184V474.583L333.112 471.479V469.287L336.936 473.271L341 469.159V471.335L337.72 474.583V474.839H341V476.487ZM341.144 464.651C341.144 465.248 341.011 465.781 340.744 466.251C340.477 466.72 340.099 467.088 339.608 467.355C339.117 467.621 338.531 467.755 337.848 467.755H333.112V466.107H337.736C338.419 466.107 338.925 465.936 339.256 465.595C339.576 465.253 339.736 464.779 339.736 464.171C339.736 463.499 339.512 462.96 339.064 462.555C338.605 462.139 337.949 461.931 337.096 461.931H333.112V460.283H341V461.899H339.816V462.155C340.136 462.304 340.44 462.571 340.728 462.955C341.005 463.339 341.144 463.904 341.144 464.651ZM344.2 457.846H333.112V456.23H334.248V455.974C333.896 455.772 333.581 455.468 333.304 455.062C333.027 454.646 332.888 454.054 332.888 453.286C332.888 452.625 333.048 452.022 333.368 451.478C333.688 450.924 334.152 450.481 334.76 450.15C335.357 449.809 336.083 449.638 336.936 449.638H337.176C338.029 449.638 338.76 449.804 339.368 450.134C339.965 450.465 340.424 450.908 340.744 451.462C341.064 452.017 341.224 452.625 341.224 453.286C341.224 453.798 341.16 454.23 341.032 454.582C340.904 454.934 340.744 455.217 340.552 455.43C340.349 455.644 340.141 455.814 339.928 455.942V456.198H344.2V457.846ZM339.784 453.766C339.784 453.041 339.555 452.449 339.096 451.99C338.637 451.532 337.981 451.302 337.128 451.302H336.984C336.141 451.302 335.491 451.537 335.032 452.006C334.573 452.465 334.344 453.052 334.344 453.766C334.344 454.47 334.573 455.057 335.032 455.526C335.491 455.985 336.141 456.214 336.984 456.214H337.128C337.981 456.214 338.637 455.985 339.096 455.526C339.555 455.057 339.784 454.47 339.784 453.766ZM341.224 444.364C341.224 445.367 341 446.199 340.552 446.86C340.104 447.522 339.427 447.927 338.52 448.076L338.152 446.54C338.589 446.455 338.936 446.311 339.192 446.108C339.448 445.906 339.629 445.655 339.736 445.356C339.843 445.047 339.896 444.716 339.896 444.364C339.896 443.842 339.795 443.442 339.592 443.164C339.389 442.876 339.128 442.732 338.808 442.732C338.488 442.732 338.253 442.866 338.104 443.132C337.955 443.399 337.832 443.794 337.736 444.316L337.64 444.86C337.544 445.394 337.405 445.879 337.224 446.316C337.043 446.754 336.792 447.1 336.472 447.356C336.152 447.612 335.741 447.74 335.24 447.74C334.493 447.74 333.917 447.463 333.512 446.908C333.096 446.354 332.888 445.618 332.888 444.701C332.888 443.815 333.091 443.09 333.496 442.524C333.891 441.948 334.429 441.575 335.112 441.404L335.544 442.94C335.064 443.036 334.728 443.239 334.536 443.548C334.333 443.858 334.232 444.242 334.232 444.701C334.232 445.148 334.317 445.5 334.488 445.756C334.648 446.012 334.877 446.14 335.176 446.14C335.496 446.14 335.731 446.018 335.88 445.772C336.029 445.516 336.141 445.175 336.216 444.748L336.312 444.188C336.408 443.623 336.541 443.106 336.712 442.636C336.883 442.167 337.128 441.799 337.448 441.532C337.768 441.255 338.195 441.116 338.728 441.116C339.517 441.116 340.131 441.41 340.568 441.996C341.005 442.583 341.224 443.372 341.224 444.364Z" fill="#454545"/>
<path d="M37.168 341V329.8H41.616C42.2987 329.8 42.9067 329.939 43.44 330.216C43.984 330.483 44.4053 330.867 44.704 331.368C45.0133 331.859 45.168 332.451 45.168 333.144V333.352C45.168 334.045 45.008 334.643 44.688 335.144C44.3787 335.645 43.9573 336.029 43.424 336.296C42.8907 336.563 42.288 336.696 41.616 336.696H38.896V341H37.168ZM38.896 335.128H41.44C42.048 335.128 42.5333 334.968 42.896 334.648C43.2587 334.328 43.44 333.891 43.44 333.336V333.176C43.44 332.611 43.2587 332.168 42.896 331.848C42.5333 331.528 42.048 331.368 41.44 331.368H38.896V335.128ZM46.8566 341V333.112H48.4726V334.04H48.7286C48.8566 333.709 49.0593 333.469 49.3366 333.32C49.6246 333.16 49.9766 333.08 50.3926 333.08H51.3366V334.568H50.3286C49.7953 334.568 49.358 334.717 49.0166 335.016C48.6753 335.304 48.5046 335.752 48.5046 336.36V341H46.8566ZM56.4589 341.224C55.6695 341.224 54.9655 341.064 54.3469 340.744C53.7389 340.413 53.2589 339.944 52.9069 339.336C52.5549 338.728 52.3789 338.008 52.3789 337.176V336.936C52.3789 336.104 52.5549 335.389 52.9069 334.792C53.2589 334.184 53.7389 333.715 54.3469 333.384C54.9655 333.053 55.6695 332.888 56.4589 332.888C57.2482 332.888 57.9522 333.053 58.5709 333.384C59.1895 333.715 59.6749 334.184 60.0269 334.792C60.3789 335.389 60.5549 336.104 60.5549 336.936V337.176C60.5549 338.008 60.3789 338.728 60.0269 339.336C59.6749 339.944 59.1895 340.413 58.5709 340.744C57.9522 341.064 57.2482 341.224 56.4589 341.224ZM56.4589 339.752C57.1842 339.752 57.7709 339.523 58.2189 339.064C58.6775 338.595 58.9069 337.949 58.9069 337.128V336.984C58.9069 336.163 58.6829 335.523 58.2349 335.064C57.7869 334.595 57.1949 334.36 56.4589 334.36C55.7442 334.36 55.1575 334.595 54.6989 335.064C54.2509 335.523 54.0269 336.163 54.0269 336.984V337.128C54.0269 337.949 54.2509 338.595 54.6989 339.064C55.1575 339.523 55.7442 339.752 56.4589 339.752ZM65.2698 341C64.7898 341 64.4058 340.856 64.1178 340.568C63.8404 340.28 63.7018 339.896 63.7018 339.416V334.504H61.5258V333.112H63.7018V330.504H65.3498V333.112H67.7018V334.504H65.3498V339.128C65.3498 339.448 65.4991 339.608 65.7977 339.608H67.4458V341H65.2698ZM73.0526 341.224C72.2633 341.224 71.5593 341.064 70.9406 340.744C70.3326 340.413 69.8526 339.944 69.5006 339.336C69.1486 338.728 68.9726 338.008 68.9726 337.176V336.936C68.9726 336.104 69.1486 335.389 69.5006 334.792C69.8526 334.184 70.3326 333.715 70.9406 333.384C71.5593 333.053 72.2633 332.888 73.0526 332.888C73.842 332.888 74.546 333.053 75.1646 333.384C75.7833 333.715 76.2686 334.184 76.6206 334.792C76.9726 335.389 77.1486 336.104 77.1486 336.936V337.176C77.1486 338.008 76.9726 338.728 76.6206 339.336C76.2686 339.944 75.7833 340.413 75.1646 340.744C74.546 341.064 73.842 341.224 73.0526 341.224ZM73.0526 339.752C73.778 339.752 74.3646 339.523 74.8126 339.064C75.2713 338.595 75.5006 337.949 75.5006 337.128V336.984C75.5006 336.163 75.2766 335.523 74.8286 335.064C74.3806 334.595 73.7886 334.36 73.0526 334.36C72.338 334.36 71.7513 334.595 71.2926 335.064C70.8446 335.523 70.6206 336.163 70.6206 336.984V337.128C70.6206 337.949 70.8446 338.595 71.2926 339.064C71.7513 339.523 72.338 339.752 73.0526 339.752ZM81.8635 341C81.3835 341 80.9995 340.856 80.7115 340.568C80.4342 340.28 80.2955 339.896 80.2955 339.416V334.504H78.1195V333.112H80.2955V330.504H81.9435V333.112H84.2955V334.504H81.9435V339.128C81.9435 339.448 82.0928 339.608 82.3915 339.608H84.0395V341H81.8635ZM87.1436 344.2V342.76H91.5436C91.8423 342.76 91.9916 342.6 91.9916 342.28V339.848H91.7356C91.6396 340.061 91.4903 340.269 91.2876 340.472C91.0956 340.664 90.8343 340.824 90.5036 340.952C90.173 341.08 89.757 341.144 89.2556 341.144C88.6583 341.144 88.125 341.011 87.6556 340.744C87.1863 340.477 86.8183 340.099 86.5516 339.608C86.285 339.117 86.1516 338.536 86.1516 337.864V333.112H87.7996V337.736C87.7996 338.419 87.9703 338.925 88.3116 339.256C88.653 339.576 89.1276 339.736 89.7356 339.736C90.4076 339.736 90.9463 339.512 91.3516 339.064C91.7676 338.616 91.9756 337.965 91.9756 337.112V333.112H93.6236V342.616C93.6236 343.096 93.4796 343.48 93.1916 343.768C92.9143 344.056 92.5303 344.2 92.0396 344.2H87.1436ZM96.0598 344.2V333.112H97.6758V334.248H97.9318C98.1344 333.896 98.4384 333.581 98.8438 333.304C99.2598 333.027 99.8518 332.888 100.62 332.888C101.281 332.888 101.884 333.048 102.428 333.368C102.982 333.688 103.425 334.152 103.756 334.76C104.097 335.357 104.268 336.083 104.268 336.936V337.176C104.268 338.029 104.102 338.76 103.772 339.368C103.441 339.965 102.998 340.424 102.444 340.744C101.889 341.064 101.281 341.224 100.62 341.224C100.108 341.224 99.6758 341.16 99.3238 341.032C98.9718 340.904 98.6891 340.744 98.4758 340.552C98.2624 340.349 98.0918 340.141 97.9638 339.928H97.7078V344.2H96.0598ZM100.14 339.784C100.865 339.784 101.457 339.555 101.916 339.096C102.374 338.637 102.604 337.981 102.604 337.128V336.984C102.604 336.141 102.369 335.491 101.9 335.032C101.441 334.573 100.854 334.344 100.14 334.344C99.4358 334.344 98.8491 334.573 98.3798 335.032C97.9211 335.491 97.6918 336.141 97.6918 336.984V337.128C97.6918 337.981 97.9211 338.637 98.3798 339.096C98.8491 339.555 99.4358 339.784 100.14 339.784ZM106.31 341V333.112H107.958V341H106.31ZM107.142 332.04C106.822 332.04 106.55 331.939 106.326 331.736C106.112 331.523 106.006 331.251 106.006 330.92C106.006 330.589 106.112 330.323 106.326 330.12C106.55 329.907 106.822 329.8 107.142 329.8C107.472 329.8 107.744 329.907 107.958 330.12C108.171 330.323 108.278 330.589 108.278 330.92C108.278 331.251 108.171 331.523 107.958 331.736C107.744 331.939 107.472 332.04 107.142 332.04ZM110.404 341V333.112H112.02V334.296H112.276C112.425 333.976 112.692 333.677 113.076 333.4C113.46 333.123 114.03 332.984 114.788 332.984C115.385 332.984 115.913 333.117 116.372 333.384C116.841 333.651 117.209 334.029 117.476 334.52C117.742 335 117.876 335.581 117.876 336.264V341H116.228V336.392C116.228 335.709 116.057 335.208 115.716 334.888C115.374 334.557 114.905 334.392 114.308 334.392C113.625 334.392 113.076 334.616 112.66 335.064C112.254 335.512 112.052 336.163 112.052 337.016V341H110.404ZM119.863 337.096V336.856C119.863 336.024 120.029 335.315 120.359 334.728C120.701 334.141 121.149 333.688 121.703 333.368C122.258 333.048 122.866 332.888 123.527 332.888C124.295 332.888 124.882 333.032 125.287 333.32C125.703 333.608 126.007 333.917 126.199 334.248H126.455V333.112H128.055V342.616C128.055 343.096 127.911 343.48 127.623 343.768C127.346 344.056 126.962 344.2 126.471 344.2H121.159V342.76H125.959C126.269 342.76 126.423 342.6 126.423 342.28V339.768H126.167C126.05 339.96 125.885 340.157 125.671 340.36C125.458 340.563 125.175 340.728 124.823 340.856C124.482 340.984 124.05 341.048 123.527 341.048C122.866 341.048 122.253 340.893 121.687 340.584C121.133 340.264 120.69 339.811 120.359 339.224C120.029 338.627 119.863 337.917 119.863 337.096ZM123.975 339.608C124.69 339.608 125.277 339.384 125.735 338.936C126.205 338.477 126.439 337.848 126.439 337.048V336.904C126.439 336.083 126.21 335.453 125.751 335.016C125.293 334.568 124.701 334.344 123.975 334.344C123.271 334.344 122.685 334.568 122.215 335.016C121.757 335.453 121.527 336.083 121.527 336.904V337.048C121.527 337.848 121.757 338.477 122.215 338.936C122.685 339.384 123.271 339.608 123.975 339.608Z" fill="#454545"/>
<path d="M6.752 241V239.464H8.256V231.336H6.752V229.8H11.232C12.7253 229.8 13.8667 230.179 14.656 230.936C15.456 231.693 15.856 232.835 15.856 234.36V236.456C15.856 237.981 15.456 239.123 14.656 239.88C13.8667 240.627 12.7253 241 11.232 241H6.752ZM10 239.432H11.248C12.2187 239.432 12.9387 239.187 13.408 238.696C13.8773 238.205 14.112 237.475 14.112 236.504V234.296C14.112 233.315 13.8773 232.584 13.408 232.104C12.9387 231.624 12.2187 231.384 11.248 231.384H10V239.432ZM21.4726 241.224C20.6726 241.224 19.974 241.059 19.3766 240.728C18.7793 240.387 18.31 239.912 17.9686 239.304C17.638 238.685 17.4726 237.971 17.4726 237.16V236.968C17.4726 236.147 17.638 235.432 17.9686 234.824C18.2993 234.205 18.758 233.731 19.3446 233.4C19.942 233.059 20.63 232.888 21.4086 232.888C22.166 232.888 22.8273 233.059 23.3926 233.4C23.9686 233.731 24.4166 234.195 24.7366 234.792C25.0566 235.389 25.2166 236.088 25.2166 236.888V237.512H19.1526C19.174 238.205 19.4033 238.76 19.8406 239.176C20.2886 239.581 20.8433 239.784 21.5046 239.784C22.1233 239.784 22.5873 239.645 22.8966 239.368C23.2166 239.091 23.462 238.771 23.6326 238.408L24.9926 239.112C24.8433 239.411 24.6246 239.725 24.3366 240.056C24.0593 240.387 23.6913 240.664 23.2326 240.888C22.774 241.112 22.1873 241.224 21.4726 241.224ZM19.1686 236.248H23.5366C23.494 235.651 23.2806 235.187 22.8966 234.856C22.5126 234.515 22.0113 234.344 21.3926 234.344C20.774 234.344 20.2673 234.515 19.8726 234.856C19.4886 235.187 19.254 235.651 19.1686 236.248ZM30.4324 241.224C29.4297 241.224 28.5977 241 27.9364 240.552C27.275 240.104 26.8697 239.427 26.7204 238.52L28.2564 238.152C28.3417 238.589 28.4857 238.936 28.6884 239.192C28.891 239.448 29.1417 239.629 29.4404 239.736C29.7497 239.843 30.0804 239.896 30.4324 239.896C30.955 239.896 31.355 239.795 31.6324 239.592C31.9204 239.389 32.0644 239.128 32.0644 238.808C32.0644 238.488 31.931 238.253 31.6644 238.104C31.3977 237.955 31.003 237.832 30.4804 237.736L29.9364 237.64C29.403 237.544 28.9177 237.405 28.4804 237.224C28.043 237.043 27.6964 236.792 27.4404 236.472C27.1844 236.152 27.0564 235.741 27.0564 235.24C27.0564 234.493 27.3337 233.917 27.8884 233.512C28.443 233.096 29.179 232.888 30.0964 232.888C30.9817 232.888 31.707 233.091 32.2724 233.496C32.8484 233.891 33.2217 234.429 33.3924 235.112L31.8564 235.544C31.7604 235.064 31.5577 234.728 31.2484 234.536C30.939 234.333 30.555 234.232 30.0964 234.232C29.6484 234.232 29.2964 234.317 29.0404 234.488C28.7844 234.648 28.6564 234.877 28.6564 235.176C28.6564 235.496 28.779 235.731 29.0244 235.88C29.2804 236.029 29.6217 236.141 30.0484 236.216L30.6084 236.312C31.1737 236.408 31.691 236.541 32.1604 236.712C32.6297 236.883 32.9977 237.128 33.2644 237.448C33.5417 237.768 33.6804 238.195 33.6804 238.728C33.6804 239.517 33.387 240.131 32.8004 240.568C32.2137 241.005 31.4244 241.224 30.4324 241.224ZM35.6066 241V233.112H37.2546V241H35.6066ZM36.4386 232.04C36.1186 232.04 35.8466 231.939 35.6226 231.736C35.4093 231.523 35.3026 231.251 35.3026 230.92C35.3026 230.589 35.4093 230.323 35.6226 230.12C35.8466 229.907 36.1186 229.8 36.4386 229.8C36.7693 229.8 37.0413 229.907 37.2546 230.12C37.468 230.323 37.5746 230.589 37.5746 230.92C37.5746 231.251 37.468 231.523 37.2546 231.736C37.0413 231.939 36.7693 232.04 36.4386 232.04ZM39.3164 237.096V236.856C39.3164 236.024 39.4817 235.315 39.8124 234.728C40.1537 234.141 40.6017 233.688 41.1564 233.368C41.711 233.048 42.319 232.888 42.9804 232.888C43.7484 232.888 44.335 233.032 44.7404 233.32C45.1564 233.608 45.4604 233.917 45.6524 234.248H45.9084V233.112H47.5084V242.616C47.5084 243.096 47.3644 243.48 47.0764 243.768C46.799 244.056 46.415 244.2 45.9244 244.2H40.6124V242.76H45.4124C45.7217 242.76 45.8764 242.6 45.8764 242.28V239.768H45.6204C45.503 239.96 45.3377 240.157 45.1244 240.36C44.911 240.563 44.6284 240.728 44.2764 240.856C43.935 240.984 43.503 241.048 42.9804 241.048C42.319 241.048 41.7057 240.893 41.1404 240.584C40.5857 240.264 40.143 239.811 39.8124 239.224C39.4817 238.627 39.3164 237.917 39.3164 237.096ZM43.4284 239.608C44.143 239.608 44.7297 239.384 45.1884 238.936C45.6577 238.477 45.8924 237.848 45.8924 237.048V236.904C45.8924 236.083 45.663 235.453 45.2044 235.016C44.7457 234.568 44.1537 234.344 43.4284 234.344C42.7244 234.344 42.1377 234.568 41.6684 235.016C41.2097 235.453 40.9804 236.083 40.9804 236.904V237.048C40.9804 237.848 41.2097 238.477 41.6684 238.936C42.1377 239.384 42.7244 239.608 43.4284 239.608ZM49.9348 241V233.112H51.5508V234.296H51.8068C51.9561 233.976 52.2228 233.677 52.6068 233.4C52.9908 233.123 53.5614 232.984 54.3188 232.984C54.9161 232.984 55.4441 233.117 55.9028 233.384C56.3721 233.651 56.7401 234.029 57.0068 234.52C57.2734 235 57.4068 235.581 57.4068 236.264V241H55.7588V236.392C55.7588 235.709 55.5881 235.208 55.2468 234.888C54.9054 234.557 54.4361 234.392 53.8388 234.392C53.1561 234.392 52.6068 234.616 52.1908 235.064C51.7854 235.512 51.5828 236.163 51.5828 237.016V241H49.9348ZM66.0275 241V231.368H62.5875V229.8H71.1955V231.368H67.7555V241H66.0275ZM72.8098 241V229.8H74.4578V234.232H74.7138C74.8204 234.029 74.9698 233.832 75.1618 233.64C75.3644 233.448 75.6258 233.293 75.9458 233.176C76.2764 233.048 76.6924 232.984 77.1938 232.984C77.7911 232.984 78.3191 233.117 78.7778 233.384C79.2471 233.651 79.6151 234.029 79.8818 234.52C80.1484 235 80.2818 235.581 80.2818 236.264V241H78.6338V236.392C78.6338 235.709 78.4631 235.208 78.1218 234.888C77.7804 234.557 77.3111 234.392 76.7138 234.392C76.0311 234.392 75.4818 234.616 75.0658 235.064C74.6604 235.512 74.4578 236.163 74.4578 237.016V241H72.8098ZM82.6535 241V233.112H84.3015V241H82.6535ZM83.4855 232.04C83.1655 232.04 82.8935 231.939 82.6695 231.736C82.4562 231.523 82.3495 231.251 82.3495 230.92C82.3495 230.589 82.4562 230.323 82.6695 230.12C82.8935 229.907 83.1655 229.8 83.4855 229.8C83.8162 229.8 84.0882 229.907 84.3015 230.12C84.5148 230.323 84.6215 230.589 84.6215 230.92C84.6215 231.251 84.5148 231.523 84.3015 231.736C84.0882 231.939 83.8162 232.04 83.4855 232.04ZM86.7473 241V233.112H88.3633V234.296H88.6193C88.7686 233.976 89.0353 233.677 89.4193 233.4C89.8033 233.123 90.3739 232.984 91.1313 232.984C91.7286 232.984 92.2566 233.117 92.7153 233.384C93.1846 233.651 93.5526 234.029 93.8193 234.52C94.0859 235 94.2193 235.581 94.2193 236.264V241H92.5713V236.392C92.5713 235.709 92.4006 235.208 92.0593 234.888C91.7179 234.557 91.2486 234.392 90.6513 234.392C89.9686 234.392 89.4193 234.616 89.0033 235.064C88.5979 235.512 88.3953 236.163 88.3953 237.016V241H86.7473ZM96.591 241V229.8H98.239V236.184H98.495L101.599 233.112H103.791L99.807 236.936L103.919 241H101.743L98.495 237.72H98.239V241H96.591ZM105.404 241V233.112H107.052V241H105.404ZM106.236 232.04C105.916 232.04 105.644 231.939 105.42 231.736C105.206 231.523 105.1 231.251 105.1 230.92C105.1 230.589 105.206 230.323 105.42 230.12C105.644 229.907 105.916 229.8 106.236 229.8C106.566 229.8 106.838 229.907 107.052 230.12C107.265 230.323 107.372 230.589 107.372 230.92C107.372 231.251 107.265 231.523 107.052 231.736C106.838 231.939 106.566 232.04 106.236 232.04ZM109.497 241V233.112H111.113V234.296H111.369C111.519 233.976 111.785 233.677 112.169 233.4C112.553 233.123 113.124 232.984 113.881 232.984C114.479 232.984 115.007 233.117 115.465 233.384C115.935 233.651 116.303 234.029 116.569 234.52C116.836 235 116.969 235.581 116.969 236.264V241H115.321V236.392C115.321 235.709 115.151 235.208 114.809 234.888C114.468 234.557 113.999 234.392 113.401 234.392C112.719 234.392 112.169 234.616 111.753 235.064C111.348 235.512 111.145 236.163 111.145 237.016V241H109.497ZM118.957 237.096V236.856C118.957 236.024 119.122 235.315 119.453 234.728C119.794 234.141 120.242 233.688 120.797 233.368C121.352 233.048 121.96 232.888 122.621 232.888C123.389 232.888 123.976 233.032 124.381 233.32C124.797 233.608 125.101 233.917 125.293 234.248H125.549V233.112H127.149V242.616C127.149 243.096 127.005 243.48 126.717 243.768C126.44 244.056 126.056 244.2 125.565 244.2H120.253V242.76H125.053C125.362 242.76 125.517 242.6 125.517 242.28V239.768H125.261C125.144 239.96 124.978 240.157 124.765 240.36C124.552 240.563 124.269 240.728 123.917 240.856C123.576 240.984 123.144 241.048 122.621 241.048C121.96 241.048 121.346 240.893 120.781 240.584C120.226 240.264 119.784 239.811 119.453 239.224C119.122 238.627 118.957 237.917 118.957 237.096ZM123.069 239.608C123.784 239.608 124.37 239.384 124.829 238.936C125.298 238.477 125.533 237.848 125.533 237.048V236.904C125.533 236.083 125.304 235.453 124.845 235.016C124.386 234.568 123.794 234.344 123.069 234.344C122.365 234.344 121.778 234.568 121.309 235.016C120.85 235.453 120.621 236.083 120.621 236.904V237.048C120.621 237.848 120.85 238.477 121.309 238.936C121.778 239.384 122.365 239.608 123.069 239.608Z" fill="#454545"/>
<path d="M242 539.544L230.8 542.664V540.872L240.912 538.152V537.944L230.8 535.24V533.448L242 536.552V539.544ZM242 531.878H234.112V530.23H242V531.878ZM233.04 531.046C233.04 531.366 232.939 531.638 232.736 531.862C232.523 532.075 232.251 532.182 231.92 532.182C231.589 532.182 231.323 532.075 231.12 531.862C230.907 531.638 230.8 531.366 230.8 531.046C230.8 530.715 230.907 530.443 231.12 530.23C231.323 530.016 231.589 529.91 231.92 529.91C232.251 529.91 232.523 530.016 232.736 530.23C232.939 530.443 233.04 530.715 233.04 531.046ZM242.224 524.552C242.224 525.555 242 526.387 241.552 527.048C241.104 527.709 240.427 528.115 239.52 528.264L239.152 526.728C239.589 526.643 239.936 526.499 240.192 526.296C240.448 526.093 240.629 525.843 240.736 525.544C240.843 525.235 240.896 524.904 240.896 524.552C240.896 524.029 240.795 523.629 240.592 523.352C240.389 523.064 240.128 522.92 239.808 522.92C239.488 522.92 239.253 523.053 239.104 523.32C238.955 523.587 238.832 523.981 238.736 524.504L238.64 525.048C238.544 525.581 238.405 526.067 238.224 526.504C238.043 526.941 237.792 527.288 237.472 527.544C237.152 527.8 236.741 527.928 236.24 527.928C235.493 527.928 234.917 527.651 234.512 527.096C234.096 526.541 233.888 525.805 233.888 524.888C233.888 524.003 234.091 523.277 234.496 522.712C234.891 522.136 235.429 521.763 236.112 521.592L236.544 523.128C236.064 523.224 235.728 523.427 235.536 523.736C235.333 524.045 235.232 524.429 235.232 524.888C235.232 525.336 235.317 525.688 235.488 525.944C235.648 526.2 235.877 526.328 236.176 526.328C236.496 526.328 236.731 526.205 236.88 525.96C237.029 525.704 237.141 525.363 237.216 524.936L237.312 524.376C237.408 523.811 237.541 523.293 237.712 522.824C237.883 522.355 238.128 521.987 238.448 521.72C238.768 521.443 239.195 521.304 239.728 521.304C240.517 521.304 241.131 521.597 241.568 522.184C242.005 522.771 242.224 523.56 242.224 524.552ZM242.144 516.354C242.144 516.951 242.011 517.484 241.744 517.954C241.477 518.423 241.099 518.791 240.608 519.058C240.117 519.324 239.531 519.458 238.848 519.458H234.112V517.81H238.736C239.419 517.81 239.925 517.639 240.256 517.298C240.576 516.956 240.736 516.482 240.736 515.874C240.736 515.202 240.512 514.663 240.064 514.258C239.605 513.842 238.949 513.634 238.096 513.634H234.112V511.986H242V513.602H240.816V513.858C241.136 514.007 241.44 514.274 241.728 514.658C242.005 515.042 242.144 515.607 242.144 516.354ZM242.224 507.102C242.224 507.667 242.128 508.174 241.936 508.622C241.744 509.059 241.461 509.411 241.088 509.678C240.715 509.934 240.261 510.062 239.728 510.062C239.184 510.062 238.736 509.934 238.384 509.678C238.021 509.411 237.749 509.054 237.568 508.606C237.387 508.147 237.296 507.63 237.296 507.054V504.654H236.784C236.325 504.654 235.957 504.792 235.68 505.07C235.403 505.347 235.264 505.774 235.264 506.35C235.264 506.915 235.397 507.347 235.664 507.646C235.931 507.944 236.277 508.142 236.704 508.238L236.208 509.774C235.781 509.646 235.397 509.443 235.056 509.166C234.704 508.878 234.421 508.499 234.208 508.03C233.995 507.56 233.888 506.995 233.888 506.334C233.888 505.31 234.149 504.504 234.672 503.918C235.195 503.331 235.936 503.038 236.896 503.038H240.144C240.464 503.038 240.624 502.888 240.624 502.59V501.918H242V503.15C242 503.523 241.904 503.827 241.712 504.062C241.52 504.296 241.259 504.414 240.928 504.414H240.88V504.654C241.04 504.739 241.227 504.867 241.44 505.038C241.653 505.208 241.84 505.459 242 505.79C242.149 506.12 242.224 506.558 242.224 507.102ZM240.864 506.862C240.864 506.2 240.677 505.667 240.304 505.262C239.92 504.856 239.397 504.654 238.736 504.654H238.576V506.958C238.576 507.395 238.672 507.747 238.864 508.014C239.045 508.28 239.317 508.414 239.68 508.414C240.043 508.414 240.331 508.275 240.544 507.998C240.757 507.72 240.864 507.342 240.864 506.862ZM242 500.315H230.8V498.667H242V500.315ZM242 492.607H240.464V491.103H232.336V492.607H230.8V488.127C230.8 486.634 231.179 485.493 231.936 484.703C232.693 483.903 233.835 483.503 235.36 483.503H237.456C238.981 483.503 240.123 483.903 240.88 484.703C241.627 485.493 242 486.634 242 488.127V492.607ZM240.432 489.359V488.111C240.432 487.141 240.187 486.421 239.696 485.951C239.205 485.482 238.475 485.247 237.504 485.247H235.296C234.315 485.247 233.584 485.482 233.104 485.951C232.624 486.421 232.384 487.141 232.384 488.111V489.359H240.432ZM242.224 477.887C242.224 478.687 242.059 479.385 241.728 479.983C241.387 480.58 240.912 481.049 240.304 481.391C239.685 481.721 238.971 481.887 238.16 481.887H237.968C237.147 481.887 236.432 481.721 235.824 481.391C235.205 481.06 234.731 480.601 234.4 480.015C234.059 479.417 233.888 478.729 233.888 477.951C233.888 477.193 234.059 476.532 234.4 475.967C234.731 475.391 235.195 474.943 235.792 474.623C236.389 474.303 237.088 474.143 237.888 474.143H238.512V480.207C239.205 480.185 239.76 479.956 240.176 479.519C240.581 479.071 240.784 478.516 240.784 477.855C240.784 477.236 240.645 476.772 240.368 476.463C240.091 476.143 239.771 475.897 239.408 475.727L240.112 474.367C240.411 474.516 240.725 474.735 241.056 475.023C241.387 475.3 241.664 475.668 241.888 476.127C242.112 476.585 242.224 477.172 242.224 477.887ZM237.248 480.191V475.823C236.651 475.865 236.187 476.079 235.856 476.463C235.515 476.847 235.344 477.348 235.344 477.967C235.344 478.585 235.515 479.092 235.856 479.487C236.187 479.871 236.651 480.105 237.248 480.191ZM242.224 468.927C242.224 469.93 242 470.762 241.552 471.423C241.104 472.084 240.427 472.49 239.52 472.639L239.152 471.103C239.589 471.018 239.936 470.874 240.192 470.671C240.448 470.468 240.629 470.218 240.736 469.919C240.843 469.61 240.896 469.279 240.896 468.927C240.896 468.404 240.795 468.004 240.592 467.727C240.389 467.439 240.128 467.295 239.808 467.295C239.488 467.295 239.253 467.428 239.104 467.695C238.955 467.962 238.832 468.356 238.736 468.879L238.64 469.423C238.544 469.956 238.405 470.442 238.224 470.879C238.043 471.316 237.792 471.663 237.472 471.919C237.152 472.175 236.741 472.303 236.24 472.303C235.493 472.303 234.917 472.026 234.512 471.471C234.096 470.916 233.888 470.18 233.888 469.263C233.888 468.378 234.091 467.652 234.496 467.087C234.891 466.511 235.429 466.138 236.112 465.967L236.544 467.503C236.064 467.599 235.728 467.802 235.536 468.111C235.333 468.42 235.232 468.804 235.232 469.263C235.232 469.711 235.317 470.063 235.488 470.319C235.648 470.575 235.877 470.703 236.176 470.703C236.496 470.703 236.731 470.58 236.88 470.335C237.029 470.079 237.141 469.738 237.216 469.311L237.312 468.751C237.408 468.186 237.541 467.668 237.712 467.199C237.883 466.73 238.128 466.362 238.448 466.095C238.768 465.818 239.195 465.679 239.728 465.679C240.517 465.679 241.131 465.972 241.568 466.559C242.005 467.146 242.224 467.935 242.224 468.927ZM242 463.753H234.112V462.105H242V463.753ZM233.04 462.921C233.04 463.241 232.939 463.513 232.736 463.737C232.523 463.95 232.251 464.057 231.92 464.057C231.589 464.057 231.323 463.95 231.12 463.737C230.907 463.513 230.8 463.241 230.8 462.921C230.8 462.59 230.907 462.318 231.12 462.105C231.323 461.891 231.589 461.785 231.92 461.785C232.251 461.785 232.523 461.891 232.736 462.105C232.939 462.318 233.04 462.59 233.04 462.921ZM238.096 460.043H237.856C237.024 460.043 236.315 459.878 235.728 459.547C235.141 459.206 234.688 458.758 234.368 458.203C234.048 457.648 233.888 457.04 233.888 456.379C233.888 455.611 234.032 455.024 234.32 454.619C234.608 454.203 234.917 453.899 235.248 453.707V453.451H234.112V451.851H243.616C244.096 451.851 244.48 451.995 244.768 452.283C245.056 452.56 245.2 452.944 245.2 453.435V458.747H243.76V453.947C243.76 453.638 243.6 453.483 243.28 453.483H240.768V453.739C240.96 453.856 241.157 454.022 241.36 454.235C241.563 454.448 241.728 454.731 241.856 455.083C241.984 455.424 242.048 455.856 242.048 456.379C242.048 457.04 241.893 457.654 241.584 458.219C241.264 458.774 240.811 459.216 240.224 459.547C239.627 459.878 238.917 460.043 238.096 460.043ZM240.608 455.931C240.608 455.216 240.384 454.63 239.936 454.171C239.477 453.702 238.848 453.467 238.048 453.467H237.904C237.083 453.467 236.453 453.696 236.016 454.155C235.568 454.614 235.344 455.206 235.344 455.931C235.344 456.635 235.568 457.222 236.016 457.691C236.453 458.15 237.083 458.379 237.904 458.379H238.048C238.848 458.379 239.477 458.15 239.936 457.691C240.384 457.222 240.608 456.635 240.608 455.931ZM242 449.425H234.112V447.809H235.296V447.553C234.976 447.403 234.677 447.137 234.4 446.753C234.123 446.369 233.984 445.798 233.984 445.041C233.984 444.443 234.117 443.915 234.384 443.457C234.651 442.987 235.029 442.619 235.52 442.353C236 442.086 236.581 441.953 237.264 441.953H242V443.601H237.392C236.709 443.601 236.208 443.771 235.888 444.113C235.557 444.454 235.392 444.923 235.392 445.521C235.392 446.203 235.616 446.753 236.064 447.169C236.512 447.574 237.163 447.777 238.016 447.777H242V449.425Z" fill="#454545"/>
<path d="M241 129.248H239.464V127.744H231.336V129.248H229.8V124.768C229.8 123.275 230.179 122.133 230.936 121.344C231.693 120.544 232.835 120.144 234.36 120.144H236.456C237.981 120.144 239.123 120.544 239.88 121.344C240.627 122.133 241 123.275 241 124.768V129.248ZM239.432 126V124.752C239.432 123.781 239.187 123.061 238.696 122.592C238.205 122.123 237.475 121.888 236.504 121.888H234.296C233.315 121.888 232.584 122.123 232.104 122.592C231.624 123.061 231.384 123.781 231.384 124.752V126H239.432ZM241.224 114.527C241.224 115.327 241.059 116.026 240.728 116.623C240.387 117.221 239.912 117.69 239.304 118.031C238.685 118.362 237.971 118.527 237.16 118.527H236.968C236.147 118.527 235.432 118.362 234.824 118.031C234.205 117.701 233.731 117.242 233.4 116.655C233.059 116.058 232.888 115.37 232.888 114.591C232.888 113.834 233.059 113.173 233.4 112.607C233.731 112.031 234.195 111.583 234.792 111.263C235.389 110.943 236.088 110.783 236.888 110.783H237.512V116.847C238.205 116.826 238.76 116.597 239.176 116.159C239.581 115.711 239.784 115.157 239.784 114.495C239.784 113.877 239.645 113.413 239.368 113.103C239.091 112.783 238.771 112.538 238.408 112.367L239.112 111.007C239.411 111.157 239.725 111.375 240.056 111.663C240.387 111.941 240.664 112.309 240.888 112.767C241.112 113.226 241.224 113.813 241.224 114.527ZM236.248 116.831V112.463C235.651 112.506 235.187 112.719 234.856 113.103C234.515 113.487 234.344 113.989 234.344 114.607C234.344 115.226 234.515 115.733 234.856 116.127C235.187 116.511 235.651 116.746 236.248 116.831ZM241.224 105.568C241.224 106.57 241 107.402 240.552 108.064C240.104 108.725 239.427 109.13 238.52 109.28L238.152 107.744C238.589 107.658 238.936 107.514 239.192 107.312C239.448 107.109 239.629 106.858 239.736 106.56C239.843 106.25 239.896 105.92 239.896 105.568C239.896 105.045 239.795 104.645 239.592 104.368C239.389 104.08 239.128 103.936 238.808 103.936C238.488 103.936 238.253 104.069 238.104 104.336C237.955 104.602 237.832 104.997 237.736 105.52L237.64 106.064C237.544 106.597 237.405 107.082 237.224 107.52C237.043 107.957 236.792 108.304 236.472 108.56C236.152 108.816 235.741 108.944 235.24 108.944C234.493 108.944 233.917 108.666 233.512 108.112C233.096 107.557 232.888 106.821 232.888 105.904C232.888 105.018 233.091 104.293 233.496 103.728C233.891 103.152 234.429 102.778 235.112 102.608L235.544 104.144C235.064 104.24 234.728 104.442 234.536 104.752C234.333 105.061 234.232 105.445 234.232 105.904C234.232 106.352 234.317 106.704 234.488 106.96C234.648 107.216 234.877 107.344 235.176 107.344C235.496 107.344 235.731 107.221 235.88 106.976C236.029 106.72 236.141 106.378 236.216 105.952L236.312 105.392C236.408 104.826 236.541 104.309 236.712 103.84C236.883 103.37 237.128 103.002 237.448 102.736C237.768 102.458 238.195 102.32 238.728 102.32C239.517 102.32 240.131 102.613 240.568 103.2C241.005 103.786 241.224 104.576 241.224 105.568ZM241 100.393H233.112V98.7454H241V100.393ZM232.04 99.5614C232.04 99.8814 231.939 100.153 231.736 100.377C231.523 100.591 231.251 100.697 230.92 100.697C230.589 100.697 230.323 100.591 230.12 100.377C229.907 100.153 229.8 99.8814 229.8 99.5614C229.8 99.2307 229.907 98.9587 230.12 98.7454C230.323 98.532 230.589 98.4254 230.92 98.4254C231.251 98.4254 231.523 98.532 231.736 98.7454C231.939 98.9587 232.04 99.2307 232.04 99.5614ZM237.096 96.6836H236.856C236.024 96.6836 235.315 96.5183 234.728 96.1876C234.141 95.8463 233.688 95.3983 233.368 94.8436C233.048 94.289 232.888 93.681 232.888 93.0196C232.888 92.2516 233.032 91.665 233.32 91.2596C233.608 90.8436 233.917 90.5396 234.248 90.3476V90.0916H233.112V88.4916H242.616C243.096 88.4916 243.48 88.6356 243.768 88.9236C244.056 89.201 244.2 89.585 244.2 90.0756V95.3876H242.76V90.5876C242.76 90.2783 242.6 90.1236 242.28 90.1236H239.768V90.3796C239.96 90.497 240.157 90.6623 240.36 90.8756C240.563 91.089 240.728 91.3716 240.856 91.7236C240.984 92.065 241.048 92.497 241.048 93.0196C241.048 93.681 240.893 94.2943 240.584 94.8596C240.264 95.4143 239.811 95.857 239.224 96.1876C238.627 96.5183 237.917 96.6836 237.096 96.6836ZM239.608 92.5716C239.608 91.857 239.384 91.2703 238.936 90.8116C238.477 90.3423 237.848 90.1076 237.048 90.1076H236.904C236.083 90.1076 235.453 90.337 235.016 90.7956C234.568 91.2543 234.344 91.8463 234.344 92.5716C234.344 93.2756 234.568 93.8623 235.016 94.3316C235.453 94.7903 236.083 95.0196 236.904 95.0196H237.048C237.848 95.0196 238.477 94.7903 238.936 94.3316C239.384 93.8623 239.608 93.2756 239.608 92.5716ZM241 86.0652H233.112V84.4492H234.296V84.1932C233.976 84.0439 233.677 83.7772 233.4 83.3932C233.123 83.0092 232.984 82.4386 232.984 81.6812C232.984 81.0839 233.117 80.5559 233.384 80.0972C233.651 79.6279 234.029 79.2599 234.52 78.9932C235 78.7266 235.581 78.5932 236.264 78.5932H241V80.2412H236.392C235.709 80.2412 235.208 80.4119 234.888 80.7532C234.557 81.0946 234.392 81.5639 234.392 82.1612C234.392 82.8439 234.616 83.3932 235.064 83.8092C235.512 84.2146 236.163 84.4172 237.016 84.4172H241V86.0652ZM241 72.1914H229.8V70.4634H241V72.1914ZM241 65.1209C241 65.6009 240.856 65.9849 240.568 66.2729C240.28 66.5502 239.896 66.6889 239.416 66.6889H234.504V68.8649H233.112V66.6889H230.504V65.0409H233.112V62.6889H234.504V65.0409H239.128C239.448 65.0409 239.608 64.8915 239.608 64.5929V62.9449H241V65.1209ZM241.224 57.418C241.224 58.218 241.059 58.9167 240.728 59.514C240.387 60.1113 239.912 60.5807 239.304 60.922C238.685 61.2527 237.971 61.418 237.16 61.418H236.968C236.147 61.418 235.432 61.2527 234.824 60.922C234.205 60.5913 233.731 60.1327 233.4 59.546C233.059 58.9487 232.888 58.2607 232.888 57.482C232.888 56.7247 233.059 56.0633 233.4 55.498C233.731 54.922 234.195 54.474 234.792 54.154C235.389 53.834 236.088 53.674 236.888 53.674H237.512V59.738C238.205 59.7167 238.76 59.4873 239.176 59.05C239.581 58.602 239.784 58.0473 239.784 57.386C239.784 56.7673 239.645 56.3033 239.368 55.994C239.091 55.674 238.771 55.4287 238.408 55.258L239.112 53.898C239.411 54.0473 239.725 54.266 240.056 54.554C240.387 54.8313 240.664 55.1993 240.888 55.658C241.112 56.1167 241.224 56.7033 241.224 57.418ZM236.248 59.722V55.354C235.651 55.3967 235.187 55.61 234.856 55.994C234.515 56.378 234.344 56.8793 234.344 57.498C234.344 58.1167 234.515 58.6233 234.856 59.018C235.187 59.402 235.651 59.6367 236.248 59.722ZM241 51.6902H233.112V50.0742H234.04V49.8182C233.709 49.6902 233.469 49.4876 233.32 49.2102C233.16 48.9222 233.08 48.5702 233.08 48.1542V47.2102H234.568V48.2182C234.568 48.7516 234.717 49.1889 235.016 49.5302C235.304 49.8716 235.752 50.0422 236.36 50.0422H241V51.6902ZM241.224 43.2735C241.224 43.8388 241.128 44.3455 240.936 44.7935C240.744 45.2308 240.461 45.5828 240.088 45.8495C239.715 46.1055 239.261 46.2335 238.728 46.2335C238.184 46.2335 237.736 46.1055 237.384 45.8495C237.021 45.5828 236.749 45.2255 236.568 44.7775C236.387 44.3188 236.296 43.8015 236.296 43.2255V40.8255H235.784C235.325 40.8255 234.957 40.9642 234.68 41.2415C234.403 41.5188 234.264 41.9455 234.264 42.5215C234.264 43.0868 234.397 43.5188 234.664 43.8175C234.931 44.1162 235.277 44.3135 235.704 44.4095L235.208 45.9455C234.781 45.8175 234.397 45.6148 234.056 45.3375C233.704 45.0495 233.421 44.6708 233.208 44.2015C232.995 43.7322 232.888 43.1668 232.888 42.5055C232.888 41.4815 233.149 40.6762 233.672 40.0895C234.195 39.5028 234.936 39.2095 235.896 39.2095H239.144C239.464 39.2095 239.624 39.0602 239.624 38.7615V38.0895H241V39.3215C241 39.6948 240.904 39.9988 240.712 40.2335C240.52 40.4682 240.259 40.5855 239.928 40.5855H239.88V40.8255C240.04 40.9108 240.227 41.0388 240.44 41.2095C240.653 41.3802 240.84 41.6308 241 41.9615C241.149 42.2922 241.224 42.7295 241.224 43.2735ZM239.864 43.0335C239.864 42.3722 239.677 41.8388 239.304 41.4335C238.92 41.0282 238.397 40.8255 237.736 40.8255H237.576V43.1295C237.576 43.5668 237.672 43.9188 237.864 44.1855C238.045 44.4522 238.317 44.5855 238.68 44.5855C239.043 44.5855 239.331 44.4468 239.544 44.1695C239.757 43.8922 239.864 43.5135 239.864 43.0335ZM241 34.074C241 34.554 240.856 34.938 240.568 35.226C240.28 35.5033 239.896 35.642 239.416 35.642H234.504V37.818H233.112V35.642H230.504V33.994H233.112V31.642H234.504V33.994H239.128C239.448 33.994 239.608 33.8447 239.608 33.546V31.898H241V34.074ZM241 29.7059H233.112V28.0579H241V29.7059ZM232.04 28.8739C232.04 29.1939 231.939 29.4659 231.736 29.6899C231.523 29.9032 231.251 30.0099 230.92 30.0099C230.589 30.0099 230.323 29.9032 230.12 29.6899C229.907 29.4659 229.8 29.1939 229.8 28.8739C229.8 28.5432 229.907 28.2712 230.12 28.0579C230.323 27.8445 230.589 27.7379 230.92 27.7379C231.251 27.7379 231.523 27.8445 231.736 28.0579C231.939 28.2712 232.04 28.5432 232.04 28.8739ZM241.224 21.9161C241.224 22.7055 241.064 23.4095 240.744 24.0281C240.413 24.6361 239.944 25.1161 239.336 25.4681C238.728 25.8201 238.008 25.9961 237.176 25.9961H236.936C236.104 25.9961 235.389 25.8201 234.792 25.4681C234.184 25.1161 233.715 24.6361 233.384 24.0281C233.053 23.4095 232.888 22.7055 232.888 21.9161C232.888 21.1268 233.053 20.4228 233.384 19.8041C233.715 19.1855 234.184 18.7001 234.792 18.3481C235.389 17.9961 236.104 17.8201 236.936 17.8201H237.176C238.008 17.8201 238.728 17.9961 239.336 18.3481C239.944 18.7001 240.413 19.1855 240.744 19.8041C241.064 20.4228 241.224 21.1268 241.224 21.9161ZM239.752 21.9161C239.752 21.1908 239.523 20.6041 239.064 20.1561C238.595 19.6975 237.949 19.4681 237.128 19.4681H236.984C236.163 19.4681 235.523 19.6921 235.064 20.1401C234.595 20.5881 234.36 21.1801 234.36 21.9161C234.36 22.6308 234.595 23.2175 235.064 23.6761C235.523 24.1241 236.163 24.3481 236.984 24.3481H237.128C237.949 24.3481 238.595 24.1241 239.064 23.6761C239.523 23.2175 239.752 22.6308 239.752 21.9161ZM241 15.7684H233.112V14.1524H234.296V13.8964C233.976 13.747 233.677 13.4804 233.4 13.0964C233.123 12.7124 232.984 12.1417 232.984 11.3844C232.984 10.787 233.117 10.259 233.384 9.80037C233.651 9.33104 234.029 8.96304 234.52 8.69637C235 8.42971 235.581 8.29637 236.264 8.29637H241V9.94437H236.392C235.709 9.94437 235.208 10.115 234.888 10.4564C234.557 10.7977 234.392 11.267 234.392 11.8644C234.392 12.547 234.616 13.0964 235.064 13.5124C235.512 13.9177 236.163 14.1204 237.016 14.1204H241V15.7684Z" fill="#454545"/>
<g filter="url(#filter0_d_370_166)">
<circle cx="285" cy="285" r="75" fill="white"/>
</g>
<g clip-path="url(#clip0_370_166)">
<mask id="mask0_370_166" style="mask-type:luminance" maskUnits="userSpaceOnUse" x="262" y="276" width="68" height="55">
<path d="M327.3 276.916H265.2C263.709 276.916 262.5 278.125 262.5 279.616V327.316C262.5 328.807 263.709 330.016 265.2 330.016H327.3C328.791 330.016 330 328.807 330 327.316V279.616C330 278.125 328.791 276.916 327.3 276.916Z" fill="white"/>
</mask>
<g mask="url(#mask0_370_166)">
<path d="M327.3 276.916H265.2C263.709 276.916 262.5 278.125 262.5 279.616V327.316C262.5 328.807 263.709 330.016 265.2 330.016H327.3C328.791 330.016 330 328.807 330 327.316V279.616C330 278.125 328.791 276.916 327.3 276.916Z" stroke="#243145" stroke-width="12"/>
</g>
<path d="M281.85 312.9H276.45C274.71 312.9 273.3 314.31 273.3 316.05C273.3 317.79 274.71 319.2 276.45 319.2H281.85C283.59 319.2 285 317.79 285 316.05C285 314.31 283.59 312.9 281.85 312.9Z" fill="#243145"/>
<path d="M316.05 312.916H293.55C291.811 312.916 290.4 314.326 290.4 316.066C290.4 317.806 291.811 319.216 293.55 319.216H316.05C317.79 319.216 319.2 317.806 319.2 316.066C319.2 314.326 317.79 312.916 316.05 312.916Z" fill="#243145"/>
<path d="M288.75 287.133C289.178 287.133 289.55 287.291 289.866 287.608C290.182 287.924 290.34 288.296 290.34 288.724V299.967C290.34 302.571 289.652 304.524 288.276 305.826C286.899 307.128 284.89 307.779 282.249 307.779C279.608 307.779 277.599 307.128 276.223 305.826C274.846 304.524 274.158 302.571 274.158 299.967V288.724C274.158 288.296 274.316 287.924 274.633 287.608C274.949 287.291 275.321 287.133 275.749 287.133H278.204C278.631 287.133 279.004 287.291 279.32 287.608C279.636 287.924 279.794 288.296 279.794 288.724V300.386C279.794 301.465 279.989 302.227 280.38 302.674C280.771 303.101 281.412 303.315 282.305 303.315C283.198 303.315 283.84 303.101 284.23 302.674C284.621 302.227 284.816 301.465 284.816 300.386V288.724C284.816 288.296 284.974 287.924 285.29 287.608C285.606 287.291 285.979 287.133 286.406 287.133H288.75ZM305.334 297.401L309.435 306.077C309.603 306.412 309.584 306.738 309.379 307.054C309.175 307.352 308.886 307.5 308.514 307.5H305.501C305.036 307.5 304.608 307.361 304.218 307.082C303.846 306.803 303.576 306.44 303.409 305.994L301.428 300.274C301.428 300.256 301.419 300.246 301.4 300.246C301.381 300.246 301.372 300.256 301.372 300.274L299.391 305.994C299.242 306.44 298.973 306.803 298.582 307.082C298.21 307.361 297.782 307.5 297.299 307.5H294.397C294.044 307.5 293.765 307.352 293.56 307.054C293.355 306.738 293.328 306.412 293.476 306.077L297.578 297.401C297.633 297.252 297.633 297.103 297.578 296.954L293.616 288.556C293.467 288.221 293.495 287.905 293.7 287.608C293.904 287.291 294.183 287.133 294.537 287.133H297.41C297.894 287.133 298.331 287.273 298.722 287.552C299.112 287.812 299.382 288.166 299.531 288.612L301.484 294.08C301.484 294.099 301.493 294.108 301.512 294.108C301.53 294.108 301.539 294.099 301.539 294.08L303.492 288.612C303.641 288.166 303.911 287.812 304.302 287.552C304.711 287.273 305.148 287.133 305.613 287.133H308.375C308.747 287.133 309.035 287.291 309.24 287.608C309.444 287.905 309.463 288.221 309.296 288.556L305.334 296.954C305.278 297.103 305.278 297.252 305.334 297.401Z" fill="#243145"/>
<path d="M266.25 251.133C266.678 251.133 267.05 251.291 267.366 251.608C267.682 251.924 267.84 252.296 267.84 252.724V263.967C267.84 266.571 267.152 268.524 265.776 269.826C264.399 271.128 262.39 271.779 259.749 271.779C257.108 271.779 255.099 271.128 253.723 269.826C252.346 268.524 251.658 266.571 251.658 263.967V252.724C251.658 252.296 251.816 251.924 252.133 251.608C252.449 251.291 252.821 251.133 253.249 251.133H255.704C256.131 251.133 256.504 251.291 256.82 251.608C257.136 251.924 257.294 252.296 257.294 252.724V264.386C257.294 265.465 257.489 266.227 257.88 266.674C258.271 267.101 258.912 267.315 259.805 267.315C260.698 267.315 261.34 267.101 261.73 266.674C262.121 266.227 262.316 265.465 262.316 264.386V252.724C262.316 252.296 262.474 251.924 262.79 251.608C263.106 251.291 263.479 251.133 263.906 251.133H266.25ZM276.742 251.133C277.17 251.133 277.542 251.291 277.858 251.608C278.174 251.924 278.332 252.296 278.332 252.724V269.91C278.332 270.338 278.174 270.71 277.858 271.026C277.542 271.342 277.17 271.5 276.742 271.5H273.784C273.357 271.5 272.985 271.342 272.668 271.026C272.352 270.71 272.194 270.338 272.194 269.91V252.724C272.194 252.296 272.352 251.924 272.668 251.608C272.985 251.291 273.357 251.133 273.784 251.133H276.742Z" fill="#243145"/>
<path d="M262.5 302.101H249.9C246.432 301.78 245.478 300.719 245.4 297.602V250.814C245.639 246.883 246.791 245.672 250.8 245.415H280.5C284.015 245.869 285.052 246.815 285 249.914V266.109C285 267.601 286.209 268.809 287.7 268.809C289.191 268.809 290.4 267.601 290.4 266.109V249.914C289.581 242.585 287.294 240.464 280.5 240.016H250.8C242.718 239.76 240.612 242.447 240 250.814V297.602C240.402 304.473 242.222 306.941 249.9 307.5H262.5V302.101Z" fill="#243145"/>
</g>
<defs>
<filter id="filter0_d_370_166" x="150" y="157" width="270" height="270" filterUnits="userSpaceOnUse" color-interpolation-filters="sRGB">
<feFlood flood-opacity="0" result="BackgroundImageFix"/>
<feColorMatrix in="SourceAlpha" type="matrix" values="0 0 0 0 0 0 0 0 0 0 0 0 0 0 0 0 0 0 127 0" result="hardAlpha"/>
<feMorphology radius="10" operator="dilate" in="SourceAlpha" result="effect1_dropShadow_370_166"/>
<feOffset dy="7"/>
<feGaussianBlur stdDeviation="25"/>
<feComposite in2="hardAlpha" operator="out"/>
<feColorMatrix type="matrix" values="0 0 0 0 0.545 0 0 0 0 0.545 0 0 0 0 0.545 0 0 0 0.2 0"/>
<feBlend mode="normal" in2="BackgroundImageFix" result="effect1_dropShadow_370_166"/>
<feBlend mode="normal" in="SourceGraphic" in2="effect1_dropShadow_370_166" result="shape"/>
</filter>
<clipPath id="clip0_370_166">
<rect width="90" height="90" fill="white" transform="translate(240 240)"/>
</clipPath>
</defs>
</svg>
