<svg width="570" height="570" viewBox="0 0 570 570" fill="none" xmlns="http://www.w3.org/2000/svg">
<line x1="334.5" y1="435" x2="334.5" y2="334" stroke="#454545"/>
<line x1="334.5" y1="236" x2="334.5" y2="135" stroke="#454545"/>
<path d="M235 235L235 135" stroke="#454545"/>
<line x1="235.5" y1="435" x2="235.5" y2="335" stroke="#454545"/>
<line x1="135" y1="334.5" x2="236" y2="334.5" stroke="#454545"/>
<line x1="334" y1="334.5" x2="419" y2="334.5" stroke="#454545"/>
<line x1="334" y1="235.5" x2="424" y2="235.5" stroke="#454545"/>
<line x1="134" y1="234.5" x2="235" y2="234.5" stroke="#454545"/>
<line x1="91.3536" y1="90.6464" x2="480.262" y2="479.555" stroke="#454545"/>
<circle cx="88" cy="87" r="4.5" stroke="#454545"/>
<circle cx="483" cy="483" r="4.5" stroke="#454545"/>
<line x1="10" y1="284.5" x2="560" y2="284.5" stroke="#454545"/>
<circle cx="565" cy="284" r="4.5" stroke="#454545"/>
<circle cx="5" cy="285" r="4.5" stroke="#454545"/>
<line x1="285.5" y1="10" x2="285.5" y2="560" stroke="#454545"/>
<circle cx="286" cy="565" r="4.5" stroke="#454545"/>
<circle cx="285" cy="5" r="4.5" stroke="#454545"/>
<line x1="90.6464" y1="479.555" x2="479.555" y2="90.6464" stroke="#454545"/>
<circle cx="483" cy="87" r="4.5" stroke="#454545"/>
<circle cx="88" cy="483" r="4.5" stroke="#454545"/>
<path d="M341 129.248H339.464V127.744H331.336V129.248H329.8V123.568C329.8 122.896 329.917 122.309 330.152 121.808C330.376 121.307 330.701 120.917 331.128 120.64C331.544 120.352 332.04 120.208 332.616 120.208H332.776C333.288 120.208 333.709 120.304 334.04 120.496C334.371 120.688 334.627 120.923 334.808 121.2C334.989 121.467 335.117 121.723 335.192 121.968H335.448C335.512 121.723 335.64 121.461 335.832 121.184C336.013 120.896 336.269 120.656 336.6 120.464C336.931 120.261 337.363 120.16 337.896 120.16H338.056C338.675 120.16 339.203 120.304 339.64 120.592C340.077 120.88 340.413 121.28 340.648 121.792C340.883 122.293 341 122.875 341 123.536V129.248ZM339.432 126V123.744C339.432 123.168 339.293 122.715 339.016 122.384C338.739 122.053 338.355 121.888 337.864 121.888H337.72C337.229 121.888 336.845 122.053 336.568 122.384C336.291 122.704 336.152 123.157 336.152 123.744V126H339.432ZM334.568 126V123.744C334.568 123.2 334.435 122.763 334.168 122.432C333.891 122.101 333.517 121.936 333.048 121.936H332.888C332.419 121.936 332.051 122.101 331.784 122.432C331.507 122.752 331.368 123.189 331.368 123.744V126H334.568ZM341.224 115.727C341.224 116.292 341.128 116.799 340.936 117.247C340.744 117.684 340.461 118.036 340.088 118.303C339.715 118.559 339.261 118.687 338.728 118.687C338.184 118.687 337.736 118.559 337.384 118.303C337.021 118.036 336.749 117.679 336.568 117.231C336.387 116.772 336.296 116.255 336.296 115.679V113.279H335.784C335.325 113.279 334.957 113.417 334.68 113.695C334.403 113.972 334.264 114.399 334.264 114.975C334.264 115.54 334.397 115.972 334.664 116.271C334.931 116.569 335.277 116.767 335.704 116.863L335.208 118.399C334.781 118.271 334.397 118.068 334.056 117.791C333.704 117.503 333.421 117.124 333.208 116.655C332.995 116.185 332.888 115.62 332.888 114.959C332.888 113.935 333.149 113.129 333.672 112.543C334.195 111.956 334.936 111.663 335.896 111.663H339.144C339.464 111.663 339.624 111.513 339.624 111.215V110.543H341V111.775C341 112.148 340.904 112.452 340.712 112.687C340.52 112.921 340.259 113.039 339.928 113.039H339.88V113.279C340.04 113.364 340.227 113.492 340.44 113.663C340.653 113.833 340.84 114.084 341 114.415C341.149 114.745 341.224 115.183 341.224 115.727ZM339.864 115.487C339.864 114.825 339.677 114.292 339.304 113.887C338.92 113.481 338.397 113.279 337.736 113.279H337.576V115.583C337.576 116.02 337.672 116.372 337.864 116.639C338.045 116.905 338.317 117.039 338.68 117.039C339.043 117.039 339.331 116.9 339.544 116.623C339.757 116.345 339.864 115.967 339.864 115.487ZM341.224 105.464C341.224 106.221 341.064 106.909 340.744 107.528C340.424 108.136 339.96 108.621 339.352 108.984C338.744 109.336 338.013 109.512 337.16 109.512H336.952C336.099 109.512 335.373 109.336 334.776 108.984C334.168 108.621 333.704 108.136 333.384 107.528C333.053 106.909 332.888 106.221 332.888 105.464C332.888 104.706 333.027 104.061 333.304 103.528C333.581 102.994 333.949 102.568 334.408 102.248C334.867 101.917 335.373 101.704 335.928 101.608L336.264 103.208C335.912 103.261 335.592 103.373 335.304 103.544C335.016 103.714 334.787 103.954 334.616 104.264C334.445 104.573 334.36 104.962 334.36 105.432C334.36 105.89 334.467 106.306 334.68 106.68C334.883 107.042 335.181 107.33 335.576 107.544C335.96 107.757 336.429 107.864 336.984 107.864H337.128C337.683 107.864 338.157 107.757 338.552 107.544C338.947 107.33 339.245 107.042 339.448 106.68C339.651 106.306 339.752 105.89 339.752 105.432C339.752 104.738 339.576 104.21 339.224 103.848C338.861 103.485 338.403 103.256 337.848 103.16L338.216 101.56C338.76 101.688 339.261 101.917 339.72 102.248C340.179 102.568 340.547 102.994 340.824 103.528C341.091 104.061 341.224 104.706 341.224 105.464ZM341 99.659H329.8V98.011H336.184V97.755L333.112 94.651V92.459L336.936 96.443L341 92.331V94.507L337.72 97.755V98.011H341V99.659ZM341.224 87.6836C341.224 88.4836 341.059 89.1823 340.728 89.7796C340.387 90.377 339.912 90.8463 339.304 91.1876C338.685 91.5183 337.971 91.6836 337.16 91.6836H336.968C336.147 91.6836 335.432 91.5183 334.824 91.1876C334.205 90.857 333.731 90.3983 333.4 89.8116C333.059 89.2143 332.888 88.5263 332.888 87.7476C332.888 86.9903 333.059 86.329 333.4 85.7636C333.731 85.1876 334.195 84.7396 334.792 84.4196C335.389 84.0996 336.088 83.9396 336.888 83.9396H337.512V90.0036C338.205 89.9823 338.76 89.753 339.176 89.3156C339.581 88.8676 339.784 88.313 339.784 87.6516C339.784 87.033 339.645 86.569 339.368 86.2596C339.091 85.9396 338.771 85.6943 338.408 85.5236L339.112 84.1636C339.411 84.313 339.725 84.5316 340.056 84.8196C340.387 85.097 340.664 85.465 340.888 85.9236C341.112 86.3823 341.224 86.969 341.224 87.6836ZM336.248 89.9876V85.6196C335.651 85.6623 335.187 85.8756 334.856 86.2596C334.515 86.6436 334.344 87.145 334.344 87.7636C334.344 88.3823 334.515 88.889 334.856 89.2836C335.187 89.6676 335.651 89.9023 336.248 89.9876ZM341 81.9559H333.112V80.3399H334.296V80.0839C333.976 79.9345 333.677 79.6679 333.4 79.2839C333.123 78.8999 332.984 78.3292 332.984 77.5719C332.984 76.9745 333.117 76.4465 333.384 75.9879C333.651 75.5185 334.029 75.1505 334.52 74.8839C335 74.6172 335.581 74.4839 336.264 74.4839H341V76.1319H336.392C335.709 76.1319 335.208 76.3025 334.888 76.6439C334.557 76.9852 334.392 77.4545 334.392 78.0519C334.392 78.7345 334.616 79.2839 335.064 79.6999C335.512 80.1052 336.163 80.3079 337.016 80.3079H341V81.9559ZM341.224 68.8481C341.224 69.4988 341.064 70.1015 340.744 70.6561C340.424 71.2108 339.965 71.6588 339.368 72.0001C338.76 72.3308 338.029 72.4961 337.176 72.4961H336.936C336.093 72.4961 335.368 72.3308 334.76 72.0001C334.152 71.6695 333.688 71.2268 333.368 70.6721C333.048 70.1175 332.888 69.5095 332.888 68.8481C332.888 68.3361 332.952 67.9095 333.08 67.5681C333.208 67.2161 333.373 66.9281 333.576 66.7041C333.768 66.4801 333.971 66.3095 334.184 66.1921V65.9361H329.8V64.2881H341V65.9041H339.88V66.1601C340.221 66.3628 340.531 66.6721 340.808 67.0881C341.085 67.4935 341.224 68.0801 341.224 68.8481ZM339.784 68.3841C339.784 67.6695 339.555 67.0828 339.096 66.6241C338.637 66.1548 337.981 65.9201 337.128 65.9201H336.984C336.141 65.9201 335.491 66.1495 335.032 66.6081C334.573 67.0668 334.344 67.6588 334.344 68.3841C334.344 69.0881 334.573 69.6748 335.032 70.1441C335.491 70.6028 336.141 70.8321 336.984 70.8321H337.128C337.981 70.8321 338.637 70.6028 339.096 70.1441C339.555 69.6748 339.784 69.0881 339.784 68.3841Z" fill="#454545"/>
<path d="M431.176 242L429.528 230.8H431.256L432.6 240.832H432.856L434.584 230.8H437.608L439.336 240.832H439.592L440.92 230.8H442.648L441 242H437.976L436.216 231.824H435.96L434.216 242H431.176ZM447.863 242.224C447.063 242.224 446.365 242.059 445.767 241.728C445.17 241.387 444.701 240.912 444.359 240.304C444.029 239.685 443.863 238.971 443.863 238.16V237.968C443.863 237.147 444.029 236.432 444.359 235.824C444.69 235.205 445.149 234.731 445.735 234.4C446.333 234.059 447.021 233.888 447.799 233.888C448.557 233.888 449.218 234.059 449.783 234.4C450.359 234.731 450.807 235.195 451.127 235.792C451.447 236.389 451.607 237.088 451.607 237.888V238.512H445.543C445.565 239.205 445.794 239.76 446.231 240.176C446.679 240.581 447.234 240.784 447.895 240.784C448.514 240.784 448.978 240.645 449.287 240.368C449.607 240.091 449.853 239.771 450.023 239.408L451.383 240.112C451.234 240.411 451.015 240.725 450.727 241.056C450.45 241.387 450.082 241.664 449.623 241.888C449.165 242.112 448.578 242.224 447.863 242.224ZM445.559 237.248H449.927C449.885 236.651 449.671 236.187 449.287 235.856C448.903 235.515 448.402 235.344 447.783 235.344C447.165 235.344 446.658 235.515 446.263 235.856C445.879 236.187 445.645 236.651 445.559 237.248ZM458.151 242.224C457.383 242.224 456.791 242.085 456.375 241.808C455.97 241.531 455.666 241.221 455.463 240.88H455.207V242H453.591V230.8H455.239V235.184H455.495C455.623 234.971 455.794 234.768 456.007 234.576C456.22 234.373 456.503 234.208 456.855 234.08C457.207 233.952 457.639 233.888 458.151 233.888C458.812 233.888 459.42 234.048 459.975 234.368C460.53 234.688 460.972 235.152 461.303 235.76C461.634 236.368 461.799 237.093 461.799 237.936V238.176C461.799 239.029 461.628 239.76 461.287 240.368C460.956 240.965 460.514 241.424 459.959 241.744C459.415 242.064 458.812 242.224 458.151 242.224ZM457.671 240.784C458.386 240.784 458.972 240.555 459.431 240.096C459.9 239.637 460.135 238.981 460.135 238.128V237.984C460.135 237.141 459.906 236.491 459.447 236.032C458.988 235.573 458.396 235.344 457.671 235.344C456.967 235.344 456.38 235.573 455.911 236.032C455.452 236.491 455.223 237.141 455.223 237.984V238.128C455.223 238.981 455.452 239.637 455.911 240.096C456.38 240.555 456.967 240.784 457.671 240.784ZM467.455 242V240.464H468.959V232.336H467.455V230.8H471.935C473.428 230.8 474.57 231.179 475.359 231.936C476.159 232.693 476.559 233.835 476.559 235.36V237.456C476.559 238.981 476.159 240.123 475.359 240.88C474.57 241.627 473.428 242 471.935 242H467.455ZM470.703 240.432H471.951C472.922 240.432 473.642 240.187 474.111 239.696C474.58 239.205 474.815 238.475 474.815 237.504V235.296C474.815 234.315 474.58 233.584 474.111 233.104C473.642 232.624 472.922 232.384 471.951 232.384H470.703V240.432ZM482.176 242.224C481.376 242.224 480.677 242.059 480.08 241.728C479.482 241.387 479.013 240.912 478.672 240.304C478.341 239.685 478.176 238.971 478.176 238.16V237.968C478.176 237.147 478.341 236.432 478.672 235.824C479.002 235.205 479.461 234.731 480.048 234.4C480.645 234.059 481.333 233.888 482.112 233.888C482.869 233.888 483.53 234.059 484.096 234.4C484.672 234.731 485.12 235.195 485.44 235.792C485.76 236.389 485.92 237.088 485.92 237.888V238.512H479.856C479.877 239.205 480.106 239.76 480.544 240.176C480.992 240.581 481.546 240.784 482.208 240.784C482.826 240.784 483.29 240.645 483.6 240.368C483.92 240.091 484.165 239.771 484.336 239.408L485.696 240.112C485.546 240.411 485.328 240.725 485.04 241.056C484.762 241.387 484.394 241.664 483.936 241.888C483.477 242.112 482.89 242.224 482.176 242.224ZM479.872 237.248H484.24C484.197 236.651 483.984 236.187 483.6 235.856C483.216 235.515 482.714 235.344 482.096 235.344C481.477 235.344 480.97 235.515 480.576 235.856C480.192 236.187 479.957 236.651 479.872 237.248ZM491.136 242.224C490.133 242.224 489.301 242 488.64 241.552C487.978 241.104 487.573 240.427 487.424 239.52L488.96 239.152C489.045 239.589 489.189 239.936 489.392 240.192C489.594 240.448 489.845 240.629 490.144 240.736C490.453 240.843 490.784 240.896 491.136 240.896C491.658 240.896 492.058 240.795 492.336 240.592C492.624 240.389 492.768 240.128 492.768 239.808C492.768 239.488 492.634 239.253 492.368 239.104C492.101 238.955 491.706 238.832 491.184 238.736L490.64 238.64C490.106 238.544 489.621 238.405 489.184 238.224C488.746 238.043 488.4 237.792 488.144 237.472C487.888 237.152 487.76 236.741 487.76 236.24C487.76 235.493 488.037 234.917 488.592 234.512C489.146 234.096 489.882 233.888 490.799 233.888C491.685 233.888 492.41 234.091 492.976 234.496C493.552 234.891 493.925 235.429 494.096 236.112L492.56 236.544C492.464 236.064 492.261 235.728 491.952 235.536C491.642 235.333 491.258 235.232 490.799 235.232C490.352 235.232 490 235.317 489.744 235.488C489.488 235.648 489.36 235.877 489.36 236.176C489.36 236.496 489.482 236.731 489.728 236.88C489.984 237.029 490.325 237.141 490.752 237.216L491.312 237.312C491.877 237.408 492.394 237.541 492.864 237.712C493.333 237.883 493.701 238.128 493.968 238.448C494.245 238.768 494.384 239.195 494.384 239.728C494.384 240.517 494.09 241.131 493.504 241.568C492.917 242.005 492.128 242.224 491.136 242.224ZM496.31 242V234.112H497.958V242H496.31ZM497.142 233.04C496.822 233.04 496.55 232.939 496.326 232.736C496.112 232.523 496.006 232.251 496.006 231.92C496.006 231.589 496.112 231.323 496.326 231.12C496.55 230.907 496.822 230.8 497.142 230.8C497.472 230.8 497.744 230.907 497.958 231.12C498.171 231.323 498.278 231.589 498.278 231.92C498.278 232.251 498.171 232.523 497.958 232.736C497.744 232.939 497.472 233.04 497.142 233.04ZM500.02 238.096V237.856C500.02 237.024 500.185 236.315 500.516 235.728C500.857 235.141 501.305 234.688 501.86 234.368C502.414 234.048 503.022 233.888 503.684 233.888C504.452 233.888 505.038 234.032 505.444 234.32C505.86 234.608 506.164 234.917 506.356 235.248H506.612V234.112H508.212V243.616C508.212 244.096 508.068 244.48 507.78 244.768C507.502 245.056 507.118 245.2 506.628 245.2H501.316V243.76H506.116C506.425 243.76 506.58 243.6 506.58 243.28V240.768H506.324C506.206 240.96 506.041 241.157 505.828 241.36C505.614 241.563 505.332 241.728 504.98 241.856C504.638 241.984 504.206 242.048 503.684 242.048C503.022 242.048 502.409 241.893 501.844 241.584C501.289 241.264 500.846 240.811 500.516 240.224C500.185 239.627 500.02 238.917 500.02 238.096ZM504.132 240.608C504.846 240.608 505.433 240.384 505.892 239.936C506.361 239.477 506.596 238.848 506.596 238.048V237.904C506.596 237.083 506.366 236.453 505.908 236.016C505.449 235.568 504.857 235.344 504.132 235.344C503.428 235.344 502.841 235.568 502.372 236.016C501.913 236.453 501.684 237.083 501.684 237.904V238.048C501.684 238.848 501.913 239.477 502.372 239.936C502.841 240.384 503.428 240.608 504.132 240.608ZM510.638 242V234.112H512.254V235.296H512.51C512.659 234.976 512.926 234.677 513.31 234.4C513.694 234.123 514.265 233.984 515.022 233.984C515.619 233.984 516.147 234.117 516.606 234.384C517.075 234.651 517.443 235.029 517.71 235.52C517.977 236 518.11 236.581 518.11 237.264V242H516.462V237.392C516.462 236.709 516.291 236.208 515.95 235.888C515.609 235.557 515.139 235.392 514.542 235.392C513.859 235.392 513.31 235.616 512.894 236.064C512.489 236.512 512.286 237.163 512.286 238.016V242H510.638Z" fill="#454545"/>
<path d="M425.168 341V329.8H429.872C430.565 329.8 431.173 329.923 431.696 330.168C432.229 330.403 432.64 330.744 432.928 331.192C433.227 331.64 433.376 332.173 433.376 332.792V332.968C433.376 333.672 433.205 334.237 432.864 334.664C432.533 335.08 432.128 335.373 431.648 335.544V335.8C432.053 335.821 432.379 335.96 432.624 336.216C432.869 336.461 432.992 336.819 432.992 337.288V341H431.248V337.528C431.248 337.24 431.173 337.011 431.024 336.84C430.875 336.669 430.635 336.584 430.304 336.584H426.896V341H425.168ZM426.896 335.016H429.68C430.299 335.016 430.779 334.861 431.12 334.552C431.461 334.232 431.632 333.8 431.632 333.256V333.128C431.632 332.584 431.461 332.157 431.12 331.848C430.789 331.528 430.309 331.368 429.68 331.368H426.896V335.016ZM438.941 341.224C438.141 341.224 437.443 341.059 436.845 340.728C436.248 340.387 435.779 339.912 435.437 339.304C435.107 338.685 434.941 337.971 434.941 337.16V336.968C434.941 336.147 435.107 335.432 435.437 334.824C435.768 334.205 436.227 333.731 436.813 333.4C437.411 333.059 438.099 332.888 438.877 332.888C439.635 332.888 440.296 333.059 440.861 333.4C441.437 333.731 441.885 334.195 442.205 334.792C442.525 335.389 442.685 336.088 442.685 336.888V337.512H436.621C436.643 338.205 436.872 338.76 437.309 339.176C437.757 339.581 438.312 339.784 438.973 339.784C439.592 339.784 440.056 339.645 440.365 339.368C440.685 339.091 440.931 338.771 441.101 338.408L442.461 339.112C442.312 339.411 442.093 339.725 441.805 340.056C441.528 340.387 441.16 340.664 440.701 340.888C440.243 341.112 439.656 341.224 438.941 341.224ZM436.637 336.248H441.005C440.963 335.651 440.749 335.187 440.365 334.856C439.981 334.515 439.48 334.344 438.861 334.344C438.243 334.344 437.736 334.515 437.341 334.856C436.957 335.187 436.723 335.651 436.637 336.248ZM447.901 341.224C446.898 341.224 446.066 341 445.405 340.552C444.744 340.104 444.338 339.427 444.189 338.52L445.725 338.152C445.81 338.589 445.954 338.936 446.157 339.192C446.36 339.448 446.61 339.629 446.909 339.736C447.218 339.843 447.549 339.896 447.901 339.896C448.424 339.896 448.824 339.795 449.101 339.592C449.389 339.389 449.533 339.128 449.533 338.808C449.533 338.488 449.4 338.253 449.133 338.104C448.866 337.955 448.472 337.832 447.949 337.736L447.405 337.64C446.872 337.544 446.386 337.405 445.949 337.224C445.512 337.043 445.165 336.792 444.909 336.472C444.653 336.152 444.525 335.741 444.525 335.24C444.525 334.493 444.802 333.917 445.357 333.512C445.912 333.096 446.648 332.888 447.565 332.888C448.45 332.888 449.176 333.091 449.741 333.496C450.317 333.891 450.69 334.429 450.861 335.112L449.325 335.544C449.229 335.064 449.026 334.728 448.717 334.536C448.408 334.333 448.024 334.232 447.565 334.232C447.117 334.232 446.765 334.317 446.509 334.488C446.253 334.648 446.125 334.877 446.125 335.176C446.125 335.496 446.248 335.731 446.493 335.88C446.749 336.029 447.09 336.141 447.517 336.216L448.077 336.312C448.642 336.408 449.16 336.541 449.629 336.712C450.098 336.883 450.466 337.128 450.733 337.448C451.01 337.768 451.149 338.195 451.149 338.728C451.149 339.517 450.856 340.131 450.269 340.568C449.682 341.005 448.893 341.224 447.901 341.224ZM453.075 344.2V333.112H454.691V334.248H454.947C455.15 333.896 455.454 333.581 455.859 333.304C456.275 333.027 456.867 332.888 457.635 332.888C458.297 332.888 458.899 333.048 459.443 333.368C459.998 333.688 460.441 334.152 460.771 334.76C461.113 335.357 461.283 336.083 461.283 336.936V337.176C461.283 338.029 461.118 338.76 460.787 339.368C460.457 339.965 460.014 340.424 459.459 340.744C458.905 341.064 458.297 341.224 457.635 341.224C457.123 341.224 456.691 341.16 456.339 341.032C455.987 340.904 455.705 340.744 455.491 340.552C455.278 340.349 455.107 340.141 454.979 339.928H454.723V344.2H453.075ZM457.155 339.784C457.881 339.784 458.473 339.555 458.931 339.096C459.39 338.637 459.619 337.981 459.619 337.128V336.984C459.619 336.141 459.385 335.491 458.915 335.032C458.457 334.573 457.87 334.344 457.155 334.344C456.451 334.344 455.865 334.573 455.395 335.032C454.937 335.491 454.707 336.141 454.707 336.984V337.128C454.707 337.981 454.937 338.637 455.395 339.096C455.865 339.555 456.451 339.784 457.155 339.784ZM467.021 341.224C466.232 341.224 465.528 341.064 464.909 340.744C464.301 340.413 463.821 339.944 463.469 339.336C463.117 338.728 462.941 338.008 462.941 337.176V336.936C462.941 336.104 463.117 335.389 463.469 334.792C463.821 334.184 464.301 333.715 464.909 333.384C465.528 333.053 466.232 332.888 467.021 332.888C467.811 332.888 468.515 333.053 469.133 333.384C469.752 333.715 470.237 334.184 470.589 334.792C470.941 335.389 471.117 336.104 471.117 336.936V337.176C471.117 338.008 470.941 338.728 470.589 339.336C470.237 339.944 469.752 340.413 469.133 340.744C468.515 341.064 467.811 341.224 467.021 341.224ZM467.021 339.752C467.747 339.752 468.333 339.523 468.781 339.064C469.24 338.595 469.469 337.949 469.469 337.128V336.984C469.469 336.163 469.245 335.523 468.797 335.064C468.349 334.595 467.757 334.36 467.021 334.36C466.307 334.36 465.72 334.595 465.261 335.064C464.813 335.523 464.589 336.163 464.589 336.984V337.128C464.589 337.949 464.813 338.595 465.261 339.064C465.72 339.523 466.307 339.752 467.021 339.752ZM473.169 341V333.112H474.785V334.296H475.041C475.19 333.976 475.457 333.677 475.841 333.4C476.225 333.123 476.796 332.984 477.553 332.984C478.15 332.984 478.678 333.117 479.137 333.384C479.606 333.651 479.974 334.029 480.241 334.52C480.508 335 480.641 335.581 480.641 336.264V341H478.993V336.392C478.993 335.709 478.822 335.208 478.481 334.888C478.14 334.557 477.67 334.392 477.073 334.392C476.39 334.392 475.841 334.616 475.425 335.064C475.02 335.512 474.817 336.163 474.817 337.016V341H473.169ZM486.245 341.224C485.242 341.224 484.41 341 483.749 340.552C483.088 340.104 482.682 339.427 482.533 338.52L484.069 338.152C484.154 338.589 484.298 338.936 484.501 339.192C484.704 339.448 484.954 339.629 485.253 339.736C485.562 339.843 485.893 339.896 486.245 339.896C486.768 339.896 487.168 339.795 487.445 339.592C487.733 339.389 487.877 339.128 487.877 338.808C487.877 338.488 487.744 338.253 487.477 338.104C487.21 337.955 486.816 337.832 486.293 337.736L485.749 337.64C485.216 337.544 484.73 337.405 484.293 337.224C483.856 337.043 483.509 336.792 483.253 336.472C482.997 336.152 482.869 335.741 482.869 335.24C482.869 334.493 483.146 333.917 483.701 333.512C484.256 333.096 484.992 332.888 485.909 332.888C486.794 332.888 487.52 333.091 488.085 333.496C488.661 333.891 489.034 334.429 489.205 335.112L487.669 335.544C487.573 335.064 487.37 334.728 487.061 334.536C486.752 334.333 486.368 334.232 485.909 334.232C485.461 334.232 485.109 334.317 484.853 334.488C484.597 334.648 484.469 334.877 484.469 335.176C484.469 335.496 484.592 335.731 484.837 335.88C485.093 336.029 485.434 336.141 485.861 336.216L486.421 336.312C486.986 336.408 487.504 336.541 487.973 336.712C488.442 336.883 488.81 337.128 489.077 337.448C489.354 337.768 489.493 338.195 489.493 338.728C489.493 339.517 489.2 340.131 488.613 340.568C488.026 341.005 487.237 341.224 486.245 341.224ZM491.419 341V333.112H493.067V341H491.419ZM492.251 332.04C491.931 332.04 491.659 331.939 491.435 331.736C491.222 331.523 491.115 331.251 491.115 330.92C491.115 330.589 491.222 330.323 491.435 330.12C491.659 329.907 491.931 329.8 492.251 329.8C492.582 329.8 492.854 329.907 493.067 330.12C493.28 330.323 493.387 330.589 493.387 330.92C493.387 331.251 493.28 331.523 493.067 331.736C492.854 331.939 492.582 332.04 492.251 332.04ZM497.337 341L494.681 333.112H496.425L498.521 339.784H498.777L500.873 333.112H502.617L499.961 341H497.337ZM507.551 341.224C506.751 341.224 506.052 341.059 505.455 340.728C504.857 340.387 504.388 339.912 504.047 339.304C503.716 338.685 503.551 337.971 503.551 337.16V336.968C503.551 336.147 503.716 335.432 504.047 334.824C504.377 334.205 504.836 333.731 505.423 333.4C506.02 333.059 506.708 332.888 507.487 332.888C508.244 332.888 508.905 333.059 509.471 333.4C510.047 333.731 510.495 334.195 510.815 334.792C511.135 335.389 511.295 336.088 511.295 336.888V337.512H505.231C505.252 338.205 505.481 338.76 505.919 339.176C506.367 339.581 506.921 339.784 507.583 339.784C508.201 339.784 508.665 339.645 508.975 339.368C509.295 339.091 509.54 338.771 509.711 338.408L511.071 339.112C510.921 339.411 510.703 339.725 510.415 340.056C510.137 340.387 509.769 340.664 509.311 340.888C508.852 341.112 508.265 341.224 507.551 341.224ZM505.247 336.248H509.615C509.572 335.651 509.359 335.187 508.975 334.856C508.591 334.515 508.089 334.344 507.471 334.344C506.852 334.344 506.345 334.515 505.951 334.856C505.567 335.187 505.332 335.651 505.247 336.248ZM516.893 341V339.464H518.397V331.336H516.893V329.8H521.373C522.866 329.8 524.007 330.179 524.797 330.936C525.597 331.693 525.997 332.835 525.997 334.36V336.456C525.997 337.981 525.597 339.123 524.797 339.88C524.007 340.627 522.866 341 521.373 341H516.893ZM520.141 339.432H521.389C522.359 339.432 523.079 339.187 523.549 338.696C524.018 338.205 524.253 337.475 524.253 336.504V334.296C524.253 333.315 524.018 332.584 523.549 332.104C523.079 331.624 522.359 331.384 521.389 331.384H520.141V339.432ZM531.613 341.224C530.813 341.224 530.115 341.059 529.517 340.728C528.92 340.387 528.451 339.912 528.109 339.304C527.779 338.685 527.613 337.971 527.613 337.16V336.968C527.613 336.147 527.779 335.432 528.109 334.824C528.44 334.205 528.899 333.731 529.485 333.4C530.083 333.059 530.771 332.888 531.549 332.888C532.307 332.888 532.968 333.059 533.533 333.4C534.109 333.731 534.557 334.195 534.877 334.792C535.197 335.389 535.357 336.088 535.357 336.888V337.512H529.293C529.315 338.205 529.544 338.76 529.981 339.176C530.429 339.581 530.984 339.784 531.645 339.784C532.264 339.784 532.728 339.645 533.037 339.368C533.357 339.091 533.603 338.771 533.773 338.408L535.133 339.112C534.984 339.411 534.765 339.725 534.477 340.056C534.2 340.387 533.832 340.664 533.373 340.888C532.915 341.112 532.328 341.224 531.613 341.224ZM529.309 336.248H533.677C533.635 335.651 533.421 335.187 533.037 334.856C532.653 334.515 532.152 334.344 531.533 334.344C530.915 334.344 530.408 334.515 530.013 334.856C529.629 335.187 529.395 335.651 529.309 336.248ZM540.573 341.224C539.57 341.224 538.738 341 538.077 340.552C537.416 340.104 537.01 339.427 536.861 338.52L538.397 338.152C538.482 338.589 538.626 338.936 538.829 339.192C539.032 339.448 539.282 339.629 539.581 339.736C539.89 339.843 540.221 339.896 540.573 339.896C541.096 339.896 541.496 339.795 541.773 339.592C542.061 339.389 542.205 339.128 542.205 338.808C542.205 338.488 542.072 338.253 541.805 338.104C541.538 337.955 541.144 337.832 540.621 337.736L540.077 337.64C539.544 337.544 539.058 337.405 538.621 337.224C538.184 337.043 537.837 336.792 537.581 336.472C537.325 336.152 537.197 335.741 537.197 335.24C537.197 334.493 537.474 333.917 538.029 333.512C538.584 333.096 539.32 332.888 540.237 332.888C541.122 332.888 541.848 333.091 542.413 333.496C542.989 333.891 543.362 334.429 543.533 335.112L541.997 335.544C541.901 335.064 541.698 334.728 541.389 334.536C541.08 334.333 540.696 334.232 540.237 334.232C539.789 334.232 539.437 334.317 539.181 334.488C538.925 334.648 538.797 334.877 538.797 335.176C538.797 335.496 538.92 335.731 539.165 335.88C539.421 336.029 539.762 336.141 540.189 336.216L540.749 336.312C541.314 336.408 541.832 336.541 542.301 336.712C542.77 336.883 543.138 337.128 543.405 337.448C543.682 337.768 543.821 338.195 543.821 338.728C543.821 339.517 543.528 340.131 542.941 340.568C542.354 341.005 541.565 341.224 540.573 341.224ZM545.747 341V333.112H547.395V341H545.747ZM546.579 332.04C546.259 332.04 545.987 331.939 545.763 331.736C545.55 331.523 545.443 331.251 545.443 330.92C545.443 330.589 545.55 330.323 545.763 330.12C545.987 329.907 546.259 329.8 546.579 329.8C546.91 329.8 547.182 329.907 547.395 330.12C547.609 330.323 547.715 330.589 547.715 330.92C547.715 331.251 547.609 331.523 547.395 331.736C547.182 331.939 546.91 332.04 546.579 332.04ZM549.457 337.096V336.856C549.457 336.024 549.622 335.315 549.953 334.728C550.294 334.141 550.742 333.688 551.297 333.368C551.852 333.048 552.46 332.888 553.121 332.888C553.889 332.888 554.476 333.032 554.881 333.32C555.297 333.608 555.601 333.917 555.793 334.248H556.049V333.112H557.649V342.616C557.649 343.096 557.505 343.48 557.217 343.768C556.94 344.056 556.556 344.2 556.065 344.2H550.753V342.76H555.553C555.862 342.76 556.017 342.6 556.017 342.28V339.768H555.761C555.644 339.96 555.478 340.157 555.265 340.36C555.052 340.563 554.769 340.728 554.417 340.856C554.076 340.984 553.644 341.048 553.121 341.048C552.46 341.048 551.846 340.893 551.281 340.584C550.726 340.264 550.284 339.811 549.953 339.224C549.622 338.627 549.457 337.917 549.457 337.096ZM553.569 339.608C554.284 339.608 554.87 339.384 555.329 338.936C555.798 338.477 556.033 337.848 556.033 337.048V336.904C556.033 336.083 555.804 335.453 555.345 335.016C554.886 334.568 554.294 334.344 553.569 334.344C552.865 334.344 552.278 334.568 551.809 335.016C551.35 335.453 551.121 336.083 551.121 336.904V337.048C551.121 337.848 551.35 338.477 551.809 338.936C552.278 339.384 552.865 339.608 553.569 339.608ZM560.075 341V333.112H561.691V334.296H561.947C562.097 333.976 562.363 333.677 562.747 333.4C563.131 333.123 563.702 332.984 564.459 332.984C565.057 332.984 565.585 333.117 566.043 333.384C566.513 333.651 566.881 334.029 567.147 334.52C567.414 335 567.547 335.581 567.547 336.264V341H565.899V336.392C565.899 335.709 565.729 335.208 565.387 334.888C565.046 334.557 564.577 334.392 563.979 334.392C563.297 334.392 562.747 334.616 562.331 335.064C561.926 335.512 561.723 336.163 561.723 337.016V341H560.075Z" fill="#454545"/>
<path d="M341 533.824L329.8 535.472V533.744L339.832 532.4V532.144L329.8 530.416V527.392L339.832 525.664V525.408L329.8 524.08V522.352L341 524V527.024L330.824 528.784V529.04L341 530.784V533.824ZM341.224 517.137C341.224 517.937 341.059 518.635 340.728 519.233C340.387 519.83 339.912 520.299 339.304 520.641C338.685 520.971 337.971 521.137 337.16 521.137H336.968C336.147 521.137 335.432 520.971 334.824 520.641C334.205 520.31 333.731 519.851 333.4 519.265C333.059 518.667 332.888 517.979 332.888 517.201C332.888 516.443 333.059 515.782 333.4 515.217C333.731 514.641 334.195 514.193 334.792 513.873C335.389 513.553 336.088 513.393 336.888 513.393H337.512V519.457C338.205 519.435 338.76 519.206 339.176 518.769C339.581 518.321 339.784 517.766 339.784 517.105C339.784 516.486 339.645 516.022 339.368 515.713C339.091 515.393 338.771 515.147 338.408 514.977L339.112 513.617C339.411 513.766 339.725 513.985 340.056 514.273C340.387 514.55 340.664 514.918 340.888 515.377C341.112 515.835 341.224 516.422 341.224 517.137ZM336.248 519.441V515.073C335.651 515.115 335.187 515.329 334.856 515.713C334.515 516.097 334.344 516.598 334.344 517.217C334.344 517.835 334.515 518.342 334.856 518.737C335.187 519.121 335.651 519.355 336.248 519.441ZM341.224 506.849C341.224 507.617 341.085 508.209 340.808 508.625C340.531 509.03 340.221 509.334 339.88 509.537V509.793H341V511.409H329.8V509.761H334.184V509.505C333.971 509.377 333.768 509.206 333.576 508.993C333.373 508.78 333.208 508.497 333.08 508.145C332.952 507.793 332.888 507.361 332.888 506.849C332.888 506.188 333.048 505.58 333.368 505.025C333.688 504.47 334.152 504.028 334.76 503.697C335.368 503.366 336.093 503.201 336.936 503.201H337.176C338.029 503.201 338.76 503.372 339.368 503.713C339.965 504.044 340.424 504.486 340.744 505.041C341.064 505.585 341.224 506.188 341.224 506.849ZM339.784 507.329C339.784 506.614 339.555 506.028 339.096 505.569C338.637 505.1 337.981 504.865 337.128 504.865H336.984C336.141 504.865 335.491 505.094 335.032 505.553C334.573 506.012 334.344 506.604 334.344 507.329C334.344 508.033 334.573 508.62 335.032 509.089C335.491 509.548 336.141 509.777 336.984 509.777H337.128C337.981 509.777 338.637 509.548 339.096 509.089C339.555 508.62 339.784 508.033 339.784 507.329ZM341.224 497.399C341.224 498.242 341.075 498.988 340.776 499.639C340.477 500.29 340.04 500.802 339.464 501.175C338.877 501.538 338.168 501.719 337.336 501.719H336.936V500.007H337.336C338.125 500.007 338.717 499.772 339.112 499.303C339.507 498.823 339.704 498.188 339.704 497.399C339.704 496.599 339.539 495.996 339.208 495.591C338.867 495.186 338.429 494.983 337.896 494.983C337.544 494.983 337.256 495.079 337.032 495.271C336.808 495.463 336.632 495.735 336.504 496.087C336.365 496.439 336.237 496.86 336.12 497.351L335.976 497.943C335.805 498.658 335.597 499.282 335.352 499.815C335.096 500.338 334.76 500.743 334.344 501.031C333.928 501.319 333.395 501.463 332.744 501.463C332.083 501.463 331.517 501.303 331.048 500.983C330.579 500.652 330.216 500.199 329.96 499.623C329.704 499.047 329.576 498.37 329.576 497.591C329.576 496.812 329.709 496.119 329.976 495.511C330.243 494.892 330.637 494.407 331.16 494.055C331.683 493.703 332.339 493.527 333.128 493.527H333.704V495.239H333.128C332.648 495.239 332.259 495.34 331.96 495.543C331.661 495.735 331.443 496.007 331.304 496.359C331.165 496.711 331.096 497.122 331.096 497.591C331.096 498.274 331.24 498.807 331.528 499.191C331.805 499.564 332.195 499.751 332.696 499.751C333.037 499.751 333.32 499.671 333.544 499.511C333.757 499.34 333.933 499.095 334.072 498.775C334.211 498.455 334.333 498.055 334.44 497.575L334.584 496.983C334.744 496.258 334.952 495.618 335.208 495.063C335.453 494.508 335.789 494.071 336.216 493.751C336.643 493.431 337.192 493.271 337.864 493.271C338.536 493.271 339.123 493.442 339.624 493.783C340.125 494.114 340.52 494.588 340.808 495.207C341.085 495.826 341.224 496.556 341.224 497.399ZM341.224 487.713C341.224 488.502 341.064 489.206 340.744 489.825C340.413 490.433 339.944 490.913 339.336 491.265C338.728 491.617 338.008 491.793 337.176 491.793H336.936C336.104 491.793 335.389 491.617 334.792 491.265C334.184 490.913 333.715 490.433 333.384 489.825C333.053 489.206 332.888 488.502 332.888 487.713C332.888 486.924 333.053 486.22 333.384 485.601C333.715 484.982 334.184 484.497 334.792 484.145C335.389 483.793 336.104 483.617 336.936 483.617H337.176C338.008 483.617 338.728 483.793 339.336 484.145C339.944 484.497 340.413 484.982 340.744 485.601C341.064 486.22 341.224 486.924 341.224 487.713ZM339.752 487.713C339.752 486.988 339.523 486.401 339.064 485.953C338.595 485.494 337.949 485.265 337.128 485.265H336.984C336.163 485.265 335.523 485.489 335.064 485.937C334.595 486.385 334.36 486.977 334.36 487.713C334.36 488.428 334.595 489.014 335.064 489.473C335.523 489.921 336.163 490.145 336.984 490.145H337.128C337.949 490.145 338.595 489.921 339.064 489.473C339.523 489.014 339.752 488.428 339.752 487.713ZM341.224 477.901C341.224 478.659 341.064 479.347 340.744 479.965C340.424 480.573 339.96 481.059 339.352 481.421C338.744 481.773 338.013 481.949 337.16 481.949H336.952C336.099 481.949 335.373 481.773 334.776 481.421C334.168 481.059 333.704 480.573 333.384 479.965C333.053 479.347 332.888 478.659 332.888 477.901C332.888 477.144 333.027 476.499 333.304 475.965C333.581 475.432 333.949 475.005 334.408 474.685C334.867 474.355 335.373 474.141 335.928 474.045L336.264 475.645C335.912 475.699 335.592 475.811 335.304 475.981C335.016 476.152 334.787 476.392 334.616 476.701C334.445 477.011 334.36 477.4 334.36 477.869C334.36 478.328 334.467 478.744 334.68 479.117C334.883 479.48 335.181 479.768 335.576 479.981C335.96 480.195 336.429 480.301 336.984 480.301H337.128C337.683 480.301 338.157 480.195 338.552 479.981C338.947 479.768 339.245 479.48 339.448 479.117C339.651 478.744 339.752 478.328 339.752 477.869C339.752 477.176 339.576 476.648 339.224 476.285C338.861 475.923 338.403 475.693 337.848 475.597L338.216 473.997C338.76 474.125 339.261 474.355 339.72 474.685C340.179 475.005 340.547 475.432 340.824 475.965C341.091 476.499 341.224 477.144 341.224 477.901ZM341 472.096H329.8V470.448H336.184V470.192L333.112 467.088V464.896L336.936 468.88L341 464.768V466.944L337.72 470.192V470.448H341V472.096ZM341.224 460.121C341.224 460.921 341.059 461.62 340.728 462.217C340.387 462.814 339.912 463.284 339.304 463.625C338.685 463.956 337.971 464.121 337.16 464.121H336.968C336.147 464.121 335.432 463.956 334.824 463.625C334.205 463.294 333.731 462.836 333.4 462.249C333.059 461.652 332.888 460.964 332.888 460.185C332.888 459.428 333.059 458.766 333.4 458.201C333.731 457.625 334.195 457.177 334.792 456.857C335.389 456.537 336.088 456.377 336.888 456.377H337.512V462.441C338.205 462.42 338.76 462.19 339.176 461.753C339.581 461.305 339.784 460.75 339.784 460.089C339.784 459.47 339.645 459.006 339.368 458.697C339.091 458.377 338.771 458.132 338.408 457.961L339.112 456.601C339.411 456.75 339.725 456.969 340.056 457.257C340.387 457.534 340.664 457.902 340.888 458.361C341.112 458.82 341.224 459.406 341.224 460.121ZM336.248 462.425V458.057C335.651 458.1 335.187 458.313 334.856 458.697C334.515 459.081 334.344 459.582 334.344 460.201C334.344 460.82 334.515 461.326 334.856 461.721C335.187 462.105 335.651 462.34 336.248 462.425ZM341 451.73C341 452.21 340.856 452.594 340.568 452.882C340.28 453.16 339.896 453.298 339.416 453.298H334.504V455.474H333.112V453.298H330.504V451.65H333.112V449.298H334.504V451.65H339.128C339.448 451.65 339.608 451.501 339.608 451.202V449.554H341V451.73ZM341.224 444.13C341.224 445.133 341 445.965 340.552 446.626C340.104 447.287 339.427 447.693 338.52 447.842L338.152 446.306C338.589 446.221 338.936 446.077 339.192 445.874C339.448 445.671 339.629 445.421 339.736 445.122C339.843 444.813 339.896 444.482 339.896 444.13C339.896 443.607 339.795 443.207 339.592 442.93C339.389 442.642 339.128 442.498 338.808 442.498C338.488 442.498 338.253 442.631 338.104 442.898C337.955 443.165 337.832 443.559 337.736 444.082L337.64 444.626C337.544 445.159 337.405 445.645 337.224 446.082C337.043 446.519 336.792 446.866 336.472 447.122C336.152 447.378 335.741 447.506 335.24 447.506C334.493 447.506 333.917 447.229 333.512 446.674C333.096 446.119 332.888 445.383 332.888 444.466C332.888 443.581 333.091 442.855 333.496 442.29C333.891 441.714 334.429 441.341 335.112 441.17L335.544 442.706C335.064 442.802 334.728 443.005 334.536 443.314C334.333 443.623 334.232 444.007 334.232 444.466C334.232 444.914 334.317 445.266 334.488 445.522C334.648 445.778 334.877 445.906 335.176 445.906C335.496 445.906 335.731 445.783 335.88 445.538C336.029 445.282 336.141 444.941 336.216 444.514L336.312 443.954C336.408 443.389 336.541 442.871 336.712 442.402C336.883 441.933 337.128 441.565 337.448 441.298C337.768 441.021 338.195 440.882 338.728 440.882C339.517 440.882 340.131 441.175 340.568 441.762C341.005 442.349 341.224 443.138 341.224 444.13Z" fill="#454545"/>
<path d="M45.752 341V339.464H47.256V331.336H45.752V329.8H50.232C51.7253 329.8 52.8667 330.179 53.656 330.936C54.456 331.693 54.856 332.835 54.856 334.36V336.456C54.856 337.981 54.456 339.123 53.656 339.88C52.8667 340.627 51.7253 341 50.232 341H45.752ZM49 339.432H50.248C51.2187 339.432 51.9387 339.187 52.408 338.696C52.8773 338.205 53.112 337.475 53.112 336.504V334.296C53.112 333.315 52.8773 332.584 52.408 332.104C51.9387 331.624 51.2187 331.384 50.248 331.384H49V339.432ZM60.4726 341.224C59.6726 341.224 58.974 341.059 58.3766 340.728C57.7793 340.387 57.31 339.912 56.9686 339.304C56.638 338.685 56.4726 337.971 56.4726 337.16V336.968C56.4726 336.147 56.638 335.432 56.9686 334.824C57.2993 334.205 57.758 333.731 58.3446 333.4C58.942 333.059 59.63 332.888 60.4086 332.888C61.166 332.888 61.8273 333.059 62.3926 333.4C62.9686 333.731 63.4166 334.195 63.7366 334.792C64.0566 335.389 64.2166 336.088 64.2166 336.888V337.512H58.1526C58.174 338.205 58.4033 338.76 58.8406 339.176C59.2886 339.581 59.8433 339.784 60.5046 339.784C61.1233 339.784 61.5873 339.645 61.8966 339.368C62.2166 339.091 62.462 338.771 62.6326 338.408L63.9926 339.112C63.8433 339.411 63.6246 339.725 63.3366 340.056C63.0593 340.387 62.6913 340.664 62.2326 340.888C61.774 341.112 61.1873 341.224 60.4726 341.224ZM58.1686 336.248H62.5366C62.494 335.651 62.2806 335.187 61.8966 334.856C61.5126 334.515 61.0113 334.344 60.3926 334.344C59.774 334.344 59.2673 334.515 58.8726 334.856C58.4886 335.187 58.254 335.651 58.1686 336.248ZM70.7604 341.224C69.9924 341.224 69.4004 341.085 68.9844 340.808C68.579 340.531 68.275 340.221 68.0724 339.88H67.8164V341H66.2004V329.8H67.8484V334.184H68.1044C68.2324 333.971 68.403 333.768 68.6164 333.576C68.8297 333.373 69.1124 333.208 69.4644 333.08C69.8164 332.952 70.2484 332.888 70.7604 332.888C71.4217 332.888 72.0297 333.048 72.5844 333.368C73.139 333.688 73.5817 334.152 73.9124 334.76C74.243 335.368 74.4084 336.093 74.4084 336.936V337.176C74.4084 338.029 74.2377 338.76 73.8964 339.368C73.5657 339.965 73.123 340.424 72.5684 340.744C72.0244 341.064 71.4217 341.224 70.7604 341.224ZM70.2804 339.784C70.995 339.784 71.5817 339.555 72.0404 339.096C72.5097 338.637 72.7444 337.981 72.7444 337.128V336.984C72.7444 336.141 72.515 335.491 72.0564 335.032C71.5977 334.573 71.0057 334.344 70.2804 334.344C69.5764 334.344 68.9897 334.573 68.5204 335.032C68.0617 335.491 67.8324 336.141 67.8324 336.984V337.128C67.8324 337.981 68.0617 338.637 68.5204 339.096C68.9897 339.555 69.5764 339.784 70.2804 339.784ZM79.4744 341.144C78.877 341.144 78.3437 341.011 77.8744 340.744C77.405 340.477 77.037 340.099 76.7704 339.608C76.5037 339.117 76.3704 338.531 76.3704 337.848V333.112H78.0184V337.736C78.0184 338.419 78.189 338.925 78.5304 339.256C78.8717 339.576 79.3464 339.736 79.9544 339.736C80.6264 339.736 81.165 339.512 81.5704 339.064C81.9864 338.605 82.1944 337.949 82.1944 337.096V333.112H83.8424V341H82.2264V339.816H81.9704C81.821 340.136 81.5544 340.44 81.1704 340.728C80.7864 341.005 80.221 341.144 79.4744 341.144ZM85.8945 337.096V336.856C85.8945 336.024 86.0598 335.315 86.3905 334.728C86.7318 334.141 87.1798 333.688 87.7345 333.368C88.2892 333.048 88.8972 332.888 89.5585 332.888C90.3265 332.888 90.9132 333.032 91.3185 333.32C91.7345 333.608 92.0385 333.917 92.2305 334.248H92.4865V333.112H94.0865V342.616C94.0865 343.096 93.9425 343.48 93.6545 343.768C93.3772 344.056 92.9932 344.2 92.5025 344.2H87.1905V342.76H91.9905C92.2998 342.76 92.4545 342.6 92.4545 342.28V339.768H92.1985C92.0812 339.96 91.9158 340.157 91.7025 340.36C91.4892 340.563 91.2065 340.728 90.8545 340.856C90.5132 340.984 90.0812 341.048 89.5585 341.048C88.8972 341.048 88.2838 340.893 87.7185 340.584C87.1638 340.264 86.7212 339.811 86.3905 339.224C86.0598 338.627 85.8945 337.917 85.8945 337.096ZM90.0065 339.608C90.7212 339.608 91.3078 339.384 91.7665 338.936C92.2358 338.477 92.4705 337.848 92.4705 337.048V336.904C92.4705 336.083 92.2412 335.453 91.7825 335.016C91.3238 334.568 90.7318 334.344 90.0065 334.344C89.3025 334.344 88.7158 334.568 88.2465 335.016C87.7878 335.453 87.5585 336.083 87.5585 336.904V337.048C87.5585 337.848 87.7878 338.477 88.2465 338.936C88.7158 339.384 89.3025 339.608 90.0065 339.608ZM96.1289 337.096V336.856C96.1289 336.024 96.2942 335.315 96.6249 334.728C96.9662 334.141 97.4142 333.688 97.9689 333.368C98.5235 333.048 99.1315 332.888 99.7929 332.888C100.561 332.888 101.148 333.032 101.553 333.32C101.969 333.608 102.273 333.917 102.465 334.248H102.721V333.112H104.321V342.616C104.321 343.096 104.177 343.48 103.889 343.768C103.612 344.056 103.228 344.2 102.737 344.2H97.4249V342.76H102.225C102.534 342.76 102.689 342.6 102.689 342.28V339.768H102.433C102.316 339.96 102.15 340.157 101.937 340.36C101.724 340.563 101.441 340.728 101.089 340.856C100.748 340.984 100.316 341.048 99.7929 341.048C99.1315 341.048 98.5182 340.893 97.9529 340.584C97.3982 340.264 96.9555 339.811 96.6249 339.224C96.2942 338.627 96.1289 337.917 96.1289 337.096ZM100.241 339.608C100.956 339.608 101.542 339.384 102.001 338.936C102.47 338.477 102.705 337.848 102.705 337.048V336.904C102.705 336.083 102.476 335.453 102.017 335.016C101.558 334.568 100.966 334.344 100.241 334.344C99.5369 334.344 98.9502 334.568 98.4809 335.016C98.0222 335.453 97.7929 336.083 97.7929 336.904V337.048C97.7929 337.848 98.0222 338.477 98.4809 338.936C98.9502 339.384 99.5369 339.608 100.241 339.608ZM106.747 341V333.112H108.395V341H106.747ZM107.579 332.04C107.259 332.04 106.987 331.939 106.763 331.736C106.55 331.523 106.443 331.251 106.443 330.92C106.443 330.589 106.55 330.323 106.763 330.12C106.987 329.907 107.259 329.8 107.579 329.8C107.91 329.8 108.182 329.907 108.395 330.12C108.609 330.323 108.715 330.589 108.715 330.92C108.715 331.251 108.609 331.523 108.395 331.736C108.182 331.939 107.91 332.04 107.579 332.04ZM110.841 341V333.112H112.457V334.296H112.713C112.862 333.976 113.129 333.677 113.513 333.4C113.897 333.123 114.468 332.984 115.225 332.984C115.822 332.984 116.35 333.117 116.809 333.384C117.278 333.651 117.646 334.029 117.913 334.52C118.18 335 118.313 335.581 118.313 336.264V341H116.665V336.392C116.665 335.709 116.494 335.208 116.153 334.888C115.812 334.557 115.342 334.392 114.745 334.392C114.062 334.392 113.513 334.616 113.097 335.064C112.692 335.512 112.489 336.163 112.489 337.016V341H110.841ZM120.301 337.096V336.856C120.301 336.024 120.466 335.315 120.797 334.728C121.138 334.141 121.586 333.688 122.141 333.368C122.695 333.048 123.303 332.888 123.965 332.888C124.733 332.888 125.319 333.032 125.725 333.32C126.141 333.608 126.445 333.917 126.637 334.248H126.893V333.112H128.493V342.616C128.493 343.096 128.349 343.48 128.061 343.768C127.783 344.056 127.399 344.2 126.909 344.2H121.597V342.76H126.397C126.706 342.76 126.861 342.6 126.861 342.28V339.768H126.605C126.487 339.96 126.322 340.157 126.109 340.36C125.895 340.563 125.613 340.728 125.261 340.856C124.919 340.984 124.487 341.048 123.965 341.048C123.303 341.048 122.69 340.893 122.125 340.584C121.57 340.264 121.127 339.811 120.797 339.224C120.466 338.627 120.301 337.917 120.301 337.096ZM124.413 339.608C125.127 339.608 125.714 339.384 126.173 338.936C126.642 338.477 126.877 337.848 126.877 337.048V336.904C126.877 336.083 126.647 335.453 126.189 335.016C125.73 334.568 125.138 334.344 124.413 334.344C123.709 334.344 123.122 334.568 122.653 335.016C122.194 335.453 121.965 336.083 121.965 336.904V337.048C121.965 337.848 122.194 338.477 122.653 338.936C123.122 339.384 123.709 339.608 124.413 339.608Z" fill="#454545"/>
<path d="M37.168 241V229.8H44.08V231.368H38.896V234.6H43.664V236.168H38.896V241H37.168ZM45.8098 241V233.112H47.4258V234.04H47.6818C47.8098 233.709 48.0124 233.469 48.2898 233.32C48.5778 233.16 48.9298 233.08 49.3458 233.08H50.2898V234.568H49.2818C48.7484 234.568 48.3111 234.717 47.9698 235.016C47.6284 235.304 47.4578 235.752 47.4578 236.36V241H45.8098ZM54.2265 241.224C53.6612 241.224 53.1545 241.128 52.7065 240.936C52.2692 240.744 51.9172 240.461 51.6505 240.088C51.3945 239.715 51.2665 239.261 51.2665 238.728C51.2665 238.184 51.3945 237.736 51.6505 237.384C51.9172 237.021 52.2745 236.749 52.7225 236.568C53.1812 236.387 53.6985 236.296 54.2745 236.296H56.6745V235.784C56.6745 235.325 56.5358 234.957 56.2585 234.68C55.9812 234.403 55.5545 234.264 54.9785 234.264C54.4132 234.264 53.9812 234.397 53.6825 234.664C53.3838 234.931 53.1865 235.277 53.0905 235.704L51.5545 235.208C51.6825 234.781 51.8852 234.397 52.1625 234.056C52.4505 233.704 52.8292 233.421 53.2985 233.208C53.7678 232.995 54.3332 232.888 54.9945 232.888C56.0185 232.888 56.8238 233.149 57.4105 233.672C57.9972 234.195 58.2905 234.936 58.2905 235.896V239.144C58.2905 239.464 58.4398 239.624 58.7385 239.624H59.4105V241H58.1785C57.8052 241 57.5012 240.904 57.2665 240.712C57.0318 240.52 56.9145 240.259 56.9145 239.928V239.88H56.6745C56.5892 240.04 56.4612 240.227 56.2905 240.44C56.1198 240.653 55.8692 240.84 55.5385 241C55.2078 241.149 54.7705 241.224 54.2265 241.224ZM54.4665 239.864C55.1278 239.864 55.6612 239.677 56.0665 239.304C56.4718 238.92 56.6745 238.397 56.6745 237.736V237.576H54.3705C53.9332 237.576 53.5812 237.672 53.3145 237.864C53.0478 238.045 52.9145 238.317 52.9145 238.68C52.9145 239.043 53.0532 239.331 53.3305 239.544C53.6078 239.757 53.9865 239.864 54.4665 239.864ZM61.0129 241V233.112H62.6289V234.04H62.8849C63.0342 233.763 63.2742 233.517 63.6049 233.304C63.9355 233.091 64.3835 232.984 64.9489 232.984C65.5355 232.984 66.0049 233.107 66.3569 233.352C66.7195 233.587 66.9915 233.891 67.1729 234.264H67.4289C67.6102 233.901 67.8715 233.597 68.2129 233.352C68.5649 233.107 69.0609 232.984 69.7009 232.984C70.2129 232.984 70.6662 233.091 71.0609 233.304C71.4555 233.507 71.7702 233.816 72.0049 234.232C72.2395 234.637 72.3569 235.144 72.3569 235.752V241H70.7089V235.88C70.7089 235.4 70.5755 235.032 70.3089 234.776C70.0529 234.509 69.6849 234.376 69.2049 234.376C68.6929 234.376 68.2822 234.541 67.9729 234.872C67.6635 235.203 67.5089 235.677 67.5089 236.296V241H65.8609V235.88C65.8609 235.4 65.7275 235.032 65.4609 234.776C65.2049 234.509 64.8369 234.376 64.3569 234.376C63.8449 234.376 63.4342 234.541 63.1249 234.872C62.8155 235.203 62.6609 235.677 62.6609 236.296V241H61.0129ZM78.3476 241.224C77.5476 241.224 76.849 241.059 76.2516 240.728C75.6543 240.387 75.185 239.912 74.8436 239.304C74.513 238.685 74.3476 237.971 74.3476 237.16V236.968C74.3476 236.147 74.513 235.432 74.8436 234.824C75.1743 234.205 75.633 233.731 76.2196 233.4C76.817 233.059 77.505 232.888 78.2836 232.888C79.041 232.888 79.7023 233.059 80.2676 233.4C80.8436 233.731 81.2916 234.195 81.6116 234.792C81.9316 235.389 82.0916 236.088 82.0916 236.888V237.512H76.0276C76.049 238.205 76.2783 238.76 76.7156 239.176C77.1636 239.581 77.7183 239.784 78.3796 239.784C78.9983 239.784 79.4623 239.645 79.7716 239.368C80.0916 239.091 80.337 238.771 80.5076 238.408L81.8676 239.112C81.7183 239.411 81.4996 239.725 81.2116 240.056C80.9343 240.387 80.5663 240.664 80.1076 240.888C79.649 241.112 79.0623 241.224 78.3476 241.224ZM76.0436 236.248H80.4116C80.369 235.651 80.1556 235.187 79.7716 234.856C79.3876 234.515 78.8863 234.344 78.2676 234.344C77.649 234.344 77.1423 234.515 76.7476 234.856C76.3636 235.187 76.129 235.651 76.0436 236.248ZM84.8456 241L83.5016 233.112H85.1496L86.1416 239.896H86.3976L87.7736 233.112H90.4456L91.8056 239.896H92.0616L93.0536 233.112H94.7016L93.3576 241H90.5896L89.2296 234.232H88.9736L87.6136 241H84.8456ZM100.256 241.224C99.4664 241.224 98.7624 241.064 98.1438 240.744C97.5358 240.413 97.0558 239.944 96.7038 239.336C96.3518 238.728 96.1758 238.008 96.1758 237.176V236.936C96.1758 236.104 96.3518 235.389 96.7038 234.792C97.0558 234.184 97.5358 233.715 98.1438 233.384C98.7624 233.053 99.4664 232.888 100.256 232.888C101.045 232.888 101.749 233.053 102.368 233.384C102.986 233.715 103.472 234.184 103.824 234.792C104.176 235.389 104.352 236.104 104.352 236.936V237.176C104.352 238.008 104.176 238.728 103.824 239.336C103.472 239.944 102.986 240.413 102.368 240.744C101.749 241.064 101.045 241.224 100.256 241.224ZM100.256 239.752C100.981 239.752 101.568 239.523 102.016 239.064C102.474 238.595 102.704 237.949 102.704 237.128V236.984C102.704 236.163 102.48 235.523 102.032 235.064C101.584 234.595 100.992 234.36 100.256 234.36C99.5411 234.36 98.9544 234.595 98.4958 235.064C98.0478 235.523 97.8238 236.163 97.8238 236.984V237.128C97.8238 237.949 98.0478 238.595 98.4958 239.064C98.9544 239.523 99.5411 239.752 100.256 239.752ZM106.404 241V233.112H108.02V234.04H108.276C108.404 233.709 108.606 233.469 108.884 233.32C109.172 233.16 109.524 233.08 109.94 233.08H110.884V234.568H109.876C109.342 234.568 108.905 234.717 108.564 235.016C108.222 235.304 108.052 235.752 108.052 236.36V241H106.404ZM112.591 241V229.8H114.239V236.184H114.495L117.599 233.112H119.791L115.807 236.936L119.919 241H117.743L114.495 237.72H114.239V241H112.591ZM124.432 241.224C123.43 241.224 122.598 241 121.936 240.552C121.275 240.104 120.87 239.427 120.72 238.52L122.256 238.152C122.342 238.589 122.486 238.936 122.688 239.192C122.891 239.448 123.142 239.629 123.44 239.736C123.75 239.843 124.08 239.896 124.432 239.896C124.955 239.896 125.355 239.795 125.632 239.592C125.92 239.389 126.064 239.128 126.064 238.808C126.064 238.488 125.931 238.253 125.664 238.104C125.398 237.955 125.003 237.832 124.48 237.736L123.936 237.64C123.403 237.544 122.918 237.405 122.48 237.224C122.043 237.043 121.696 236.792 121.44 236.472C121.184 236.152 121.056 235.741 121.056 235.24C121.056 234.493 121.334 233.917 121.888 233.512C122.443 233.096 123.179 232.888 124.096 232.888C124.982 232.888 125.707 233.091 126.272 233.496C126.848 233.891 127.222 234.429 127.392 235.112L125.856 235.544C125.76 235.064 125.558 234.728 125.248 234.536C124.939 234.333 124.555 234.232 124.096 234.232C123.648 234.232 123.296 234.317 123.04 234.488C122.784 234.648 122.656 234.877 122.656 235.176C122.656 235.496 122.779 235.731 123.024 235.88C123.28 236.029 123.622 236.141 124.048 236.216L124.608 236.312C125.174 236.408 125.691 236.541 126.16 236.712C126.63 236.883 126.998 237.128 127.264 237.448C127.542 237.768 127.68 238.195 127.68 238.728C127.68 239.517 127.387 240.131 126.8 240.568C126.214 241.005 125.424 241.224 124.432 241.224Z" fill="#454545"/>
<path d="M242 534.248H240.464V532.744H232.336V534.248H230.8V529.768C230.8 528.275 231.179 527.133 231.936 526.344C232.693 525.544 233.835 525.144 235.36 525.144H237.456C238.981 525.144 240.123 525.544 240.88 526.344C241.627 527.133 242 528.275 242 529.768V534.248ZM240.432 531V529.752C240.432 528.781 240.187 528.061 239.696 527.592C239.205 527.123 238.475 526.888 237.504 526.888H235.296C234.315 526.888 233.584 527.123 233.104 527.592C232.624 528.061 232.384 528.781 232.384 529.752V531H240.432ZM242.224 519.527C242.224 520.327 242.059 521.026 241.728 521.623C241.387 522.221 240.912 522.69 240.304 523.031C239.685 523.362 238.971 523.527 238.16 523.527H237.968C237.147 523.527 236.432 523.362 235.824 523.031C235.205 522.701 234.731 522.242 234.4 521.655C234.059 521.058 233.888 520.37 233.888 519.591C233.888 518.834 234.059 518.173 234.4 517.607C234.731 517.031 235.195 516.583 235.792 516.263C236.389 515.943 237.088 515.783 237.888 515.783H238.512V521.847C239.205 521.826 239.76 521.597 240.176 521.159C240.581 520.711 240.784 520.157 240.784 519.495C240.784 518.877 240.645 518.413 240.368 518.103C240.091 517.783 239.771 517.538 239.408 517.367L240.112 516.007C240.411 516.157 240.725 516.375 241.056 516.663C241.387 516.941 241.664 517.309 241.888 517.767C242.112 518.226 242.224 518.813 242.224 519.527ZM237.248 521.831V517.463C236.651 517.506 236.187 517.719 235.856 518.103C235.515 518.487 235.344 518.989 235.344 519.607C235.344 520.226 235.515 520.733 235.856 521.127C236.187 521.511 236.651 521.746 237.248 521.831ZM245.2 513.8H234.112V512.184H235.248V511.928C234.896 511.725 234.581 511.421 234.304 511.016C234.027 510.6 233.888 510.008 233.888 509.24C233.888 508.578 234.048 507.976 234.368 507.432C234.688 506.877 235.152 506.434 235.76 506.104C236.357 505.762 237.083 505.592 237.936 505.592H238.176C239.029 505.592 239.76 505.757 240.368 506.088C240.965 506.418 241.424 506.861 241.744 507.416C242.064 507.97 242.224 508.578 242.224 509.24C242.224 509.752 242.16 510.184 242.032 510.536C241.904 510.888 241.744 511.17 241.552 511.384C241.349 511.597 241.141 511.768 240.928 511.896V512.152H245.2V513.8ZM240.784 509.72C240.784 508.994 240.555 508.402 240.096 507.944C239.637 507.485 238.981 507.256 238.128 507.256H237.984C237.141 507.256 236.491 507.49 236.032 507.96C235.573 508.418 235.344 509.005 235.344 509.72C235.344 510.424 235.573 511.01 236.032 511.48C236.491 511.938 237.141 512.168 237.984 512.168H238.128C238.981 512.168 239.637 511.938 240.096 511.48C240.555 511.01 240.784 510.424 240.784 509.72ZM242 503.55H230.8V501.902H242V503.55ZM242.224 495.76C242.224 496.549 242.064 497.253 241.744 497.872C241.413 498.48 240.944 498.96 240.336 499.312C239.728 499.664 239.008 499.84 238.176 499.84H237.936C237.104 499.84 236.389 499.664 235.792 499.312C235.184 498.96 234.715 498.48 234.384 497.872C234.053 497.253 233.888 496.549 233.888 495.76C233.888 494.971 234.053 494.267 234.384 493.648C234.715 493.029 235.184 492.544 235.792 492.192C236.389 491.84 237.104 491.664 237.936 491.664H238.176C239.008 491.664 239.728 491.84 240.336 492.192C240.944 492.544 241.413 493.029 241.744 493.648C242.064 494.267 242.224 494.971 242.224 495.76ZM240.752 495.76C240.752 495.035 240.523 494.448 240.064 494C239.595 493.541 238.949 493.312 238.128 493.312H237.984C237.163 493.312 236.523 493.536 236.064 493.984C235.595 494.432 235.36 495.024 235.36 495.76C235.36 496.475 235.595 497.061 236.064 497.52C236.523 497.968 237.163 498.192 237.984 498.192H238.128C238.949 498.192 239.595 497.968 240.064 497.52C240.523 497.061 240.752 496.475 240.752 495.76ZM245.2 488.7H243.76V484.3C243.76 484.001 243.6 483.852 243.28 483.852H240.848V484.108C241.061 484.204 241.269 484.353 241.472 484.556C241.664 484.748 241.824 485.009 241.952 485.34C242.08 485.671 242.144 486.087 242.144 486.588C242.144 487.185 242.011 487.719 241.744 488.188C241.477 488.657 241.099 489.025 240.608 489.292C240.117 489.559 239.536 489.692 238.864 489.692H234.112V488.044H238.736C239.419 488.044 239.925 487.873 240.256 487.532C240.576 487.191 240.736 486.716 240.736 486.108C240.736 485.436 240.512 484.897 240.064 484.492C239.616 484.076 238.965 483.868 238.112 483.868H234.112V482.22H243.616C244.096 482.22 244.48 482.364 244.768 482.652C245.056 482.929 245.2 483.313 245.2 483.804V488.7ZM242 479.784H234.112V478.168H235.04V477.912C234.763 477.763 234.517 477.523 234.304 477.192C234.091 476.861 233.984 476.413 233.984 475.848C233.984 475.261 234.107 474.792 234.352 474.44C234.587 474.077 234.891 473.805 235.264 473.624V473.368C234.901 473.187 234.597 472.925 234.352 472.584C234.107 472.232 233.984 471.736 233.984 471.096C233.984 470.584 234.091 470.131 234.304 469.736C234.507 469.341 234.816 469.027 235.232 468.792C235.637 468.557 236.144 468.44 236.752 468.44H242V470.088H236.88C236.4 470.088 236.032 470.221 235.776 470.488C235.509 470.744 235.376 471.112 235.376 471.592C235.376 472.104 235.541 472.515 235.872 472.824C236.203 473.133 236.677 473.288 237.296 473.288H242V474.936H236.88C236.4 474.936 236.032 475.069 235.776 475.336C235.509 475.592 235.376 475.96 235.376 476.44C235.376 476.952 235.541 477.363 235.872 477.672C236.203 477.981 236.677 478.136 237.296 478.136H242V479.784ZM242.224 462.449C242.224 463.249 242.059 463.948 241.728 464.545C241.387 465.143 240.912 465.612 240.304 465.953C239.685 466.284 238.971 466.449 238.16 466.449H237.968C237.147 466.449 236.432 466.284 235.824 465.953C235.205 465.623 234.731 465.164 234.4 464.577C234.059 463.98 233.888 463.292 233.888 462.513C233.888 461.756 234.059 461.095 234.4 460.529C234.731 459.953 235.195 459.505 235.792 459.185C236.389 458.865 237.088 458.705 237.888 458.705H238.512V464.769C239.205 464.748 239.76 464.519 240.176 464.081C240.581 463.633 240.784 463.079 240.784 462.417C240.784 461.799 240.645 461.335 240.368 461.025C240.091 460.705 239.771 460.46 239.408 460.289L240.112 458.929C240.411 459.079 240.725 459.297 241.056 459.585C241.387 459.863 241.664 460.231 241.888 460.689C242.112 461.148 242.224 461.735 242.224 462.449ZM237.248 464.753V460.385C236.651 460.428 236.187 460.641 235.856 461.025C235.515 461.409 235.344 461.911 235.344 462.529C235.344 463.148 235.515 463.655 235.856 464.049C236.187 464.433 236.651 464.668 237.248 464.753ZM242 456.721H234.112V455.105H235.296V454.849C234.976 454.7 234.677 454.433 234.4 454.049C234.123 453.665 233.984 453.095 233.984 452.337C233.984 451.74 234.117 451.212 234.384 450.753C234.651 450.284 235.029 449.916 235.52 449.649C236 449.383 236.581 449.249 237.264 449.249H242V450.897H237.392C236.709 450.897 236.208 451.068 235.888 451.409C235.557 451.751 235.392 452.22 235.392 452.817C235.392 453.5 235.616 454.049 236.064 454.465C236.512 454.871 237.163 455.073 238.016 455.073H242V456.721ZM242 444.136C242 444.616 241.856 445 241.568 445.288C241.28 445.566 240.896 445.704 240.416 445.704H235.504V447.88H234.112V445.704H231.504V444.056H234.112V441.704H235.504V444.056H240.128C240.448 444.056 240.608 443.907 240.608 443.609V441.96H242V444.136Z" fill="#454545"/>
<path d="M241 128.832H229.8V121.92H231.368V127.104H234.6V122.336H236.168V127.104H241V128.832ZM241 120.19H233.112V118.574H234.04V118.318C233.709 118.19 233.469 117.988 233.32 117.71C233.16 117.422 233.08 117.07 233.08 116.654V115.71H234.568V116.718C234.568 117.252 234.717 117.689 235.016 118.03C235.304 118.372 235.752 118.542 236.36 118.542H241V120.19ZM241.224 110.588C241.224 111.377 241.064 112.081 240.744 112.7C240.413 113.308 239.944 113.788 239.336 114.14C238.728 114.492 238.008 114.668 237.176 114.668H236.936C236.104 114.668 235.389 114.492 234.792 114.14C234.184 113.788 233.715 113.308 233.384 112.7C233.053 112.081 232.888 111.377 232.888 110.588C232.888 109.799 233.053 109.095 233.384 108.476C233.715 107.857 234.184 107.372 234.792 107.02C235.389 106.668 236.104 106.492 236.936 106.492H237.176C238.008 106.492 238.728 106.668 239.336 107.02C239.944 107.372 240.413 107.857 240.744 108.476C241.064 109.095 241.224 109.799 241.224 110.588ZM239.752 110.588C239.752 109.863 239.523 109.276 239.064 108.828C238.595 108.369 237.949 108.14 237.128 108.14H236.984C236.163 108.14 235.523 108.364 235.064 108.812C234.595 109.26 234.36 109.852 234.36 110.588C234.36 111.303 234.595 111.889 235.064 112.348C235.523 112.796 236.163 113.02 236.984 113.02H237.128C237.949 113.02 238.595 112.796 239.064 112.348C239.523 111.889 239.752 111.303 239.752 110.588ZM241 104.44H233.112V102.824H234.296V102.568C233.976 102.419 233.677 102.152 233.4 101.768C233.123 101.384 232.984 100.814 232.984 100.056C232.984 99.4589 233.117 98.9309 233.384 98.4722C233.651 98.0029 234.029 97.6349 234.52 97.3682C235 97.1016 235.581 96.9682 236.264 96.9682H241V98.6162H236.392C235.709 98.6162 235.208 98.7869 234.888 99.1282C234.557 99.4696 234.392 99.9389 234.392 100.536C234.392 101.219 234.616 101.768 235.064 102.184C235.512 102.59 236.163 102.792 237.016 102.792H241V104.44ZM241 91.8552C241 92.3352 240.856 92.7192 240.568 93.0072C240.28 93.2846 239.896 93.4232 239.416 93.4232H234.504V95.5992H233.112V93.4232H230.504V91.7752H233.112V89.4232H234.504V91.7752H239.128C239.448 91.7752 239.608 91.6259 239.608 91.3273V89.6792H241V91.8552ZM241.224 84.1524C241.224 84.9524 241.059 85.651 240.728 86.2484C240.387 86.8457 239.912 87.315 239.304 87.6564C238.685 87.987 237.971 88.1524 237.16 88.1524H236.968C236.147 88.1524 235.432 87.987 234.824 87.6564C234.205 87.3257 233.731 86.867 233.4 86.2804C233.059 85.683 232.888 84.995 232.888 84.2164C232.888 83.459 233.059 82.7977 233.4 82.2324C233.731 81.6564 234.195 81.2084 234.792 80.8884C235.389 80.5684 236.088 80.4084 236.888 80.4084H237.512V86.4724C238.205 86.451 238.76 86.2217 239.176 85.7844C239.581 85.3364 239.784 84.7817 239.784 84.1204C239.784 83.5017 239.645 83.0377 239.368 82.7284C239.091 82.4084 238.771 82.163 238.408 81.9924L239.112 80.6324C239.411 80.7817 239.725 81.0004 240.056 81.2884C240.387 81.5657 240.664 81.9337 240.888 82.3924C241.112 82.851 241.224 83.4377 241.224 84.1524ZM236.248 86.4564V82.0884C235.651 82.131 235.187 82.3444 234.856 82.7284C234.515 83.1124 234.344 83.6137 234.344 84.2324C234.344 84.851 234.515 85.3577 234.856 85.7524C235.187 86.1364 235.651 86.371 236.248 86.4564ZM241 78.4246H233.112V76.8086H234.296V76.5526C233.976 76.4033 233.677 76.1366 233.4 75.7526C233.123 75.3686 232.984 74.798 232.984 74.0406C232.984 73.4433 233.117 72.9153 233.384 72.4566C233.651 71.9873 234.029 71.6193 234.52 71.3526C235 71.086 235.581 70.9526 236.264 70.9526H241V72.6006H236.392C235.709 72.6006 235.208 72.7713 234.888 73.1126C234.557 73.454 234.392 73.9233 234.392 74.5206C234.392 75.2033 234.616 75.7526 235.064 76.1686C235.512 76.574 236.163 76.7766 237.016 76.7766H241V78.4246ZM241.224 65.3169C241.224 65.9675 241.064 66.5702 240.744 67.1249C240.424 67.6795 239.965 68.1275 239.368 68.4689C238.76 68.7995 238.029 68.9649 237.176 68.9649H236.936C236.093 68.9649 235.368 68.7995 234.76 68.4689C234.152 68.1382 233.688 67.6955 233.368 67.1409C233.048 66.5862 232.888 65.9782 232.888 65.3169C232.888 64.8049 232.952 64.3782 233.08 64.0369C233.208 63.6849 233.373 63.3969 233.576 63.1729C233.768 62.9489 233.971 62.7782 234.184 62.6609V62.4049H229.8V60.7569H241V62.3729H239.88V62.6289C240.221 62.8315 240.531 63.1409 240.808 63.5569C241.085 63.9622 241.224 64.5489 241.224 65.3169ZM239.784 64.8529C239.784 64.1382 239.555 63.5515 239.096 63.0929C238.637 62.6235 237.981 62.3889 237.128 62.3889H236.984C236.141 62.3889 235.491 62.6182 235.032 63.0769C234.573 63.5355 234.344 64.1275 234.344 64.8529C234.344 65.5569 234.573 66.1435 235.032 66.6129C235.491 67.0715 236.141 67.3009 236.984 67.3009H237.128C237.981 67.3009 238.637 67.0715 239.096 66.6129C239.555 66.1435 239.784 65.5569 239.784 64.8529Z" fill="#454545"/>
<g filter="url(#filter0_d_370_163)">
<circle cx="285" cy="285" r="75" fill="white"/>
</g>
<g clip-path="url(#clip0_370_163)">
<mask id="mask0_370_163" style="mask-type:luminance" maskUnits="userSpaceOnUse" x="235" y="235" width="100" height="35">
<path d="M335 235H235V270H335V235Z" fill="white"/>
</mask>
<g mask="url(#mask0_370_163)">
<path fill-rule="evenodd" clip-rule="evenodd" d="M285 328C289.859 328 295.455 324.681 300.211 316.754C300.359 316.506 300.508 316.255 300.652 316H269.348C269.492 316.255 269.641 316.506 269.789 316.754C274.545 324.681 280.141 328 285 328ZM266.094 309C263.547 302.205 262 293.986 262 285C262 276.014 263.547 267.795 266.094 261H303.906C306.453 267.795 308 276.014 308 285C308 293.986 306.453 302.205 303.906 309H266.094ZM308.539 316C307.231 318.758 305.75 321.28 304.125 323.523C308.065 321.564 311.66 319.018 314.799 316H308.539ZM320.684 309H311.324C313.668 301.876 315 293.697 315 285C315 276.303 313.668 268.124 311.324 261H320.684C325.303 267.854 328 276.112 328 285C328 293.888 325.303 302.146 320.684 309ZM258.676 309H249.316C244.697 302.146 242 293.887 242 285C242 276.113 244.697 267.854 249.316 261H258.676C256.332 268.124 255 276.303 255 285C255 293.697 256.332 301.876 258.676 309ZM255.201 316H261.461C262.769 318.758 264.25 321.281 265.875 323.523C261.935 321.564 258.34 319.018 255.201 316ZM269.348 254H300.652C300.508 253.745 300.359 253.494 300.211 253.246C295.455 245.319 289.859 242 285 242C280.141 242 274.545 245.319 269.789 253.246C269.641 253.494 269.492 253.745 269.348 254ZM308.539 254H314.799C311.66 250.982 308.065 248.437 304.125 246.477C305.75 248.72 307.231 251.242 308.539 254ZM265.875 246.477C264.25 248.719 262.769 251.242 261.461 254H255.201C258.34 250.982 261.935 248.436 265.875 246.477ZM285 235C312.613 235 335 257.386 335 285C335 312.614 312.613 335 285 335C257.387 335 235 312.614 235 285C235 257.386 257.387 235 285 235Z" fill="#243145"/>
</g>
<mask id="mask1_370_163" style="mask-type:luminance" maskUnits="userSpaceOnUse" x="235" y="300" width="100" height="35">
<path d="M335 300H235V335H335V300Z" fill="white"/>
</mask>
<g mask="url(#mask1_370_163)">
<path fill-rule="evenodd" clip-rule="evenodd" d="M285 328C289.859 328 295.455 324.681 300.211 316.754C300.359 316.506 300.508 316.255 300.652 316H269.348C269.492 316.255 269.641 316.506 269.789 316.754C274.545 324.681 280.141 328 285 328ZM266.094 309C263.547 302.205 262 293.986 262 285C262 276.014 263.547 267.795 266.094 261H303.906C306.453 267.795 308 276.014 308 285C308 293.986 306.453 302.205 303.906 309H266.094ZM308.539 316C307.231 318.758 305.75 321.28 304.125 323.523C308.065 321.564 311.66 319.018 314.799 316H308.539ZM320.684 309H311.324C313.668 301.876 315 293.697 315 285C315 276.303 313.668 268.124 311.324 261H320.684C325.303 267.854 328 276.112 328 285C328 293.888 325.303 302.146 320.684 309ZM258.676 309H249.316C244.697 302.146 242 293.887 242 285C242 276.113 244.697 267.854 249.316 261H258.676C256.332 268.124 255 276.303 255 285C255 293.697 256.332 301.876 258.676 309ZM255.201 316H261.461C262.769 318.758 264.25 321.281 265.875 323.523C261.935 321.564 258.34 319.018 255.201 316ZM269.348 254H300.652C300.508 253.745 300.359 253.494 300.211 253.246C295.455 245.319 289.859 242 285 242C280.141 242 274.545 245.319 269.789 253.246C269.641 253.494 269.492 253.745 269.348 254ZM308.539 254H314.799C311.66 250.982 308.065 248.437 304.125 246.477C305.75 248.72 307.231 251.242 308.539 254ZM265.875 246.477C264.25 248.719 262.769 251.242 261.461 254H255.201C258.34 250.982 261.935 248.436 265.875 246.477ZM285 235C312.613 235 335 257.386 335 285C335 312.614 312.613 335 285 335C257.387 335 235 312.614 235 285C235 257.386 257.387 235 285 235Z" fill="#243145"/>
</g>
<path d="M236.813 276.066C236.512 275 236.737 274.467 237.489 274.467H240.955C241.611 274.467 242.021 274.815 242.186 275.513L244.954 287.53C245.118 288.227 245.262 288.897 245.385 289.54C245.508 290.183 245.583 290.709 245.61 291.119H245.733C245.761 290.709 245.836 290.176 245.959 289.519C246.082 288.85 246.226 288.186 246.39 287.53L249.302 275.513C249.466 274.815 249.876 274.467 250.532 274.467H254.265C254.921 274.467 255.331 274.815 255.495 275.513L258.407 287.53C258.571 288.186 258.715 288.85 258.838 289.519C258.961 290.176 259.036 290.709 259.063 291.119H259.187C259.214 290.709 259.289 290.183 259.412 289.54C259.535 288.897 259.679 288.227 259.843 287.53L262.611 275.513C262.775 274.815 263.186 274.467 263.842 274.467H267.308C268.06 274.467 268.285 275 267.984 276.066L262.652 294.626C262.393 295.542 261.894 296 261.155 296H257.443C256.664 296 256.165 295.542 255.946 294.626L252.973 282.465C252.795 281.768 252.665 281.207 252.583 280.783C252.515 280.359 252.467 279.888 252.44 279.368H252.357C252.33 279.888 252.275 280.359 252.193 280.783C252.125 281.207 252.002 281.768 251.824 282.465L248.851 294.626C248.632 295.542 248.133 296 247.354 296H243.642C242.903 296 242.404 295.542 242.145 294.626L236.813 276.066ZM269.707 276.066C269.406 275 269.632 274.467 270.384 274.467H273.85C274.506 274.467 274.916 274.815 275.08 275.513L277.849 287.53C278.013 288.227 278.156 288.897 278.279 289.54C278.402 290.183 278.478 290.709 278.505 291.119H278.628C278.655 290.709 278.731 290.176 278.854 289.519C278.977 288.85 279.12 288.186 279.284 287.53L282.196 275.513C282.36 274.815 282.77 274.467 283.427 274.467H287.159C287.815 274.467 288.226 274.815 288.39 275.513L291.302 287.53C291.466 288.186 291.609 288.85 291.732 289.519C291.855 290.176 291.931 290.709 291.958 291.119H292.081C292.108 290.709 292.184 290.183 292.307 289.54C292.43 288.897 292.573 288.227 292.737 287.53L295.506 275.513C295.67 274.815 296.08 274.467 296.736 274.467H300.202C300.954 274.467 301.18 275 300.879 276.066L295.547 294.626C295.287 295.542 294.788 296 294.05 296H290.338C289.559 296 289.06 295.542 288.841 294.626L285.867 282.465C285.689 281.768 285.56 281.207 285.478 280.783C285.409 280.359 285.361 279.888 285.334 279.368H285.252C285.225 279.888 285.17 280.359 285.088 280.783C285.019 281.207 284.896 281.768 284.719 282.465L281.745 294.626C281.526 295.542 281.027 296 280.248 296H276.536C275.798 296 275.299 295.542 275.039 294.626L269.707 276.066ZM302.602 276.066C302.301 275 302.526 274.467 303.278 274.467H306.744C307.4 274.467 307.811 274.815 307.975 275.513L310.743 287.53C310.907 288.227 311.051 288.897 311.174 289.54C311.297 290.183 311.372 290.709 311.399 291.119H311.522C311.55 290.709 311.625 290.176 311.748 289.519C311.871 288.85 312.015 288.186 312.179 287.53L315.091 275.513C315.255 274.815 315.665 274.467 316.321 274.467H320.054C320.71 274.467 321.12 274.815 321.284 275.513L324.196 287.53C324.36 288.186 324.504 288.85 324.627 289.519C324.75 290.176 324.825 290.709 324.853 291.119H324.976C325.003 290.709 325.078 290.183 325.201 289.54C325.324 288.897 325.468 288.227 325.632 287.53L328.4 275.513C328.564 274.815 328.975 274.467 329.631 274.467H333.097C333.849 274.467 334.074 275 333.773 276.066L328.441 294.626C328.182 295.542 327.683 296 326.944 296H323.232C322.453 296 321.954 295.542 321.735 294.626L318.762 282.465C318.584 281.768 318.454 281.207 318.372 280.783C318.304 280.359 318.256 279.888 318.229 279.368H318.146C318.119 279.888 318.064 280.359 317.982 280.783C317.914 281.207 317.791 281.768 317.613 282.465L314.64 294.626C314.421 295.542 313.922 296 313.143 296H309.431C308.692 296 308.193 295.542 307.934 294.626L302.602 276.066Z" fill="#243145"/>
</g>
<defs>
<filter id="filter0_d_370_163" x="150" y="157" width="270" height="270" filterUnits="userSpaceOnUse" color-interpolation-filters="sRGB">
<feFlood flood-opacity="0" result="BackgroundImageFix"/>
<feColorMatrix in="SourceAlpha" type="matrix" values="0 0 0 0 0 0 0 0 0 0 0 0 0 0 0 0 0 0 127 0" result="hardAlpha"/>
<feMorphology radius="10" operator="dilate" in="SourceAlpha" result="effect1_dropShadow_370_163"/>
<feOffset dy="7"/>
<feGaussianBlur stdDeviation="25"/>
<feComposite in2="hardAlpha" operator="out"/>
<feColorMatrix type="matrix" values="0 0 0 0 0.545 0 0 0 0 0.545 0 0 0 0 0.545 0 0 0 0.2 0"/>
<feBlend mode="normal" in2="BackgroundImageFix" result="effect1_dropShadow_370_163"/>
<feBlend mode="normal" in="SourceGraphic" in2="effect1_dropShadow_370_163" result="shape"/>
</filter>
<clipPath id="clip0_370_163">
<rect width="100" height="100" fill="white" transform="translate(235 235)"/>
</clipPath>
</defs>
</svg>
